v 2.899695 1.699695 1.020000
v 2.899695 -1.699695 1.020000
v -2.899695 -1.699695 1.020000
v -2.899695 1.699695 1.020000
v 3.216321 2.016321 0.885600
v 3.216321 -2.016321 0.885600
v -3.216321 -2.016321 0.885600
v -3.216321 2.016321 0.885600
v 3.643299 2.443299 0.597600
v 3.643299 -2.443299 0.597600
v -3.643299 -2.443299 0.597600
v -3.643299 2.443299 0.597600
v 4.200000 3.000000 0.060000
v 4.200000 -3.000000 0.060000
v -4.200000 -3.000000 0.060000
v -4.200000 3.000000 0.060000
v 4.200000 3.000000 -0.060000
v 4.200000 -3.000000 -0.060000
v -4.200000 -3.000000 -0.060000
v -4.200000 3.000000 -0.060000
v 3.500539 2.300539 -1.560000
v 3.500539 -2.300539 -1.560000
v -3.500539 -2.300539 -1.560000
v -3.500539 2.300539 -1.560000
v 2.901141 1.701141 -2.385000
v 2.901141 -1.701141 -2.385000
v -2.901141 -1.701141 -2.385000
v -2.901141 1.701141 -2.385000
v 2.225894 1.025894 -3.003750
v 2.225894 -1.025894 -3.003750
v -2.225894 -1.025894 -3.003750
v -2.225894 1.025894 -3.003750
v 1.200000 0.000000 -3.776816
v -1.200000 0.000000 -3.776816

vn 0.000000 -0.000000 1.000000
vn 0.000000 0.390731 0.920505
vn 0.390731 0.000000 0.920505
vn 0.000000 -0.390731 0.920505
vn -0.390731 -0.000000 0.920505
vn 0.000000 0.559193 0.829038
vn 0.559193 0.000000 0.829038
vn -0.000000 -0.559193 0.829038
vn -0.559193 -0.000000 0.829038
vn 0.000000 0.694658 0.719340
vn 0.694658 0.000000 0.719340
vn 0.000000 -0.694658 0.719340
vn -0.694658 -0.000000 0.719340
vn 0.000000 1.000000 0.000000
vn 1.000000 -0.000000 0.000000
vn 0.000000 -1.000000 0.000000
vn -1.000000 -0.000000 0.000000
vn 0.000000 0.906308 -0.422618
vn 0.906308 0.000000 -0.422618
vn -0.000000 -0.906308 -0.422618
vn -0.906308 -0.000000 -0.422618
vn -0.000000 0.809017 -0.587785
vn 0.809017 0.000000 -0.587785
vn 0.000000 -0.809017 -0.587785
vn -0.809017 -0.000000 -0.587785
vn 0.000000 0.675590 -0.737277
vn 0.675590 -0.000000 -0.737277
vn 0.000000 -0.675590 -0.737277
vn -0.675590 0.000000 -0.737277
vn 0.000000 0.601815 -0.798635
vn 0.000000 -0.601815 -0.798635
vn 0.601815 0.000000 -0.798635
vn -0.601815 -0.000000 -0.798635



f 1//1 4//1 3//1
f 1//1 3//1 2//1
f 1//2 5//2 8//2
f 1//2 8//2 4//2
f 2//3 6//3 5//3
f 2//3 5//3 1//3
f 3//4 7//4 6//4
f 3//4 6//4 2//4
f 4//5 8//5 7//5
f 4//5 7//5 3//5
f 5//6 9//6 12//6
f 5//6 12//6 8//6
f 6//7 10//7 9//7
f 6//7 9//7 5//7
f 7//8 11//8 10//8
f 7//8 10//8 6//8
f 8//9 12//9 11//9
f 8//9 11//9 7//9
f 9//10 13//10 16//10
f 9//10 16//10 12//10
f 10//11 14//11 13//11
f 10//11 13//11 9//11
f 11//12 15//12 14//12
f 11//12 14//12 10//12
f 12//13 16//13 15//13
f 12//13 15//13 11//13
f 13//14 17//14 20//14
f 13//14 20//14 16//14
f 14//15 18//15 17//15
f 14//15 17//15 13//15
f 15//16 19//16 18//16
f 15//16 18//16 14//16
f 16//17 20//17 19//17
f 16//17 19//17 15//17
f 21//18 24//18 20//18
f 21//18 20//18 17//18
f 22//19 21//19 17//19
f 22//19 17//19 18//19
f 23//20 22//20 18//20
f 23//20 18//20 19//20
f 24//21 23//21 19//21
f 24//21 19//21 20//21
f 25//22 28//22 24//22
f 25//22 24//22 21//22
f 26//23 25//23 21//23
f 26//23 21//23 22//23
f 27//24 26//24 22//24
f 27//24 22//24 23//24
f 28//25 27//25 23//25
f 28//25 23//25 24//25
f 29//26 32//26 28//26
f 29//26 28//26 25//26
f 30//27 29//27 25//27
f 30//27 25//27 26//27
f 31//28 30//28 26//28
f 31//28 26//28 27//28
f 32//29 31//29 27//29
f 32//29 27//29 28//29
f 33//30 34//30 32//30
f 33//30 32//30 29//30
f 33//31 30//31 31//31
f 33//31 31//31 34//31
f 33//32 29//32 30//32
f 34//33 31//33 32//33
