v 0.000000 -7.128000 0.000000
v 0.138429 -6.278498 0.556743
v 0.394212 -6.278498 0.471984
v 0.589980 -6.278498 0.315370
v 0.695929 -6.278498 0.110743
v 0.695929 -6.278498 -0.110743
v 0.589980 -6.278498 -0.315370
v 0.394212 -6.278498 -0.471984
v 0.138429 -6.278498 -0.556743
v -0.138429 -6.278498 -0.556743
v -0.394212 -6.278498 -0.471984
v -0.589980 -6.278498 -0.315370
v -0.695929 -6.278498 -0.110743
v -0.695929 -6.278498 0.110743
v -0.589980 -6.278498 0.315370
v -0.394212 -6.278498 0.471984
v -0.138429 -6.278498 0.556743
v 0.000000 -5.428997 1.113486
v 0.532641 -5.428997 1.028727
v 0.984192 -5.428997 0.787354
v 1.285909 -5.428997 0.426113
v 1.391858 -5.428997 0.000000
v 1.285909 -5.428997 -0.426113
v 0.984192 -5.428997 -0.787354
v 0.532641 -5.428997 -1.028727
v 0.000000 -5.428997 -1.113486
v -0.532641 -5.428997 -1.028727
v -0.984192 -5.428997 -0.787354
v -1.285909 -5.428997 -0.426113
v -1.391858 -5.428997 0.000000
v -1.285909 -5.428997 0.426113
v -0.984192 -5.428997 0.787354
v -0.532641 -5.428997 1.028727
v 0.443667 -3.734102 1.784373
v 1.263458 -3.734102 1.512719
v 1.890898 -3.734102 1.010766
v 2.230467 -3.734102 0.354934
v 2.230467 -3.734102 -0.354934
v 1.890898 -3.734102 -1.010766
v 1.263458 -3.734102 -1.512719
v 0.443667 -3.734102 -1.784373
v -0.443667 -3.734102 -1.784373
v -1.263458 -3.734102 -1.512719
v -1.890898 -3.734102 -1.010766
v -2.230467 -3.734102 -0.354934
v -2.230467 -3.734102 0.354934
v -1.890898 -3.734102 1.010766
v -1.263458 -3.734102 1.512719
v -0.443667 -3.734102 1.784373
v 0.000000 -1.901996 2.253487
v 1.077965 -1.901996 2.081950
v 1.991820 -1.901996 1.593456
v 2.602438 -1.901996 0.862372
v 2.816859 -1.901996 0.000000
v 2.602438 -1.901996 -0.862372
v 1.991820 -1.901996 -1.593456
v 1.077965 -1.901996 -2.081950
v 0.000000 -1.901996 -2.253487
v -1.077965 -1.901996 -2.081950
v -1.991820 -1.901996 -1.593456
v -2.602438 -1.901996 -0.862372
v -2.816859 -1.901996 0.000000
v -2.602438 -1.901996 0.862372
v -1.991820 -1.901996 1.593456
v -1.077965 -1.901996 2.081950
v 0.585271 -0.000000 2.353885
v 1.666711 -0.000000 1.995527
v 2.494409 -0.000000 1.333369
v 2.942356 -0.000000 0.468217
v 2.942356 -0.000000 -0.468217
v 2.494409 -0.000000 -1.333369
v 1.666711 -0.000000 -1.995527
v 0.585271 -0.000000 -2.353885
v -0.585271 -0.000000 -2.353885
v -1.666711 -0.000000 -1.995527
v -2.494409 -0.000000 -1.333369
v -2.942356 -0.000000 -0.468217
v -2.942356 -0.000000 0.468217
v -2.494409 -0.000000 1.333369
v -1.666711 -0.000000 1.995527
v -0.585271 -0.000000 2.353885
v 0.000000 1.723900 2.119074
v 1.013668 1.723900 1.957769
v 1.873015 1.723900 1.498412
v 2.447212 1.723900 0.810935
v 2.648843 1.723900 0.000000
v 2.447212 1.723900 -0.810935
v 1.873015 1.723900 -1.498412
v 1.013668 1.723900 -1.957769
v 0.000000 1.723900 -2.119074
v -1.013668 1.723900 -1.957769
v -1.873015 1.723900 -1.498412
v -2.447212 1.723900 -0.810935
v -2.648843 1.723900 0.000000
v -2.447212 1.723900 0.810935
v -1.873015 1.723900 1.498412
v -1.013668 1.723900 1.957769
v 0.274768 3.242183 1.105082
v 0.782473 3.242183 0.936843
v 1.171054 3.242183 0.625979
v 1.381352 3.242183 0.219814
v 1.381352 3.242183 -0.219814
v 1.171054 3.242183 -0.625979
v 0.782473 3.242183 -0.936843
v 0.274768 3.242183 -1.105082
v -0.274768 3.242183 -1.105082
v -0.782473 3.242183 -0.936843
v -1.171054 3.242183 -0.625979
v -1.381352 3.242183 -0.219814
v -1.381352 3.242183 0.219814
v -1.171054 3.242183 0.625979
v -0.782473 3.242183 0.936843
v -0.274768 3.242183 1.105082
v 0.059674 3.578653 0.240000
v 0.169936 3.578653 0.203462
v 0.254328 3.578653 0.135949
v 0.300000 3.578653 0.047739
v 0.300000 3.578653 -0.047739
v 0.254328 3.578653 -0.135949
v 0.169936 3.578653 -0.203462
v 0.059674 3.578653 -0.240000
v -0.059674 3.578653 -0.240000
v -0.169936 3.578653 -0.203462
v -0.254328 3.578653 -0.135949
v -0.300000 3.578653 -0.047739
v -0.300000 3.578653 0.047739
v -0.254328 3.578653 0.135949
v -0.169936 3.578653 0.203462
v -0.059674 3.578653 0.240000

vn 0.000000 -0.052712 0.998610
vn -0.000000 -0.548146 0.836383
vn 0.260912 -0.558542 0.787373
vn 0.506062 -0.586299 0.632577
vn 0.697690 -0.618654 0.361241
vn 0.773563 -0.633719 -0.000000
vn 0.697690 -0.618654 -0.361241
vn 0.506062 -0.586299 -0.632577
vn 0.260912 -0.558542 -0.787373
vn 0.000000 -0.548146 -0.836383
vn -0.260912 -0.558542 -0.787373
vn -0.506062 -0.586299 -0.632577
vn -0.697690 -0.618654 -0.361241
vn -0.773563 -0.633719 0.000000
vn -0.697690 -0.618654 0.361241
vn -0.506062 -0.586299 0.632577
vn -0.260912 -0.558542 0.787373
vn 0.133467 -0.527936 0.838731
vn 0.394390 -0.547809 0.737808
vn 0.625126 -0.580180 0.522119
vn 0.771313 -0.606874 0.191780
vn 0.771313 -0.606874 -0.191780
vn 0.625126 -0.580180 -0.522119
vn 0.394390 -0.547809 -0.737808
vn 0.133467 -0.527936 -0.838731
vn -0.133467 -0.527936 -0.838731
vn -0.394390 -0.547809 -0.737808
vn -0.625126 -0.580180 -0.522119
vn -0.771313 -0.606874 -0.191780
vn -0.771313 -0.606874 0.191780
vn -0.625126 -0.580180 0.522119
vn -0.394390 -0.547809 0.737808
vn -0.133467 -0.527936 0.838731
vn 0.144264 -0.396613 0.906579
vn 0.429073 -0.414226 0.802691
vn 0.687826 -0.443688 0.574488
vn 0.857218 -0.468773 0.213139
vn 0.857218 -0.468773 -0.213139
vn 0.687826 -0.443688 -0.574488
vn 0.429073 -0.414226 -0.802691
vn 0.144264 -0.396613 -0.906579
vn -0.144264 -0.396613 -0.906579
vn -0.429073 -0.414226 -0.802691
vn -0.687826 -0.443688 -0.574488
vn -0.857218 -0.468773 -0.213139
vn -0.857218 -0.468773 0.213139
vn -0.687826 -0.443688 0.574488
vn -0.429073 -0.414226 0.802691
vn -0.144264 -0.396613 0.906579
vn -0.000000 -0.368044 0.929808
vn 0.291376 -0.376730 0.879304
vn 0.572399 -0.400526 0.715499
vn 0.801953 -0.429487 0.415225
vn 0.896289 -0.443471 0.000000
vn 0.801953 -0.429487 -0.415225
vn 0.572399 -0.400526 -0.715499
vn 0.291376 -0.376730 -0.879304
vn 0.000000 -0.368044 -0.929808
vn -0.291376 -0.376730 -0.879304
vn -0.572399 -0.400526 -0.715499
vn -0.801953 -0.429487 -0.415225
vn -0.896289 -0.443471 0.000000
vn -0.801953 -0.429487 0.415225
vn -0.572399 -0.400526 0.715499
vn -0.291376 -0.376730 0.879304
vn 0.000000 -0.248049 0.968747
vn 0.304200 -0.254423 0.918004
vn 0.601126 -0.272093 0.751407
vn 0.848769 -0.294044 0.439465
vn 0.952406 -0.304831 0.000000
vn 0.848769 -0.294044 -0.439465
vn 0.601126 -0.272093 -0.751407
vn 0.304200 -0.254423 -0.918004
vn 0.000000 -0.248049 -0.968747
vn -0.304200 -0.254423 -0.918004
vn -0.601126 -0.272093 -0.751407
vn -0.848769 -0.294044 -0.439465
vn -0.952406 -0.304831 -0.000000
vn -0.848769 -0.294044 0.439465
vn -0.601126 -0.272093 0.751407
vn -0.304200 -0.254423 0.918004
vn 0.153648 -0.210022 0.965548
vn 0.459794 -0.220699 0.860163
vn 0.745261 -0.239022 0.622459
vn 0.938337 -0.255129 0.233309
vn 0.938337 -0.255129 -0.233309
vn 0.745261 -0.239022 -0.622459
vn 0.459794 -0.220699 -0.860163
vn 0.153648 -0.210022 -0.965548
vn -0.153648 -0.210022 -0.965548
vn -0.459794 -0.220699 -0.860163
vn -0.745261 -0.239022 -0.622459
vn -0.938337 -0.255129 -0.233309
vn -0.938337 -0.255129 0.233309
vn -0.745261 -0.239022 0.622459
vn -0.459794 -0.220699 0.860163
vn -0.153648 -0.210022 0.965548
vn 0.156365 -0.099984 0.982626
vn 0.468800 -0.105263 0.877010
vn 0.762469 -0.114394 0.636832
vn 0.963143 -0.122502 0.239476
vn 0.963143 -0.122502 -0.239476
vn 0.762469 -0.114394 -0.636832
vn 0.468800 -0.105263 -0.877010
vn 0.156365 -0.099984 -0.982626
vn -0.156365 -0.099984 -0.982626
vn -0.468800 -0.105263 -0.877010
vn -0.762469 -0.114394 -0.636832
vn -0.963143 -0.122502 -0.239476
vn -0.963143 -0.122502 0.239476
vn -0.762469 -0.114394 0.636832
vn -0.468800 -0.105263 0.877010
vn -0.156365 -0.099984 0.982626
vn 0.314089 -0.054155 0.947848
vn 0.623636 -0.058193 0.779545
vn 0.886247 -0.063294 0.458869
vn 0.997830 -0.065839 0.000000
vn 0.886247 -0.063294 -0.458869
vn 0.623636 -0.058193 -0.779545
vn 0.314089 -0.054155 -0.947848
vn 0.000000 -0.052712 -0.998610
vn -0.314089 -0.054155 -0.947848
vn -0.623636 -0.058193 -0.779545
vn -0.886247 -0.063294 -0.458869
vn -0.997830 -0.065839 0.000000
vn -0.886247 -0.063294 0.458869
vn -0.623636 -0.058193 0.779545
vn -0.314089 -0.054155 0.947848
vn 0.000000 0.134963 0.990851
vn 0.311515 0.138597 0.940079
vn 0.617746 0.148744 0.772182
vn 0.876369 0.161505 0.453755
vn 0.985813 0.167846 0.000000
vn 0.876369 0.161505 -0.453755
vn 0.617746 0.148744 -0.772182
vn 0.311515 0.138597 -0.940079
vn 0.000000 0.134963 -0.990851
vn -0.311515 0.138597 -0.940079
vn -0.617746 0.148744 -0.772182
vn -0.876369 0.161505 -0.453755
vn -0.985813 0.167846 0.000000
vn -0.876369 0.161505 0.453755
vn -0.617746 0.148744 0.772182
vn -0.311515 0.138597 0.940079
vn 0.154451 0.184640 0.970594
vn 0.462450 0.194132 0.865132
vn 0.750317 0.210461 0.626682
vn 0.945601 0.224857 0.235115
vn 0.945601 0.224857 -0.235115
vn 0.750317 0.210461 -0.626682
vn 0.462450 0.194132 -0.865132
vn 0.154451 0.184640 -0.970594
vn -0.154451 0.184640 -0.970594
vn -0.462450 0.194132 -0.865132
vn -0.750317 0.210461 -0.626682
vn -0.945601 0.224857 -0.235115
vn -0.945601 0.224857 0.235115
vn -0.750317 0.210461 0.626682
vn -0.462450 0.194132 0.865132
vn -0.154451 0.184640 0.970594
vn 0.000000 0.555384 0.831594
vn 0.259362 0.565794 0.782694
vn 0.502751 0.593553 0.628439
vn 0.692614 0.625846 0.358613
vn 0.767661 0.640857 0.000000
vn 0.692614 0.625846 -0.358613
vn 0.502751 0.593553 -0.628439
vn 0.259362 0.565794 -0.782694
vn 0.000000 0.555384 -0.831594
vn -0.259362 0.565794 -0.782694
vn -0.502751 0.593553 -0.628439
vn -0.692614 0.625846 -0.358613
vn -0.767661 0.640857 0.000000
vn -0.692614 0.625846 0.358613
vn -0.502751 0.593553 0.628439
vn -0.259362 0.565794 0.782694
vn 0.132899 0.533713 0.835158
vn 0.392582 0.553623 0.734425
vn 0.621913 0.586012 0.519436
vn 0.766980 0.612679 0.190702
vn 0.766980 0.612679 -0.190702
vn 0.621913 0.586012 -0.519436
vn 0.392582 0.553623 -0.734425
vn 0.132899 0.533713 -0.835158
vn -0.132899 0.533713 -0.835158
vn -0.392582 0.553623 -0.734425
vn -0.621913 0.586012 -0.519436
vn -0.766980 0.612679 -0.190702
vn -0.766980 0.612679 0.190702
vn -0.621913 0.586012 0.519436
vn -0.392582 0.553623 0.734425
vn -0.132899 0.533713 0.835158
vn 0.000000 0.931987 0.362492
vn 0.111362 0.935232 0.336065
vn 0.207525 0.943208 0.259407
vn 0.273497 0.951392 0.141608
vn 0.297106 0.954845 0.000000
vn 0.273497 0.951392 -0.141608
vn 0.207525 0.943208 -0.259407
vn 0.111362 0.935232 -0.336065
vn 0.000000 0.931987 -0.362492
vn -0.111362 0.935232 -0.336065
vn -0.207525 0.943208 -0.259407
vn -0.273497 0.951392 -0.141608
vn -0.297106 0.954845 -0.000000
vn -0.273497 0.951392 0.141608
vn -0.207525 0.943208 0.259407
vn -0.111362 0.935232 0.336065
vn 0.000000 1.000000 0.000000



f 50//1 66//1 81//1
f 1//2 2//2 18//2
f 1//2 18//2 17//2
f 1//3 3//3 19//3
f 1//3 19//3 2//3
f 1//4 4//4 20//4
f 1//4 20//4 3//4
f 1//5 5//5 21//5
f 1//5 21//5 4//5
f 1//6 6//6 22//6
f 1//6 22//6 5//6
f 1//7 7//7 23//7
f 1//7 23//7 6//7
f 1//8 8//8 24//8
f 1//8 24//8 7//8
f 1//9 9//9 25//9
f 1//9 25//9 8//9
f 1//10 10//10 26//10
f 1//10 26//10 9//10
f 1//11 11//11 27//11
f 1//11 27//11 10//11
f 1//12 12//12 28//12
f 1//12 28//12 11//12
f 1//13 13//13 29//13
f 1//13 29//13 12//13
f 1//14 14//14 30//14
f 1//14 30//14 13//14
f 1//15 15//15 31//15
f 1//15 31//15 14//15
f 1//16 16//16 32//16
f 1//16 32//16 15//16
f 1//17 17//17 33//17
f 1//17 33//17 16//17
f 2//18 19//18 18//18
f 3//19 20//19 19//19
f 4//20 21//20 20//20
f 5//21 22//21 21//21
f 6//22 23//22 22//22
f 7//23 24//23 23//23
f 8//24 25//24 24//24
f 9//25 26//25 25//25
f 10//26 27//26 26//26
f 11//27 28//27 27//27
f 12//28 29//28 28//28
f 13//29 30//29 29//29
f 14//30 31//30 30//30
f 15//31 32//31 31//31
f 16//32 33//32 32//32
f 17//33 18//33 33//33
f 18//34 19//34 34//34
f 19//35 20//35 35//35
f 20//36 21//36 36//36
f 21//37 22//37 37//37
f 22//38 23//38 38//38
f 23//39 24//39 39//39
f 24//40 25//40 40//40
f 25//41 26//41 41//41
f 26//42 27//42 42//42
f 27//43 28//43 43//43
f 28//44 29//44 44//44
f 29//45 30//45 45//45
f 30//46 31//46 46//46
f 31//47 32//47 47//47
f 32//48 33//48 48//48
f 33//49 18//49 49//49
f 18//50 34//50 49//50
f 19//51 35//51 34//51
f 20//52 36//52 35//52
f 21//53 37//53 36//53
f 22//54 38//54 37//54
f 23//55 39//55 38//55
f 24//56 40//56 39//56
f 25//57 41//57 40//57
f 26//58 42//58 41//58
f 27//59 43//59 42//59
f 28//60 44//60 43//60
f 29//61 45//61 44//61
f 30//62 46//62 45//62
f 31//63 47//63 46//63
f 32//64 48//64 47//64
f 33//65 49//65 48//65
f 49//66 34//66 50//66
f 34//67 35//67 51//67
f 35//68 36//68 52//68
f 36//69 37//69 53//69
f 37//70 38//70 54//70
f 38//71 39//71 55//71
f 39//72 40//72 56//72
f 40//73 41//73 57//73
f 41//74 42//74 58//74
f 42//75 43//75 59//75
f 43//76 44//76 60//76
f 44//77 45//77 61//77
f 45//78 46//78 62//78
f 46//79 47//79 63//79
f 47//80 48//80 64//80
f 48//81 49//81 65//81
f 34//82 51//82 50//82
f 35//83 52//83 51//83
f 36//84 53//84 52//84
f 37//85 54//85 53//85
f 38//86 55//86 54//86
f 39//87 56//87 55//87
f 40//88 57//88 56//88
f 41//89 58//89 57//89
f 42//90 59//90 58//90
f 43//91 60//91 59//91
f 44//92 61//92 60//92
f 45//93 62//93 61//93
f 46//94 63//94 62//94
f 47//95 64//95 63//95
f 48//96 65//96 64//96
f 49//97 50//97 65//97
f 50//98 51//98 66//98
f 51//99 52//99 67//99
f 52//100 53//100 68//100
f 53//101 54//101 69//101
f 54//102 55//102 70//102
f 55//103 56//103 71//103
f 56//104 57//104 72//104
f 57//105 58//105 73//105
f 58//106 59//106 74//106
f 59//107 60//107 75//107
f 60//108 61//108 76//108
f 61//109 62//109 77//109
f 62//110 63//110 78//110
f 63//111 64//111 79//111
f 64//112 65//112 80//112
f 65//113 50//113 81//113
f 51//114 67//114 66//114
f 52//115 68//115 67//115
f 53//116 69//116 68//116
f 54//117 70//117 69//117
f 55//118 71//118 70//118
f 56//119 72//119 71//119
f 57//120 73//120 72//120
f 58//121 74//121 73//121
f 59//122 75//122 74//122
f 60//123 76//123 75//123
f 61//124 77//124 76//124
f 62//125 78//125 77//125
f 63//126 79//126 78//126
f 64//127 80//127 79//127
f 65//128 81//128 80//128
f 82//129 81//129 66//129
f 83//130 66//130 67//130
f 84//131 67//131 68//131
f 85//132 68//132 69//132
f 86//133 69//133 70//133
f 87//134 70//134 71//134
f 88//135 71//135 72//135
f 89//136 72//136 73//136
f 90//137 73//137 74//137
f 91//138 74//138 75//138
f 92//139 75//139 76//139
f 93//140 76//140 77//140
f 94//141 77//141 78//141
f 95//142 78//142 79//142
f 96//143 79//143 80//143
f 97//144 80//144 81//144
f 82//145 66//145 83//145
f 83//146 67//146 84//146
f 84//147 68//147 85//147
f 85//148 69//148 86//148
f 86//149 70//149 87//149
f 87//150 71//150 88//150
f 88//151 72//151 89//151
f 89//152 73//152 90//152
f 90//153 74//153 91//153
f 91//154 75//154 92//154
f 92//155 76//155 93//155
f 93//156 77//156 94//156
f 94//157 78//157 95//157
f 95//158 79//158 96//158
f 96//159 80//159 97//159
f 97//160 81//160 82//160
f 98//161 113//161 82//161
f 99//162 98//162 83//162
f 100//163 99//163 84//163
f 101//164 100//164 85//164
f 102//165 101//165 86//165
f 103//166 102//166 87//166
f 104//167 103//167 88//167
f 105//168 104//168 89//168
f 106//169 105//169 90//169
f 107//170 106//170 91//170
f 108//171 107//171 92//171
f 109//172 108//172 93//172
f 110//173 109//173 94//173
f 111//174 110//174 95//174
f 112//175 111//175 96//175
f 113//176 112//176 97//176
f 98//177 82//177 83//177
f 99//178 83//178 84//178
f 100//179 84//179 85//179
f 101//180 85//180 86//180
f 102//181 86//181 87//181
f 103//182 87//182 88//182
f 104//183 88//183 89//183
f 105//184 89//184 90//184
f 106//185 90//185 91//185
f 107//186 91//186 92//186
f 108//187 92//187 93//187
f 109//188 93//188 94//188
f 110//189 94//189 95//189
f 111//190 95//190 96//190
f 112//191 96//191 97//191
f 113//192 97//192 82//192
f 129//193 113//193 98//193
f 129//193 98//193 114//193
f 114//194 98//194 99//194
f 114//194 99//194 115//194
f 115//195 99//195 100//195
f 115//195 100//195 116//195
f 116//196 100//196 101//196
f 116//196 101//196 117//196
f 117//197 101//197 102//197
f 117//197 102//197 118//197
f 118//198 102//198 103//198
f 118//198 103//198 119//198
f 119//199 103//199 104//199
f 119//199 104//199 120//199
f 120//200 104//200 105//200
f 120//200 105//200 121//200
f 121//201 105//201 106//201
f 121//201 106//201 122//201
f 122//202 106//202 107//202
f 122//202 107//202 123//202
f 123//203 107//203 108//203
f 123//203 108//203 124//203
f 124//204 108//204 109//204
f 124//204 109//204 125//204
f 125//205 109//205 110//205
f 125//205 110//205 126//205
f 126//206 110//206 111//206
f 126//206 111//206 127//206
f 127//207 111//207 112//207
f 127//207 112//207 128//207
f 128//208 112//208 113//208
f 128//208 113//208 129//208
f 114//209 115//209 116//209
f 114//209 116//209 117//209
f 114//209 117//209 118//209
f 114//209 118//209 119//209
f 114//209 119//209 120//209
f 114//209 120//209 121//209
f 114//209 121//209 122//209
f 114//209 122//209 123//209
f 114//209 123//209 124//209
f 114//209 124//209 125//209
f 114//209 125//209 126//209
f 114//209 126//209 127//209
f 114//209 127//209 128//209
f 114//209 128//209 129//209
