v 0.000000 3.278467 0.120000
v 0.327006 3.233052 0.020810
v 0.621964 3.104933 0.012930
v 0.893803 2.933606 0.055516
v 1.153570 2.744475 0.120000
v 1.502994 2.443618 0.041632
v 1.821938 2.110621 0.015428
v 2.107459 1.748558 0.041632
v 2.356922 1.360770 0.120000
v 2.568025 0.950834 0.041632
v 2.738821 0.522534 0.015428
v 2.867732 0.079822 0.041632
v 2.953570 -0.373217 0.120000
v 2.987478 -0.692747 0.055516
v 2.999933 -1.013830 0.012930
v 2.963408 -1.333331 0.020810
v 2.839236 -1.639233 0.120000
v 2.636402 -1.899722 0.020810
v 2.377969 -2.091103 0.012930
v 2.093676 -2.240859 0.055516
v 1.800000 -2.371258 0.120000
v 1.364738 -2.523440 0.041629
v 0.916883 -2.633155 0.015424
v 0.460566 -2.699392 0.041626
v 0.000000 -2.721533 0.120000
v -0.460566 -2.699392 0.041626
v -0.916883 -2.633155 0.015424
v -1.364738 -2.523440 0.041629
v -1.800000 -2.371258 0.120000
v -2.093676 -2.240859 0.055516
v -2.377969 -2.091103 0.012930
v -2.636402 -1.899722 0.020810
v -2.839236 -1.639233 0.120000
v -2.963408 -1.333331 0.020810
v -2.999933 -1.013830 0.012930
v -2.987478 -0.692747 0.055516
v -2.953570 -0.373217 0.120000
v -2.867732 0.079822 0.041632
v -2.738821 0.522534 0.015428
v -2.568025 0.950834 0.041632
v -2.356922 1.360770 0.120000
v -2.107459 1.748558 0.041632
v -1.821938 2.110621 0.015428
v -1.502994 2.443618 0.041632
v -1.153570 2.744475 0.120000
v -0.893803 2.933606 0.055516
v -0.621964 3.104933 0.012930
v -0.327006 3.233052 0.020810
v 0.000000 3.278467 -0.120000
v 0.327006 3.233052 -0.036123
v 0.621964 3.104933 -0.029460
v 0.893803 2.933606 -0.065472
v 1.153570 2.744475 -0.120000
v 1.502994 2.443618 -0.055527
v 1.821938 2.110621 -0.033969
v 2.107459 1.748558 -0.055527
v 2.356922 1.360770 -0.120000
v 2.568025 0.950834 -0.055527
v 2.738821 0.522534 -0.033969
v 2.867732 0.079822 -0.055527
v 2.953570 -0.373217 -0.120000
v 2.987478 -0.692747 -0.065472
v 2.999933 -1.013830 -0.029460
v 2.963408 -1.333331 -0.036123
v 2.839236 -1.639233 -0.120000
v 2.636402 -1.899722 -0.036123
v 2.377969 -2.091103 -0.029460
v 2.093676 -2.240859 -0.065472
v 1.800000 -2.371258 -0.120000
v 1.364738 -2.523440 -0.055525
v 0.916883 -2.633155 -0.033966
v 0.460566 -2.699392 -0.055522
v 0.000000 -2.721533 -0.120000
v -0.460566 -2.699392 -0.055522
v -0.916883 -2.633155 -0.033966
v -1.364738 -2.523440 -0.055525
v -1.800000 -2.371258 -0.120000
v -2.093676 -2.240859 -0.065472
v -2.377969 -2.091103 -0.029460
v -2.636402 -1.899722 -0.036123
v -2.839236 -1.639233 -0.120000
v -2.963408 -1.333331 -0.036123
v -2.999933 -1.013830 -0.029460
v -2.987478 -0.692747 -0.065472
v -2.953570 -0.373217 -0.120000
v -2.867732 0.079822 -0.055527
v -2.738821 0.522534 -0.033969
v -2.568025 0.950834 -0.055527
v -2.356922 1.360770 -0.120000
v -2.107459 1.748558 -0.055527
v -1.821938 2.110621 -0.033969
v -1.502994 2.443618 -0.055527
v -1.153570 2.744475 -0.120000
v -0.893803 2.933606 -0.065472
v -0.621964 3.104933 -0.029460
v -0.327006 3.233052 -0.036123
v 0.692142 1.646685 0.960249
v 1.772142 -0.223930 0.960249
v 1.080000 -1.422755 0.960249
v -1.080000 -1.422755 0.960249
v -1.772142 -0.223930 0.960249
v -0.692142 1.646685 0.960249
v 0.000000 2.659730 0.699217
v 1.925003 1.111401 0.699217
v 2.303393 -1.329865 0.699217
v 0.000000 -2.222802 0.699217
v -2.303393 -1.329865 0.699217
v -1.925003 1.111401 0.699217
v 0.000000 0.734464 -2.133839
v 0.531575 0.306905 -2.133839
v 0.636065 -0.367232 -2.133839
v 0.000000 -0.613810 -2.133839
v -0.636065 -0.367232 -2.133839
v -0.531575 0.306905 -2.133839
v 0.000000 0.000000 -2.637299

vn 0.000000 -0.000000 1.000000
vn 0.000000 0.249520 0.968370
vn 0.216091 -0.124760 0.968370
vn -0.216091 -0.124760 0.968370
vn 0.268622 0.155089 0.950678
vn -0.000000 -0.310179 0.950678
vn -0.268622 0.155089 0.950678
vn 0.370883 0.461111 0.806116
vn 0.584775 0.090639 0.806116
vn 0.213892 -0.551749 0.806116
vn -0.213892 -0.551749 0.806116
vn -0.584775 0.090639 0.806116
vn -0.370883 0.461111 0.806116
vn -0.301619 0.651580 0.696038
vn 0.301619 0.651580 0.696038
vn 0.576300 0.501185 0.645517
vn 0.722189 0.248498 0.645517
vn 0.715095 -0.064580 0.696038
vn 0.413476 -0.587000 0.696038
vn 0.145887 -0.749687 0.645513
vn -0.145887 -0.749687 0.645513
vn -0.413476 -0.587000 0.696038
vn -0.715095 -0.064580 0.696038
vn -0.722189 0.248498 0.645517
vn -0.576300 0.501185 0.645517
vn 0.137560 0.990493 0.000000
vn 0.398404 0.917210 -0.000000
vn 0.533191 0.845995 -0.000000
vn 0.588598 0.808426 0.000000
vn 0.652478 0.757807 0.000000
vn 0.722181 0.691705 0.000000
vn 0.785218 0.619219 -0.000000
vn 0.841010 0.541019 0.000000
vn 0.889041 0.457827 0.000000
vn 0.928869 0.370410 0.000000
vn 0.960124 0.279574 -0.000000
vn 0.982520 0.186159 0.000000
vn 0.994416 0.105528 -0.000000
vn 0.999249 0.038760 0.000000
vn 0.993529 -0.113577 0.000000
vn 0.926572 -0.376117 0.000000
vn 0.789013 -0.614377 -0.000000
vn 0.595125 -0.803633 0.000000
vn 0.466057 -0.884754 0.000000
vn 0.405819 -0.913954 -0.000000
vn 0.330041 -0.943967 0.000000
vn 0.237944 -0.971279 -0.000000
vn 0.143650 -0.989629 0.000000
vn 0.048018 -0.998846 0.000000
vn -0.048018 -0.998846 0.000000
vn -0.143650 -0.989629 0.000000
vn -0.237944 -0.971279 0.000000
vn -0.330041 -0.943967 0.000000
vn -0.405819 -0.913954 0.000000
vn -0.466057 -0.884754 0.000000
vn -0.595125 -0.803633 0.000000
vn -0.789013 -0.614377 -0.000000
vn -0.926572 -0.376117 -0.000000
vn -0.993529 -0.113577 0.000000
vn -0.999249 0.038760 -0.000000
vn -0.994416 0.105528 -0.000000
vn -0.982520 0.186159 -0.000000
vn -0.960124 0.279574 -0.000000
vn -0.928869 0.370410 0.000000
vn -0.889041 0.457827 -0.000000
vn -0.841010 0.541019 -0.000000
vn -0.785218 0.619219 0.000000
vn -0.722181 0.691705 0.000000
vn -0.652478 0.757807 0.000000
vn -0.588598 0.808426 -0.000000
vn -0.533191 0.845995 0.000000
vn -0.398404 0.917210 0.000000
vn -0.137560 0.990493 0.000000
vn -0.276140 0.596539 -0.753584
vn 0.276140 0.596539 -0.753584
vn 0.526316 0.457715 -0.716581
vn 0.659551 0.226945 -0.716581
vn 0.654688 -0.059125 -0.753584
vn 0.378548 -0.537414 -0.753584
vn 0.133233 -0.684662 -0.716580
vn -0.133233 -0.684662 -0.716580
vn -0.378548 -0.537414 -0.753584
vn -0.654688 -0.059125 -0.753584
vn -0.659551 0.226945 -0.716581
vn -0.526316 0.457715 -0.716581
vn 0.413967 0.514676 -0.750826
vn 0.652706 0.101168 -0.750826
vn 0.238739 -0.615844 -0.750826
vn -0.238739 -0.615844 -0.750826
vn -0.652706 0.101168 -0.750826
vn -0.413967 0.514676 -0.750826



f 97//1 102//1 101//1
f 97//1 101//1 100//1
f 97//1 100//1 99//1
f 97//1 99//1 98//1
f 97//2 103//2 102//2
f 98//3 99//3 105//3
f 100//4 101//4 107//4
f 97//5 98//5 104//5
f 99//6 100//6 106//6
f 101//7 102//7 108//7
f 97//8 104//8 5//8
f 97//8 5//8 103//8
f 98//9 105//9 13//9
f 98//9 13//9 104//9
f 99//10 106//10 21//10
f 99//10 21//10 105//10
f 100//11 107//11 29//11
f 100//11 29//11 106//11
f 101//12 108//12 37//12
f 101//12 37//12 107//12
f 102//13 103//13 45//13
f 102//13 45//13 108//13
f 103//14 1//14 48//14
f 103//14 48//14 47//14
f 103//14 47//14 46//14
f 103//14 46//14 45//14
f 103//15 5//15 4//15
f 103//15 4//15 3//15
f 103//15 3//15 2//15
f 103//15 2//15 1//15
f 104//16 9//16 8//16
f 104//16 8//16 7//16
f 104//16 7//16 6//16
f 104//16 6//16 5//16
f 104//17 13//17 12//17
f 104//17 12//17 11//17
f 104//17 11//17 10//17
f 104//17 10//17 9//17
f 105//18 17//18 16//18
f 105//18 16//18 15//18
f 105//18 15//18 14//18
f 105//18 14//18 13//18
f 105//19 21//19 20//19
f 105//19 20//19 19//19
f 105//19 19//19 18//19
f 105//19 18//19 17//19
f 106//20 25//20 24//20
f 106//20 24//20 23//20
f 106//20 23//20 22//20
f 106//20 22//20 21//20
f 106//21 29//21 28//21
f 106//21 28//21 27//21
f 106//21 27//21 26//21
f 106//21 26//21 25//21
f 107//22 33//22 32//22
f 107//22 32//22 31//22
f 107//22 31//22 30//22
f 107//22 30//22 29//22
f 107//23 37//23 36//23
f 107//23 36//23 35//23
f 107//23 35//23 34//23
f 107//23 34//23 33//23
f 108//24 41//24 40//24
f 108//24 40//24 39//24
f 108//24 39//24 38//24
f 108//24 38//24 37//24
f 108//25 45//25 44//25
f 108//25 44//25 43//25
f 108//25 43//25 42//25
f 108//25 42//25 41//25
f 1//26 2//26 50//26
f 1//26 50//26 49//26
f 2//27 3//27 51//27
f 2//27 51//27 50//27
f 3//28 4//28 52//28
f 3//28 52//28 51//28
f 4//29 5//29 53//29
f 4//29 53//29 52//29
f 5//30 6//30 54//30
f 5//30 54//30 53//30
f 6//31 7//31 55//31
f 6//31 55//31 54//31
f 7//32 8//32 56//32
f 7//32 56//32 55//32
f 8//33 9//33 57//33
f 8//33 57//33 56//33
f 9//34 10//34 58//34
f 9//34 58//34 57//34
f 10//35 11//35 59//35
f 10//35 59//35 58//35
f 11//36 12//36 60//36
f 11//36 60//36 59//36
f 12//37 13//37 61//37
f 12//37 61//37 60//37
f 13//38 14//38 62//38
f 13//38 62//38 61//38
f 14//39 15//39 63//39
f 14//39 63//39 62//39
f 15//40 16//40 64//40
f 15//40 64//40 63//40
f 16//41 17//41 65//41
f 16//41 65//41 64//41
f 17//42 18//42 66//42
f 17//42 66//42 65//42
f 18//43 19//43 67//43
f 18//43 67//43 66//43
f 19//44 20//44 68//44
f 19//44 68//44 67//44
f 20//45 21//45 69//45
f 20//45 69//45 68//45
f 21//46 22//46 70//46
f 21//46 70//46 69//46
f 22//47 23//47 71//47
f 22//47 71//47 70//47
f 23//48 24//48 72//48
f 23//48 72//48 71//48
f 24//49 25//49 73//49
f 24//49 73//49 72//49
f 25//50 26//50 74//50
f 25//50 74//50 73//50
f 26//51 27//51 75//51
f 26//51 75//51 74//51
f 27//52 28//52 76//52
f 27//52 76//52 75//52
f 28//53 29//53 77//53
f 28//53 77//53 76//53
f 29//54 30//54 78//54
f 29//54 78//54 77//54
f 30//55 31//55 79//55
f 30//55 79//55 78//55
f 31//56 32//56 80//56
f 31//56 80//56 79//56
f 32//57 33//57 81//57
f 32//57 81//57 80//57
f 33//58 34//58 82//58
f 33//58 82//58 81//58
f 34//59 35//59 83//59
f 34//59 83//59 82//59
f 35//60 36//60 84//60
f 35//60 84//60 83//60
f 36//61 37//61 85//61
f 36//61 85//61 84//61
f 37//62 38//62 86//62
f 37//62 86//62 85//62
f 38//63 39//63 87//63
f 38//63 87//63 86//63
f 39//64 40//64 88//64
f 39//64 88//64 87//64
f 40//65 41//65 89//65
f 40//65 89//65 88//65
f 41//66 42//66 90//66
f 41//66 90//66 89//66
f 42//67 43//67 91//67
f 42//67 91//67 90//67
f 43//68 44//68 92//68
f 43//68 92//68 91//68
f 44//69 45//69 93//69
f 44//69 93//69 92//69
f 45//70 46//70 94//70
f 45//70 94//70 93//70
f 46//71 47//71 95//71
f 46//71 95//71 94//71
f 47//72 48//72 96//72
f 47//72 96//72 95//72
f 48//73 1//73 49//73
f 48//73 49//73 96//73
f 109//74 93//74 94//74
f 109//74 94//74 95//74
f 109//74 95//74 96//74
f 109//74 96//74 49//74
f 109//75 49//75 50//75
f 109//75 50//75 51//75
f 109//75 51//75 52//75
f 109//75 52//75 53//75
f 110//76 53//76 54//76
f 110//76 54//76 55//76
f 110//76 55//76 56//76
f 110//76 56//76 57//76
f 110//77 57//77 58//77
f 110//77 58//77 59//77
f 110//77 59//77 60//77
f 110//77 60//77 61//77
f 111//78 61//78 62//78
f 111//78 62//78 63//78
f 111//78 63//78 64//78
f 111//78 64//78 65//78
f 111//79 65//79 66//79
f 111//79 66//79 67//79
f 111//79 67//79 68//79
f 111//79 68//79 69//79
f 112//80 69//80 70//80
f 112//80 70//80 71//80
f 112//80 71//80 72//80
f 112//80 72//80 73//80
f 112//81 73//81 74//81
f 112//81 74//81 75//81
f 112//81 75//81 76//81
f 112//81 76//81 77//81
f 113//82 77//82 78//82
f 113//82 78//82 79//82
f 113//82 79//82 80//82
f 113//82 80//82 81//82
f 113//83 81//83 82//83
f 113//83 82//83 83//83
f 113//83 83//83 84//83
f 113//83 84//83 85//83
f 114//84 85//84 86//84
f 114//84 86//84 87//84
f 114//84 87//84 88//84
f 114//84 88//84 89//84
f 114//85 89//85 90//85
f 114//85 90//85 91//85
f 114//85 91//85 92//85
f 114//85 92//85 93//85
f 115//86 109//86 53//86
f 115//86 53//86 110//86
f 115//87 110//87 61//87
f 115//87 61//87 111//87
f 115//88 111//88 69//88
f 115//88 69//88 112//88
f 115//89 112//89 77//89
f 115//89 77//89 113//89
f 115//90 113//90 85//90
f 115//90 85//90 114//90
f 115//91 114//91 93//91
f 115//91 93//91 109//91
