v 0.000000 1.817000 0.750000
v 1.284813 1.284813 0.750000
v 1.817000 -0.000000 0.750000
v 1.284813 -1.284813 0.750000
v 0.000000 -1.817000 0.750000
v -1.284813 -1.284813 0.750000
v -1.817000 -0.000000 0.750000
v -1.284813 1.284813 0.750000
v 0.944495 2.280213 0.534000
v 2.280213 0.944495 0.534000
v 2.280213 -0.944495 0.534000
v 0.944495 -2.280213 0.534000
v -0.944495 -2.280213 0.534000
v -2.280213 -0.944495 0.534000
v -2.280213 0.944495 0.534000
v -0.944495 2.280213 0.534000
v 0.000000 3.000000 0.030000
v 0.363579 2.948391 0.066137
v 0.666201 2.821236 0.155172
v 0.889509 2.681410 0.253079
v 1.069214 2.581311 0.323169
v 1.267065 2.525022 0.253079
v 1.523840 2.465990 0.155172
v 1.827738 2.341916 0.066137
v 2.121320 2.121320 0.030000
v 2.341916 1.827738 0.066137
v 2.465990 1.523840 0.155172
v 2.525022 1.267065 0.253079
v 2.581311 1.069214 0.323169
v 2.681410 0.889509 0.253079
v 2.821236 0.666201 0.155172
v 2.948391 0.363579 0.066137
v 3.000000 -0.000000 0.030000
v 2.948391 -0.363579 0.066137
v 2.821236 -0.666201 0.155172
v 2.681410 -0.889509 0.253079
v 2.581311 -1.069214 0.323169
v 2.525022 -1.267065 0.253079
v 2.465990 -1.523840 0.155172
v 2.341916 -1.827738 0.066137
v 2.121320 -2.121320 0.030000
v 1.827738 -2.341916 0.066137
v 1.523840 -2.465990 0.155172
v 1.267065 -2.525022 0.253079
v 1.069214 -2.581311 0.323169
v 0.889509 -2.681410 0.253079
v 0.666201 -2.821236 0.155172
v 0.363579 -2.948391 0.066137
v -0.000000 -3.000000 0.030000
v -0.363579 -2.948391 0.066137
v -0.666201 -2.821236 0.155172
v -0.889509 -2.681410 0.253079
v -1.069214 -2.581311 0.323169
v -1.267065 -2.525022 0.253079
v -1.523840 -2.465990 0.155172
v -1.827738 -2.341916 0.066137
v -2.121320 -2.121320 0.030000
v -2.341916 -1.827738 0.066137
v -2.465990 -1.523840 0.155172
v -2.525022 -1.267065 0.253079
v -2.581311 -1.069214 0.323169
v -2.681410 -0.889509 0.253079
v -2.821236 -0.666201 0.155172
v -2.948391 -0.363579 0.066137
v -3.000000 0.000000 0.030000
v -2.948391 0.363579 0.066137
v -2.821236 0.666201 0.155172
v -2.681410 0.889509 0.253079
v -2.581311 1.069214 0.323169
v -2.525022 1.267065 0.253079
v -2.465990 1.523840 0.155172
v -2.341916 1.827738 0.066137
v -2.121320 2.121320 0.030000
v -1.827738 2.341916 0.066137
v -1.523840 2.465990 0.155172
v -1.267065 2.525022 0.253079
v -1.069214 2.581311 0.323169
v -0.889509 2.681410 0.253079
v -0.666201 2.821236 0.155172
v -0.363579 2.948391 0.066137
v 0.000000 3.000000 -0.030000
v 0.363579 2.948391 -0.091505
v 0.666201 2.821236 -0.243043
v 0.889509 2.681410 -0.409680
v 1.069214 2.581311 -0.528974
v 1.267065 2.525022 -0.409680
v 1.523840 2.465990 -0.243043
v 1.827738 2.341916 -0.091505
v 2.121320 2.121320 -0.030000
v 2.341916 1.827738 -0.091505
v 2.465990 1.523840 -0.243043
v 2.525022 1.267065 -0.409680
v 2.581311 1.069214 -0.528974
v 2.681410 0.889509 -0.409680
v 2.821236 0.666201 -0.243043
v 2.948391 0.363579 -0.091505
v 3.000000 -0.000000 -0.030000
v 2.948391 -0.363579 -0.091505
v 2.821236 -0.666201 -0.243043
v 2.681410 -0.889509 -0.409680
v 2.581311 -1.069214 -0.528974
v 2.525022 -1.267065 -0.409680
v 2.465990 -1.523840 -0.243043
v 2.341916 -1.827738 -0.091505
v 2.121320 -2.121320 -0.030000
v 1.827738 -2.341916 -0.091505
v 1.523840 -2.465990 -0.243043
v 1.267065 -2.525022 -0.409680
v 1.069214 -2.581311 -0.528974
v 0.889509 -2.681410 -0.409680
v 0.666201 -2.821236 -0.243043
v 0.363579 -2.948391 -0.091505
v 0.000000 -3.000000 -0.030000
v -0.363579 -2.948391 -0.091505
v -0.666201 -2.821236 -0.243043
v -0.889509 -2.681410 -0.409680
v -1.069214 -2.581311 -0.528974
v -1.267065 -2.525022 -0.409680
v -1.523840 -2.465990 -0.243043
v -1.827738 -2.341916 -0.091505
v -2.121320 -2.121320 -0.030000
v -2.341916 -1.827738 -0.091505
v -2.465990 -1.523840 -0.243043
v -2.525022 -1.267065 -0.409680
v -2.581311 -1.069214 -0.528974
v -2.681410 -0.889509 -0.409680
v -2.821236 -0.666201 -0.243043
v -2.948391 -0.363579 -0.091505
v -3.000000 -0.000000 -0.030000
v -2.948391 0.363579 -0.091505
v -2.821236 0.666201 -0.243043
v -2.681410 0.889509 -0.409680
v -2.581311 1.069214 -0.528974
v -2.525022 1.267065 -0.409680
v -2.465990 1.523840 -0.243043
v -2.341916 1.827738 -0.091505
v -2.121320 2.121320 -0.030000
v -1.827738 2.341916 -0.091505
v -1.523840 2.465990 -0.243043
v -1.267065 2.525022 -0.409680
v -1.069214 2.581311 -0.528974
v -0.889509 2.681410 -0.409680
v -0.666201 2.821236 -0.243043
v -0.363579 2.948391 -0.091505
v 0.000000 1.993080 -1.230000
v 0.992393 2.395848 -0.750000
v 1.409321 1.409321 -1.230000
v 2.395848 0.992393 -0.750000
v 1.993080 0.000000 -1.230000
v 2.395848 -0.992393 -0.750000
v 1.409321 -1.409321 -1.230000
v 0.992393 -2.395848 -0.750000
v 0.000000 -1.993080 -1.230000
v -0.992393 -2.395848 -0.750000
v -1.409321 -1.409321 -1.230000
v -2.395848 -0.992393 -0.750000
v -1.993080 0.000000 -1.230000
v -2.395848 0.992393 -0.750000
v -1.409321 1.409321 -1.230000
v -0.992393 2.395848 -0.750000
v 0.000000 0.588783 -2.511600
v 0.588783 0.000000 -2.511600
v 0.000000 -0.588783 -2.511600
v -0.588783 0.000000 -2.511600
v 0.000000 0.000000 -2.850000

vn 0.000000 0.000000 1.000000
vn 0.101000 0.243835 0.964543
vn 0.243835 0.101000 0.964543
vn 0.243835 -0.101000 0.964543
vn 0.101000 -0.243835 0.964543
vn -0.101000 -0.243835 0.964543
vn -0.243835 -0.101000 0.964543
vn -0.243835 0.101000 0.964543
vn -0.101000 0.243835 0.964543
vn -0.000000 0.422618 0.906308
vn 0.298836 0.298836 0.906308
vn 0.422618 -0.000000 0.906308
vn 0.298836 -0.298836 0.906308
vn 0.000000 -0.422618 0.906308
vn -0.298836 -0.298836 0.906308
vn -0.422618 0.000000 0.906308
vn -0.298836 0.298836 0.906308
vn 0.000000 0.573576 0.819152
vn 0.405580 0.405580 0.819152
vn 0.573576 -0.000000 0.819152
vn 0.405580 -0.405580 0.819152
vn -0.000000 -0.573576 0.819152
vn -0.405580 -0.405580 0.819152
vn -0.573576 0.000000 0.819152
vn -0.405580 0.405580 0.819152
vn 0.140538 0.990075 0.000000
vn 0.387373 0.921923 -0.000000
vn 0.530701 0.847559 0.000000
vn 0.486619 0.873614 -0.000000
vn 0.273647 0.961830 0.000000
vn 0.224052 0.974577 0.000000
vn 0.377984 0.925812 0.000000
vn 0.600713 0.799464 0.000000
vn 0.799464 0.600713 -0.000000
vn 0.925812 0.377984 0.000000
vn 0.974577 0.224052 -0.000000
vn 0.961830 0.273647 0.000000
vn 0.873614 0.486619 -0.000000
vn 0.847559 0.530701 0.000000
vn 0.921923 0.387373 0.000000
vn 0.990075 0.140538 0.000000
vn 0.990075 -0.140538 -0.000000
vn 0.921923 -0.387373 -0.000000
vn 0.847559 -0.530701 -0.000000
vn 0.873614 -0.486619 -0.000000
vn 0.961830 -0.273647 0.000000
vn 0.974577 -0.224052 0.000000
vn 0.925812 -0.377984 0.000000
vn 0.799464 -0.600713 0.000000
vn 0.600713 -0.799464 -0.000000
vn 0.377984 -0.925812 -0.000000
vn 0.224052 -0.974577 -0.000000
vn 0.273647 -0.961830 -0.000000
vn 0.486619 -0.873614 0.000000
vn 0.530701 -0.847559 0.000000
vn 0.387373 -0.921923 0.000000
vn 0.140538 -0.990075 0.000000
vn -0.140538 -0.990075 0.000000
vn -0.387373 -0.921923 0.000000
vn -0.530701 -0.847559 0.000000
vn -0.486619 -0.873614 0.000000
vn -0.273647 -0.961830 -0.000000
vn -0.224052 -0.974577 0.000000
vn -0.377984 -0.925812 0.000000
vn -0.600713 -0.799464 0.000000
vn -0.799464 -0.600713 -0.000000
vn -0.925812 -0.377984 -0.000000
vn -0.974577 -0.224052 0.000000
vn -0.961830 -0.273647 0.000000
vn -0.873614 -0.486619 -0.000000
vn -0.847559 -0.530701 0.000000
vn -0.921923 -0.387373 0.000000
vn -0.990075 -0.140538 0.000000
vn -0.990075 0.140538 -0.000000
vn -0.921923 0.387373 -0.000000
vn -0.847559 0.530701 -0.000000
vn -0.873614 0.486619 -0.000000
vn -0.961830 0.273647 0.000000
vn -0.974577 0.224052 0.000000
vn -0.925812 0.377984 0.000000
vn -0.799464 0.600713 0.000000
vn -0.600713 0.799464 -0.000000
vn -0.377984 0.925812 -0.000000
vn -0.224052 0.974577 -0.000000
vn -0.273647 0.961830 -0.000000
vn -0.486619 0.873614 0.000000
vn -0.530701 0.847559 0.000000
vn -0.387373 0.921923 0.000000
vn -0.140538 0.990075 0.000000
vn -0.000000 0.766044 -0.642788
vn 0.541675 0.541675 -0.642788
vn 0.766044 -0.000000 -0.642788
vn 0.541675 -0.541675 -0.642788
vn 0.000000 -0.766044 -0.642788
vn -0.541675 -0.541675 -0.642788
vn -0.766044 0.000000 -0.642788
vn -0.541675 0.541675 -0.642788
vn 0.083385 0.671754 -0.736066
vn 0.380810 0.529696 -0.757896
vn 0.529696 0.380810 -0.757896
vn 0.671754 0.083385 -0.736066
vn 0.671754 -0.083385 -0.736066
vn 0.529696 -0.380810 -0.757896
vn 0.380810 -0.529696 -0.757896
vn 0.083385 -0.671754 -0.736066
vn -0.083385 -0.671754 -0.736066
vn -0.380810 -0.529696 -0.757896
vn -0.529696 -0.380810 -0.757896
vn -0.671754 -0.083385 -0.736066
vn -0.671754 0.083385 -0.736066
vn -0.529696 0.380810 -0.757896
vn -0.380810 0.529696 -0.757896
vn -0.083385 0.671754 -0.736066
vn 0.445999 0.445999 -0.775995
vn 0.445999 -0.445999 -0.775995
vn -0.445999 -0.445999 -0.775995
vn -0.445999 0.445999 -0.775995



f 1//1 8//1 7//1
f 1//1 7//1 6//1
f 1//1 6//1 5//1
f 1//1 5//1 4//1
f 1//1 4//1 3//1
f 1//1 3//1 2//1
f 1//2 2//2 9//2
f 2//3 3//3 10//3
f 3//4 4//4 11//4
f 4//5 5//5 12//5
f 5//6 6//6 13//6
f 6//7 7//7 14//7
f 7//8 8//8 15//8
f 8//9 1//9 16//9
f 1//10 9//10 16//10
f 2//11 10//11 9//11
f 3//12 11//12 10//12
f 4//13 12//13 11//13
f 5//14 13//14 12//14
f 6//15 14//15 13//15
f 7//16 15//16 14//16
f 8//17 16//17 15//17
f 9//18 21//18 20//18
f 9//18 20//18 19//18
f 9//18 19//18 18//18
f 9//18 18//18 17//18
f 9//18 17//18 80//18
f 9//18 80//18 79//18
f 9//18 79//18 78//18
f 9//18 78//18 77//18
f 9//18 77//18 16//18
f 10//19 29//19 28//19
f 10//19 28//19 27//19
f 10//19 27//19 26//19
f 10//19 26//19 25//19
f 10//19 25//19 24//19
f 10//19 24//19 23//19
f 10//19 23//19 22//19
f 10//19 22//19 21//19
f 10//19 21//19 9//19
f 11//20 37//20 36//20
f 11//20 36//20 35//20
f 11//20 35//20 34//20
f 11//20 34//20 33//20
f 11//20 33//20 32//20
f 11//20 32//20 31//20
f 11//20 31//20 30//20
f 11//20 30//20 29//20
f 11//20 29//20 10//20
f 12//21 45//21 44//21
f 12//21 44//21 43//21
f 12//21 43//21 42//21
f 12//21 42//21 41//21
f 12//21 41//21 40//21
f 12//21 40//21 39//21
f 12//21 39//21 38//21
f 12//21 38//21 37//21
f 12//21 37//21 11//21
f 13//22 53//22 52//22
f 13//22 52//22 51//22
f 13//22 51//22 50//22
f 13//22 50//22 49//22
f 13//22 49//22 48//22
f 13//22 48//22 47//22
f 13//22 47//22 46//22
f 13//22 46//22 45//22
f 13//22 45//22 12//22
f 14//23 61//23 60//23
f 14//23 60//23 59//23
f 14//23 59//23 58//23
f 14//23 58//23 57//23
f 14//23 57//23 56//23
f 14//23 56//23 55//23
f 14//23 55//23 54//23
f 14//23 54//23 53//23
f 14//23 53//23 13//23
f 15//24 69//24 68//24
f 15//24 68//24 67//24
f 15//24 67//24 66//24
f 15//24 66//24 65//24
f 15//24 65//24 64//24
f 15//24 64//24 63//24
f 15//24 63//24 62//24
f 15//24 62//24 61//24
f 15//24 61//24 14//24
f 16//25 77//25 76//25
f 16//25 76//25 75//25
f 16//25 75//25 74//25
f 16//25 74//25 73//25
f 16//25 73//25 72//25
f 16//25 72//25 71//25
f 16//25 71//25 70//25
f 16//25 70//25 69//25
f 16//25 69//25 15//25
f 17//26 18//26 82//26
f 17//26 82//26 81//26
f 18//27 19//27 83//27
f 18//27 83//27 82//27
f 19//28 20//28 84//28
f 19//28 84//28 83//28
f 20//29 21//29 85//29
f 20//29 85//29 84//29
f 21//30 22//30 86//30
f 21//30 86//30 85//30
f 22//31 23//31 87//31
f 22//31 87//31 86//31
f 23//32 24//32 88//32
f 23//32 88//32 87//32
f 24//33 25//33 89//33
f 24//33 89//33 88//33
f 25//34 26//34 90//34
f 25//34 90//34 89//34
f 26//35 27//35 91//35
f 26//35 91//35 90//35
f 27//36 28//36 92//36
f 27//36 92//36 91//36
f 28//37 29//37 93//37
f 28//37 93//37 92//37
f 29//38 30//38 94//38
f 29//38 94//38 93//38
f 30//39 31//39 95//39
f 30//39 95//39 94//39
f 31//40 32//40 96//40
f 31//40 96//40 95//40
f 32//41 33//41 97//41
f 32//41 97//41 96//41
f 33//42 34//42 98//42
f 33//42 98//42 97//42
f 34//43 35//43 99//43
f 34//43 99//43 98//43
f 35//44 36//44 100//44
f 35//44 100//44 99//44
f 36//45 37//45 101//45
f 36//45 101//45 100//45
f 37//46 38//46 102//46
f 37//46 102//46 101//46
f 38//47 39//47 103//47
f 38//47 103//47 102//47
f 39//48 40//48 104//48
f 39//48 104//48 103//48
f 40//49 41//49 105//49
f 40//49 105//49 104//49
f 41//50 42//50 106//50
f 41//50 106//50 105//50
f 42//51 43//51 107//51
f 42//51 107//51 106//51
f 43//52 44//52 108//52
f 43//52 108//52 107//52
f 44//53 45//53 109//53
f 44//53 109//53 108//53
f 45//54 46//54 110//54
f 45//54 110//54 109//54
f 46//55 47//55 111//55
f 46//55 111//55 110//55
f 47//56 48//56 112//56
f 47//56 112//56 111//56
f 48//57 49//57 113//57
f 48//57 113//57 112//57
f 49//58 50//58 114//58
f 49//58 114//58 113//58
f 50//59 51//59 115//59
f 50//59 115//59 114//59
f 51//60 52//60 116//60
f 51//60 116//60 115//60
f 52//61 53//61 117//61
f 52//61 117//61 116//61
f 53//62 54//62 118//62
f 53//62 118//62 117//62
f 54//63 55//63 119//63
f 54//63 119//63 118//63
f 55//64 56//64 120//64
f 55//64 120//64 119//64
f 56//65 57//65 121//65
f 56//65 121//65 120//65
f 57//66 58//66 122//66
f 57//66 122//66 121//66
f 58//67 59//67 123//67
f 58//67 123//67 122//67
f 59//68 60//68 124//68
f 59//68 124//68 123//68
f 60//69 61//69 125//69
f 60//69 125//69 124//69
f 61//70 62//70 126//70
f 61//70 126//70 125//70
f 62//71 63//71 127//71
f 62//71 127//71 126//71
f 63//72 64//72 128//72
f 63//72 128//72 127//72
f 64//73 65//73 129//73
f 64//73 129//73 128//73
f 65//74 66//74 130//74
f 65//74 130//74 129//74
f 66//75 67//75 131//75
f 66//75 131//75 130//75
f 67//76 68//76 132//76
f 67//76 132//76 131//76
f 68//77 69//77 133//77
f 68//77 133//77 132//77
f 69//78 70//78 134//78
f 69//78 134//78 133//78
f 70//79 71//79 135//79
f 70//79 135//79 134//79
f 71//80 72//80 136//80
f 71//80 136//80 135//80
f 72//81 73//81 137//81
f 72//81 137//81 136//81
f 73//82 74//82 138//82
f 73//82 138//82 137//82
f 74//83 75//83 139//83
f 74//83 139//83 138//83
f 75//84 76//84 140//84
f 75//84 140//84 139//84
f 76//85 77//85 141//85
f 76//85 141//85 140//85
f 77//86 78//86 142//86
f 77//86 142//86 141//86
f 78//87 79//87 143//87
f 78//87 143//87 142//87
f 79//88 80//88 144//88
f 79//88 144//88 143//88
f 80//89 17//89 81//89
f 80//89 81//89 144//89
f 145//90 160//90 141//90
f 145//90 141//90 142//90
f 145//90 142//90 143//90
f 145//90 143//90 144//90
f 145//90 144//90 81//90
f 145//90 81//90 82//90
f 145//90 82//90 83//90
f 145//90 83//90 84//90
f 145//90 84//90 85//90
f 145//90 85//90 146//90
f 147//91 146//91 85//91
f 147//91 85//91 86//91
f 147//91 86//91 87//91
f 147//91 87//91 88//91
f 147//91 88//91 89//91
f 147//91 89//91 90//91
f 147//91 90//91 91//91
f 147//91 91//91 92//91
f 147//91 92//91 93//91
f 147//91 93//91 148//91
f 149//92 148//92 93//92
f 149//92 93//92 94//92
f 149//92 94//92 95//92
f 149//92 95//92 96//92
f 149//92 96//92 97//92
f 149//92 97//92 98//92
f 149//92 98//92 99//92
f 149//92 99//92 100//92
f 149//92 100//92 101//92
f 149//92 101//92 150//92
f 151//93 150//93 101//93
f 151//93 101//93 102//93
f 151//93 102//93 103//93
f 151//93 103//93 104//93
f 151//93 104//93 105//93
f 151//93 105//93 106//93
f 151//93 106//93 107//93
f 151//93 107//93 108//93
f 151//93 108//93 109//93
f 151//93 109//93 152//93
f 153//94 152//94 109//94
f 153//94 109//94 110//94
f 153//94 110//94 111//94
f 153//94 111//94 112//94
f 153//94 112//94 113//94
f 153//94 113//94 114//94
f 153//94 114//94 115//94
f 153//94 115//94 116//94
f 153//94 116//94 117//94
f 153//94 117//94 154//94
f 155//95 154//95 117//95
f 155//95 117//95 118//95
f 155//95 118//95 119//95
f 155//95 119//95 120//95
f 155//95 120//95 121//95
f 155//95 121//95 122//95
f 155//95 122//95 123//95
f 155//95 123//95 124//95
f 155//95 124//95 125//95
f 155//95 125//95 156//95
f 157//96 156//96 125//96
f 157//96 125//96 126//96
f 157//96 126//96 127//96
f 157//96 127//96 128//96
f 157//96 128//96 129//96
f 157//96 129//96 130//96
f 157//96 130//96 131//96
f 157//96 131//96 132//96
f 157//96 132//96 133//96
f 157//96 133//96 158//96
f 159//97 158//97 133//97
f 159//97 133//97 134//97
f 159//97 134//97 135//97
f 159//97 135//97 136//97
f 159//97 136//97 137//97
f 159//97 137//97 138//97
f 159//97 138//97 139//97
f 159//97 139//97 140//97
f 159//97 140//97 141//97
f 159//97 141//97 160//97
f 161//98 145//98 146//98
f 161//99 146//99 147//99
f 162//100 147//100 148//100
f 162//101 148//101 149//101
f 162//102 149//102 150//102
f 162//103 150//103 151//103
f 163//104 151//104 152//104
f 163//105 152//105 153//105
f 163//106 153//106 154//106
f 163//107 154//107 155//107
f 164//108 155//108 156//108
f 164//109 156//109 157//109
f 164//110 157//110 158//110
f 164//111 158//111 159//111
f 161//112 159//112 160//112
f 161//113 160//113 145//113
f 165//114 161//114 147//114
f 165//114 147//114 162//114
f 165//115 162//115 151//115
f 165//115 151//115 163//115
f 165//116 163//116 155//116
f 165//116 155//116 164//116
f 165//117 164//117 159//117
f 165//117 159//117 161//117
