v -1.500000 2.598076 0.120000
v -1.151762 2.633602 0.078149
v -0.801775 2.640006 0.064166
v -0.452471 2.617243 0.078149
v -0.106275 2.565472 0.120000
v 0.234408 2.485053 0.074691
v 0.567210 2.376544 0.059553
v 0.889822 2.240699 0.074691
v 1.200000 2.078461 0.120000
v 1.495591 1.890957 0.074691
v 1.774542 1.679491 0.059553
v 2.034915 1.445530 0.074691
v 2.274902 1.190700 0.120000
v 2.492834 0.916771 0.078149
v 2.687199 0.625645 0.064166
v 2.856647 0.319346 0.078149
v 3.000000 0.000000 0.120000
v 2.856647 -0.319346 0.078149
v 2.687199 -0.625645 0.064166
v 2.492834 -0.916771 0.078149
v 2.274902 -1.190700 0.120000
v 2.034915 -1.445530 0.074691
v 1.774542 -1.679491 0.059553
v 1.495591 -1.890957 0.074691
v 1.200000 -2.078461 0.120000
v 0.889822 -2.240699 0.074691
v 0.567210 -2.376544 0.059553
v 0.234408 -2.485053 0.074691
v -0.106275 -2.565472 0.120000
v -0.452471 -2.617243 0.078149
v -0.801775 -2.640006 0.064166
v -1.151762 -2.633602 0.078149
v -1.500000 -2.598076 0.120000
v -1.704885 -2.314256 0.078149
v -1.885424 -2.014360 0.064166
v -2.040364 -1.700472 0.078149
v -2.168627 -1.374773 0.120000
v -2.269323 -1.039523 0.074691
v -2.341753 -0.697053 0.059553
v -2.385413 -0.349741 0.074691
v -2.400000 -0.000000 0.120000
v -2.385413 0.349741 0.074691
v -2.341753 0.697053 0.059553
v -2.269323 1.039523 0.074691
v -2.168627 1.374773 0.120000
v -2.040364 1.700472 0.078149
v -1.885424 2.014360 0.064166
v -1.704885 2.314256 0.078149
v -1.500000 2.598076 -0.120000
v -1.151762 2.633602 -0.055271
v -0.801775 2.640006 -0.033645
v -0.452471 2.617243 -0.055271
v -0.106275 2.565472 -0.120000
v 0.234408 2.485053 -0.055271
v 0.567210 2.376544 -0.033645
v 0.889822 2.240699 -0.055271
v 1.200000 2.078461 -0.120000
v 1.495591 1.890957 -0.055271
v 1.774542 1.679491 -0.033645
v 2.034915 1.445530 -0.055271
v 2.274902 1.190700 -0.120000
v 2.492834 0.916771 -0.055271
v 2.687199 0.625645 -0.033645
v 2.856647 0.319346 -0.055271
v 3.000000 0.000000 -0.120000
v 2.856647 -0.319346 -0.055271
v 2.687199 -0.625645 -0.033645
v 2.492834 -0.916771 -0.055271
v 2.274902 -1.190700 -0.120000
v 2.034915 -1.445530 -0.055271
v 1.774542 -1.679491 -0.033645
v 1.495591 -1.890957 -0.055271
v 1.200000 -2.078461 -0.120000
v 0.889822 -2.240699 -0.055271
v 0.567210 -2.376544 -0.033645
v 0.234408 -2.485053 -0.055271
v -0.106275 -2.565472 -0.120000
v -0.452471 -2.617243 -0.055271
v -0.801775 -2.640006 -0.033645
v -1.151762 -2.633602 -0.055271
v -1.500000 -2.598076 -0.120000
v -1.704885 -2.314256 -0.055271
v -1.885424 -2.014360 -0.033645
v -2.040364 -1.700472 -0.055271
v -2.168627 -1.374773 -0.120000
v -2.269323 -1.039523 -0.055271
v -2.341753 -0.697053 -0.033645
v -2.385413 -0.349741 -0.055271
v -2.400000 -0.000000 -0.120000
v -2.385413 0.349741 -0.055271
v -2.341753 0.697053 -0.033645
v -2.269323 1.039523 -0.055271
v -2.168627 1.374773 -0.120000
v -2.040364 1.700472 -0.055271
v -1.885424 2.014360 -0.033645
v -1.704885 2.314256 -0.055271
v -0.900000 1.558846 0.839162
v -0.063765 1.539283 0.839162
v 1.364941 0.714420 0.839162
v 1.800000 0.000000 0.839162
v 1.364941 -0.714420 0.839162
v -0.063765 -1.539283 0.839162
v -0.900000 -1.558846 0.839162
v -1.301176 -0.824864 0.839162
v -1.301176 0.824864 0.839162
v -1.197237 2.073675 0.615747
v 0.957789 1.658940 0.615747
v 2.394473 0.000000 0.615747
v 0.957789 -1.658940 0.615747
v -1.197237 -2.073675 0.615747
v -1.915579 -0.000000 0.615747
v -0.177837 2.193622 -0.673621
v 0.992459 1.718989 -0.726850
v 1.988651 0.942799 -0.673621
v 1.988651 -0.942799 -0.673621
v 0.992459 -1.718989 -0.726850
v -0.177837 -2.193622 -0.673621
v -1.810814 -1.250823 -0.673621
v -1.984918 -0.000000 -0.726850
v -1.810814 1.250823 -0.673621
v -0.328678 0.569287 -2.376000
v 0.298878 0.517672 -2.376000
v 0.657356 0.000000 -2.376000
v 0.298878 -0.517672 -2.376000
v -0.328678 -0.569287 -2.376000
v -0.597756 -0.000000 -2.376000
v 0.000000 0.000000 -2.940000

vn -0.000000 0.000000 1.000000
vn -0.353410 0.193165 0.915308
vn 0.009419 0.402645 0.915308
vn 0.343991 0.209480 0.915308
vn 0.343991 -0.209480 0.915308
vn 0.009419 -0.402645 0.915308
vn -0.353410 -0.193165 0.915308
vn 0.170869 0.295953 0.939795
vn 0.170869 -0.295953 0.939795
vn -0.341737 -0.000000 0.939795
vn 0.110363 0.573463 0.811764
vn 0.441452 0.382308 0.811764
vn 0.441452 -0.382308 0.811764
vn 0.110363 -0.573463 0.811764
vn -0.551815 -0.191154 0.811764
vn -0.551815 0.191154 0.811764
vn -0.607210 0.331886 0.721906
vn 0.016184 0.691802 0.721906
vn 0.251553 0.674722 0.693881
vn 0.458550 0.555213 0.693881
vn 0.591027 0.359916 0.721906
vn 0.591027 -0.359916 0.721906
vn 0.458550 -0.555213 0.693881
vn 0.251553 -0.674722 0.693881
vn 0.016184 -0.691802 0.721906
vn -0.607210 -0.331886 0.721906
vn -0.710103 -0.119510 0.693881
vn -0.710103 0.119510 0.693881
vn -0.101488 0.994837 0.000000
vn -0.018294 0.999833 0.000000
vn 0.065027 0.997883 0.000000
vn 0.147897 0.989003 0.000000
vn 0.229739 0.973252 0.000000
vn 0.309986 0.950741 0.000000
vn 0.388079 0.921626 0.000000
vn 0.463477 0.886109 -0.000000
vn 0.535655 0.844437 -0.000000
vn 0.604112 0.796899 -0.000000
vn 0.668373 0.743826 0.000000
vn 0.727992 0.685586 0.000000
vn 0.782553 0.622584 0.000000
vn 0.831679 0.555257 -0.000000
vn 0.875028 0.484073 0.000000
vn 0.912298 0.409527 0.000000
vn 0.912298 -0.409527 0.000000
vn 0.875028 -0.484073 0.000000
vn 0.831679 -0.555257 0.000000
vn 0.782553 -0.622584 -0.000000
vn 0.727992 -0.685586 -0.000000
vn 0.668373 -0.743826 0.000000
vn 0.604112 -0.796899 0.000000
vn 0.535655 -0.844437 0.000000
vn 0.463477 -0.886109 0.000000
vn 0.388079 -0.921626 0.000000
vn 0.309986 -0.950741 -0.000000
vn 0.229739 -0.973252 0.000000
vn 0.147897 -0.989003 -0.000000
vn 0.065027 -0.997883 0.000000
vn -0.018294 -0.999833 0.000000
vn -0.101488 -0.994837 0.000000
vn -0.810810 -0.585310 0.000000
vn -0.856733 -0.515759 0.000000
vn -0.896706 -0.442627 -0.000000
vn -0.930450 -0.366419 -0.000000
vn -0.957731 -0.287666 -0.000000
vn -0.978359 -0.206915 -0.000000
vn -0.992191 -0.124727 0.000000
vn -0.999131 -0.041672 -0.000000
vn -0.999131 0.041672 0.000000
vn -0.992191 0.124727 0.000000
vn -0.978359 0.206915 -0.000000
vn -0.957731 0.287666 0.000000
vn -0.930450 0.366419 -0.000000
vn -0.896706 0.442627 0.000000
vn -0.856733 0.515759 -0.000000
vn -0.810810 0.585310 0.000000
vn 0.019389 0.828811 -0.559193
vn 0.289613 0.776806 -0.559193
vn 0.527928 0.639215 -0.559193
vn 0.708077 0.431196 -0.559193
vn 0.708077 -0.431196 -0.559193
vn 0.527928 -0.639215 -0.559193
vn 0.289613 -0.776806 -0.559193
vn 0.019389 -0.828811 -0.559193
vn -0.727466 -0.397614 -0.559193
vn -0.817540 -0.137591 -0.559193
vn -0.817540 0.137591 -0.559193
vn -0.727466 0.397614 -0.559193
vn -0.595008 0.419086 -0.685808
vn -0.065435 0.724835 -0.685808
vn 0.264307 0.723249 -0.638007
vn 0.494199 0.590521 -0.638007
vn 0.660443 0.305749 -0.685808
vn 0.660443 -0.305749 -0.685808
vn 0.494199 -0.590521 -0.638007
vn 0.264307 -0.723249 -0.638007
vn -0.065435 -0.724835 -0.685808
vn -0.595008 -0.419086 -0.685808
vn -0.758505 -0.132728 -0.638007
vn -0.758505 0.132728 -0.638007
vn 0.059186 0.719604 -0.691858
vn 0.593602 0.411058 -0.691858
vn 0.593602 -0.411058 -0.691858
vn 0.059186 -0.719604 -0.691858
vn -0.652788 -0.308546 -0.691858
vn -0.652788 0.308546 -0.691858



f 97//1 105//1 104//1
f 97//1 104//1 103//1
f 97//1 103//1 102//1
f 97//1 102//1 101//1
f 97//1 101//1 100//1
f 97//1 100//1 99//1
f 97//1 99//1 98//1
f 97//2 106//2 105//2
f 97//3 98//3 106//3
f 100//4 108//4 99//4
f 100//5 101//5 108//5
f 103//6 110//6 102//6
f 103//7 104//7 110//7
f 98//8 99//8 107//8
f 101//9 102//9 109//9
f 104//10 105//10 111//10
f 98//11 107//11 5//11
f 98//11 5//11 106//11
f 99//12 108//12 13//12
f 99//12 13//12 107//12
f 101//13 109//13 21//13
f 101//13 21//13 108//13
f 102//14 110//14 29//14
f 102//14 29//14 109//14
f 104//15 111//15 37//15
f 104//15 37//15 110//15
f 105//16 106//16 45//16
f 105//16 45//16 111//16
f 106//17 1//17 48//17
f 106//17 48//17 47//17
f 106//17 47//17 46//17
f 106//17 46//17 45//17
f 106//18 5//18 4//18
f 106//18 4//18 3//18
f 106//18 3//18 2//18
f 106//18 2//18 1//18
f 107//19 9//19 8//19
f 107//19 8//19 7//19
f 107//19 7//19 6//19
f 107//19 6//19 5//19
f 107//20 13//20 12//20
f 107//20 12//20 11//20
f 107//20 11//20 10//20
f 107//20 10//20 9//20
f 108//21 17//21 16//21
f 108//21 16//21 15//21
f 108//21 15//21 14//21
f 108//21 14//21 13//21
f 108//22 21//22 20//22
f 108//22 20//22 19//22
f 108//22 19//22 18//22
f 108//22 18//22 17//22
f 109//23 25//23 24//23
f 109//23 24//23 23//23
f 109//23 23//23 22//23
f 109//23 22//23 21//23
f 109//24 29//24 28//24
f 109//24 28//24 27//24
f 109//24 27//24 26//24
f 109//24 26//24 25//24
f 110//25 33//25 32//25
f 110//25 32//25 31//25
f 110//25 31//25 30//25
f 110//25 30//25 29//25
f 110//26 37//26 36//26
f 110//26 36//26 35//26
f 110//26 35//26 34//26
f 110//26 34//26 33//26
f 111//27 41//27 40//27
f 111//27 40//27 39//27
f 111//27 39//27 38//27
f 111//27 38//27 37//27
f 111//28 45//28 44//28
f 111//28 44//28 43//28
f 111//28 43//28 42//28
f 111//28 42//28 41//28
f 1//29 2//29 50//29
f 1//29 50//29 49//29
f 2//30 3//30 51//30
f 2//30 51//30 50//30
f 3//31 4//31 52//31
f 3//31 52//31 51//31
f 4//32 5//32 53//32
f 4//32 53//32 52//32
f 5//33 6//33 54//33
f 5//33 54//33 53//33
f 6//34 7//34 55//34
f 6//34 55//34 54//34
f 7//35 8//35 56//35
f 7//35 56//35 55//35
f 8//36 9//36 57//36
f 8//36 57//36 56//36
f 9//37 10//37 58//37
f 9//37 58//37 57//37
f 10//38 11//38 59//38
f 10//38 59//38 58//38
f 11//39 12//39 60//39
f 11//39 60//39 59//39
f 12//40 13//40 61//40
f 12//40 61//40 60//40
f 13//41 14//41 62//41
f 13//41 62//41 61//41
f 14//42 15//42 63//42
f 14//42 63//42 62//42
f 15//43 16//43 64//43
f 15//43 64//43 63//43
f 16//44 17//44 65//44
f 16//44 65//44 64//44
f 17//45 18//45 66//45
f 17//45 66//45 65//45
f 18//46 19//46 67//46
f 18//46 67//46 66//46
f 19//47 20//47 68//47
f 19//47 68//47 67//47
f 20//48 21//48 69//48
f 20//48 69//48 68//48
f 21//49 22//49 70//49
f 21//49 70//49 69//49
f 22//50 23//50 71//50
f 22//50 71//50 70//50
f 23//51 24//51 72//51
f 23//51 72//51 71//51
f 24//52 25//52 73//52
f 24//52 73//52 72//52
f 25//53 26//53 74//53
f 25//53 74//53 73//53
f 26//54 27//54 75//54
f 26//54 75//54 74//54
f 27//55 28//55 76//55
f 27//55 76//55 75//55
f 28//56 29//56 77//56
f 28//56 77//56 76//56
f 29//57 30//57 78//57
f 29//57 78//57 77//57
f 30//58 31//58 79//58
f 30//58 79//58 78//58
f 31//59 32//59 80//59
f 31//59 80//59 79//59
f 32//60 33//60 81//60
f 32//60 81//60 80//60
f 33//61 34//61 82//61
f 33//61 82//61 81//61
f 34//62 35//62 83//62
f 34//62 83//62 82//62
f 35//63 36//63 84//63
f 35//63 84//63 83//63
f 36//64 37//64 85//64
f 36//64 85//64 84//64
f 37//65 38//65 86//65
f 37//65 86//65 85//65
f 38//66 39//66 87//66
f 38//66 87//66 86//66
f 39//67 40//67 88//67
f 39//67 88//67 87//67
f 40//68 41//68 89//68
f 40//68 89//68 88//68
f 41//69 42//69 90//69
f 41//69 90//69 89//69
f 42//70 43//70 91//70
f 42//70 91//70 90//70
f 43//71 44//71 92//71
f 43//71 92//71 91//71
f 44//72 45//72 93//72
f 44//72 93//72 92//72
f 45//73 46//73 94//73
f 45//73 94//73 93//73
f 46//74 47//74 95//74
f 46//74 95//74 94//74
f 47//75 48//75 96//75
f 47//75 96//75 95//75
f 48//76 1//76 49//76
f 48//76 49//76 96//76
f 112//77 49//77 50//77
f 112//77 50//77 51//77
f 112//77 51//77 52//77
f 112//77 52//77 53//77
f 113//78 112//78 53//78
f 113//78 53//78 54//78
f 113//78 54//78 55//78
f 113//78 55//78 56//78
f 113//78 56//78 57//78
f 114//79 113//79 57//79
f 114//79 57//79 58//79
f 114//79 58//79 59//79
f 114//79 59//79 60//79
f 114//79 60//79 61//79
f 65//80 114//80 61//80
f 65//80 61//80 62//80
f 65//80 62//80 63//80
f 65//80 63//80 64//80
f 115//81 65//81 66//81
f 115//81 66//81 67//81
f 115//81 67//81 68//81
f 115//81 68//81 69//81
f 116//82 115//82 69//82
f 116//82 69//82 70//82
f 116//82 70//82 71//82
f 116//82 71//82 72//82
f 116//82 72//82 73//82
f 117//83 116//83 73//83
f 117//83 73//83 74//83
f 117//83 74//83 75//83
f 117//83 75//83 76//83
f 117//83 76//83 77//83
f 81//84 117//84 77//84
f 81//84 77//84 78//84
f 81//84 78//84 79//84
f 81//84 79//84 80//84
f 118//85 81//85 82//85
f 118//85 82//85 83//85
f 118//85 83//85 84//85
f 118//85 84//85 85//85
f 119//86 118//86 85//86
f 119//86 85//86 86//86
f 119//86 86//86 87//86
f 119//86 87//86 88//86
f 119//86 88//86 89//86
f 120//87 119//87 89//87
f 120//87 89//87 90//87
f 120//87 90//87 91//87
f 120//87 91//87 92//87
f 120//87 92//87 93//87
f 49//88 120//88 93//88
f 49//88 93//88 94//88
f 49//88 94//88 95//88
f 49//88 95//88 96//88
f 121//89 120//89 49//89
f 121//90 49//90 112//90
f 122//91 112//91 113//91
f 122//92 113//92 114//92
f 123//93 114//93 65//93
f 123//94 65//94 115//94
f 124//95 115//95 116//95
f 124//96 116//96 117//96
f 125//97 117//97 81//97
f 125//98 81//98 118//98
f 126//99 118//99 119//99
f 126//100 119//100 120//100
f 127//101 121//101 112//101
f 127//101 112//101 122//101
f 127//102 122//102 114//102
f 127//102 114//102 123//102
f 127//103 123//103 115//103
f 127//103 115//103 124//103
f 127//104 124//104 117//104
f 127//104 117//104 125//104
f 127//105 125//105 118//105
f 127//105 118//105 126//105
f 127//106 126//106 120//106
f 127//106 120//106 121//106
