v 0.000000 2.253253 1.020000
v 2.621970 2.021970 1.020000
v 2.853253 0.000000 1.020000
v 2.621970 -2.021970 1.020000
v 0.000000 -2.253253 1.020000
v -2.621970 -2.021970 1.020000
v -2.853253 0.000000 1.020000
v -2.621970 2.021970 1.020000
v 2.627635 2.825294 0.540000
v 3.425294 2.027635 0.540000
v 3.425294 -2.027635 0.540000
v 2.627635 -2.825294 0.540000
v -2.627635 -2.825294 0.540000
v -3.425294 -2.027635 0.540000
v -3.425294 2.027635 0.540000
v -2.627635 2.825294 0.540000
v 2.700000 3.000000 0.060000
v 3.600000 2.100000 0.060000
v 3.600000 -2.100000 0.060000
v 2.700000 -3.000000 0.060000
v -2.700000 -3.000000 0.060000
v -3.600000 -2.100000 0.060000
v -3.600000 2.100000 0.060000
v -2.700000 3.000000 0.060000
v 2.700000 3.000000 -0.060000
v 3.600000 2.100000 -0.060000
v 3.600000 -2.100000 -0.060000
v 2.700000 -3.000000 -0.060000
v -2.700000 -3.000000 -0.060000
v -3.600000 -2.100000 -0.060000
v -3.600000 2.100000 -0.060000
v -2.700000 3.000000 -0.060000
v 0.000000 2.368382 -1.548000
v 2.038725 1.698937 -1.548000
v 2.633682 0.000000 -1.548000
v 2.038725 -1.698937 -1.548000
v 0.000000 -2.368382 -1.548000
v -2.038725 -1.698937 -1.548000
v -2.633682 0.000000 -1.548000
v -2.038725 1.698937 -1.548000
v 0.456427 0.789460 -3.036000
v 0.877894 0.367994 -3.036000
v 0.877894 -0.367994 -3.036000
v 0.456427 -0.789460 -3.036000
v -0.456427 -0.789460 -3.036000
v -0.877894 -0.367994 -3.036000
v -0.877894 0.367994 -3.036000
v -0.456427 0.789460 -3.036000
v 0.000000 0.000000 -3.780000

vn 0.000000 -0.000000 1.000000
vn -0.000000 0.642788 0.766044
vn 0.642788 0.000000 0.766044
vn 0.000000 -0.642788 0.766044
vn -0.642788 -0.000000 0.766044
vn 0.454519 0.454519 0.766044
vn 0.454519 -0.454519 0.766044
vn -0.454519 -0.454519 0.766044
vn -0.454519 0.454519 0.766044
vn 0.045178 0.512169 0.857696
vn 0.511744 0.058536 0.857142
vn 0.511744 -0.058536 0.857142
vn 0.045178 -0.512169 0.857696
vn -0.045178 -0.512169 0.857696
vn -0.511744 -0.058536 0.857142
vn -0.511744 0.058536 0.857142
vn -0.045178 0.512169 0.857696
vn 0.000000 0.939693 0.342020
vn 0.939693 -0.000000 0.342020
vn 0.000000 -0.939693 0.342020
vn -0.939693 0.000000 0.342020
vn 0.664463 0.664463 0.342020
vn 0.664463 -0.664463 0.342020
vn -0.664463 -0.664463 0.342020
vn -0.664463 0.664463 0.342020
vn 0.000000 1.000000 0.000000
vn 0.707107 0.707107 0.000000
vn 1.000000 -0.000000 0.000000
vn 0.707107 -0.707107 -0.000000
vn 0.000000 -1.000000 0.000000
vn -0.707107 -0.707107 0.000000
vn -1.000000 -0.000000 0.000000
vn -0.707107 0.707107 -0.000000
vn 0.000000 0.920505 -0.390731
vn 0.517145 0.517145 -0.681998
vn 0.838671 -0.000000 -0.544639
vn 0.517145 -0.517145 -0.681998
vn -0.000000 -0.920505 -0.390731
vn -0.517145 -0.517145 -0.681998
vn -0.838671 0.000000 -0.544639
vn -0.517145 0.517145 -0.681998
vn 0.000000 0.685843 -0.727750
vn 0.456235 0.456235 -0.764002
vn 0.646533 0.000000 -0.762886
vn 0.456235 -0.456235 -0.764002
vn 0.000000 -0.685843 -0.727750
vn -0.456235 -0.456235 -0.764002
vn -0.646533 -0.000000 -0.762886
vn -0.456235 0.456235 -0.764002
vn 0.210688 0.702015 -0.680284
vn 0.279653 0.657752 -0.699398
vn 0.627035 0.270027 -0.730693
vn 0.657353 0.210276 -0.723651
vn 0.657353 -0.210276 -0.723651
vn 0.627035 -0.270027 -0.730693
vn 0.279653 -0.657752 -0.699398
vn 0.210688 -0.702015 -0.680284
vn -0.210688 -0.702015 -0.680284
vn -0.279653 -0.657752 -0.699398
vn -0.627035 -0.270027 -0.730693
vn -0.657353 -0.210276 -0.723651
vn -0.657353 0.210276 -0.723651
vn -0.627035 0.270027 -0.730693
vn -0.279653 0.657752 -0.699398
vn -0.210688 0.702015 -0.680284



f 1//1 8//1 7//1
f 1//1 7//1 6//1
f 1//1 6//1 5//1
f 1//1 5//1 4//1
f 1//1 4//1 3//1
f 1//1 3//1 2//1
f 1//2 9//2 16//2
f 3//3 11//3 10//3
f 5//4 13//4 12//4
f 7//5 15//5 14//5
f 2//6 10//6 9//6
f 4//7 12//7 11//7
f 6//8 14//8 13//8
f 8//9 16//9 15//9
f 1//10 2//10 9//10
f 3//11 10//11 2//11
f 3//12 4//12 11//12
f 5//13 12//13 4//13
f 5//14 6//14 13//14
f 7//15 14//15 6//15
f 7//16 8//16 15//16
f 1//17 16//17 8//17
f 9//18 17//18 24//18
f 9//18 24//18 16//18
f 10//19 11//19 19//19
f 10//19 19//19 18//19
f 12//20 13//20 21//20
f 12//20 21//20 20//20
f 15//21 23//21 22//21
f 15//21 22//21 14//21
f 9//22 10//22 18//22
f 9//22 18//22 17//22
f 11//23 12//23 20//23
f 11//23 20//23 19//23
f 13//24 14//24 22//24
f 13//24 22//24 21//24
f 16//25 24//25 23//25
f 16//25 23//25 15//25
f 17//26 25//26 32//26
f 17//26 32//26 24//26
f 18//27 26//27 25//27
f 18//27 25//27 17//27
f 19//28 27//28 26//28
f 19//28 26//28 18//28
f 20//29 28//29 27//29
f 20//29 27//29 19//29
f 21//30 29//30 28//30
f 21//30 28//30 20//30
f 22//31 30//31 29//31
f 22//31 29//31 21//31
f 23//32 31//32 30//32
f 23//32 30//32 22//32
f 24//33 32//33 31//33
f 24//33 31//33 23//33
f 33//34 32//34 25//34
f 34//35 25//35 26//35
f 35//36 26//36 27//36
f 36//37 27//37 28//37
f 37//38 28//38 29//38
f 38//39 29//39 30//39
f 39//40 30//40 31//40
f 40//41 31//41 32//41
f 49//42 48//42 33//42
f 49//42 33//42 41//42
f 49//43 41//43 34//43
f 49//43 34//43 42//43
f 49//44 42//44 35//44
f 49//44 35//44 43//44
f 49//45 43//45 36//45
f 49//45 36//45 44//45
f 49//46 44//46 37//46
f 49//46 37//46 45//46
f 49//47 45//47 38//47
f 49//47 38//47 46//47
f 49//48 46//48 39//48
f 49//48 39//48 47//48
f 49//49 47//49 40//49
f 49//49 40//49 48//49
f 41//50 33//50 25//50
f 41//51 25//51 34//51
f 42//52 34//52 26//52
f 42//53 26//53 35//53
f 43//54 35//54 27//54
f 43//55 27//55 36//55
f 44//56 36//56 28//56
f 44//57 28//57 37//57
f 45//58 37//58 29//58
f 45//59 29//59 38//59
f 46//60 38//60 30//60
f 46//61 30//61 39//61
f 47//62 39//62 31//62
f 47//63 31//63 40//63
f 48//64 40//64 32//64
f 48//65 32//65 33//65
