v 0.234248 1.800438 0.960249
v 2.650141 1.024587 0.960249
v 3.624000 0.000000 0.960249
v 2.650141 -1.024587 0.960249
v 0.234248 -1.800438 0.960249
v -1.244751 -1.266416 0.960249
v -1.776000 0.000000 0.960249
v -1.244751 1.266416 0.960249
v 1.326981 2.175977 0.699217
v 4.362129 0.643073 0.699217
v 4.362129 -0.643073 0.699217
v 1.326981 -2.175977 0.699217
v -0.860359 -2.170479 0.699217
v -2.156248 -0.900000 0.699217
v -2.156248 0.900000 0.699217
v -0.860359 2.170479 0.699217
v 0.060000 3.000000 0.120000
v 0.491224 2.987392 0.087367
v 0.920975 2.949610 0.076477
v 1.347784 2.886784 0.087367
v 1.770193 2.799128 0.120000
v 2.186759 2.686942 0.090327
v 2.596059 2.550609 0.080425
v 2.996695 2.390595 0.090327
v 3.387296 2.207447 0.120000
v 3.766530 2.001789 0.091454
v 4.133100 1.774326 0.081927
v 4.485754 1.525834 0.091454
v 4.823287 1.257162 0.120000
v 5.144545 0.969228 0.091066
v 5.448432 0.663015 0.081410
v 5.733909 0.339571 0.091066
v 6.000000 0.000000 0.120000
v 5.733909 -0.339571 0.091066
v 5.448432 -0.663015 0.081410
v 5.144545 -0.969228 0.091066
v 4.823287 -1.257162 0.120000
v 4.485754 -1.525834 0.091454
v 4.133100 -1.774326 0.081927
v 3.766530 -2.001789 0.091454
v 3.387296 -2.207447 0.120000
v 2.996695 -2.390595 0.090327
v 2.596059 -2.550609 0.080425
v 2.186759 -2.686942 0.090327
v 1.770193 -2.799128 0.120000
v 1.347784 -2.886784 0.087367
v 0.920975 -2.949610 0.076477
v 0.491224 -2.987392 0.087367
v 0.060000 -3.000000 0.120000
v -0.239932 -2.985554 0.080754
v -0.536976 -2.942356 0.067630
v -0.828271 -2.870821 0.080754
v -1.111011 -2.771639 0.120000
v -1.382474 -2.645764 0.080681
v -1.640045 -2.494409 0.067533
v -1.881243 -2.319031 0.080681
v -2.103747 -2.121320 0.120000
v -2.305412 -1.903180 0.080642
v -2.484297 -1.666711 0.067480
v -2.638679 -1.414190 0.080642
v -2.767071 -1.148050 0.120000
v -2.868237 -0.870854 0.080642
v -2.941203 -0.585271 0.067480
v -2.985265 -0.294051 0.080642
v -3.000000 0.000000 0.120000
v -2.985265 0.294051 0.080642
v -2.941203 0.585271 0.067480
v -2.868237 0.870854 0.080642
v -2.767071 1.148050 0.120000
v -2.638679 1.414190 0.080642
v -2.484297 1.666711 0.067480
v -2.305412 1.903180 0.080642
v -2.103747 2.121320 0.120000
v -1.881243 2.319031 0.080681
v -1.640045 2.494409 0.067533
v -1.382474 2.645764 0.080681
v -1.111011 2.771639 0.120000
v -0.828271 2.870821 0.080754
v -0.536976 2.942356 0.067630
v -0.239932 2.985554 0.080754
v 0.060000 3.000000 -0.120000
v 0.491224 2.987392 -0.086009
v 0.920975 2.949610 -0.074666
v 1.347784 2.886784 -0.086009
v 1.770193 2.799128 -0.120000
v 2.186759 2.686942 -0.088687
v 2.596059 2.550609 -0.078238
v 2.996695 2.390595 -0.088687
v 3.387296 2.207447 -0.120000
v 3.766530 2.001789 -0.092040
v 4.133100 1.774326 -0.082710
v 4.485754 1.525834 -0.092040
v 4.823287 1.257162 -0.120000
v 5.144545 0.969228 -0.095430
v 5.448432 0.663015 -0.087231
v 5.733909 0.339571 -0.095430
v 6.000000 0.000000 -0.120000
v 5.733909 -0.339571 -0.095430
v 5.448432 -0.663015 -0.087231
v 5.144545 -0.969228 -0.095430
v 4.823287 -1.257162 -0.120000
v 4.485754 -1.525834 -0.092040
v 4.133100 -1.774326 -0.082710
v 3.766530 -2.001789 -0.092040
v 3.387296 -2.207447 -0.120000
v 2.996695 -2.390595 -0.088687
v 2.596059 -2.550609 -0.078238
v 2.186759 -2.686942 -0.088687
v 1.770193 -2.799128 -0.120000
v 1.347784 -2.886784 -0.086009
v 0.920975 -2.949610 -0.074666
v 0.491224 -2.987392 -0.086009
v 0.060000 -3.000000 -0.120000
v -0.239932 -2.985554 -0.080276
v -0.536976 -2.942356 -0.066992
v -0.828271 -2.870821 -0.080276
v -1.111011 -2.771639 -0.120000
v -1.382474 -2.645764 -0.079975
v -1.640045 -2.494409 -0.066590
v -1.881243 -2.319031 -0.079975
v -2.103747 -2.121320 -0.120000
v -2.305412 -1.903180 -0.079742
v -2.484297 -1.666711 -0.066280
v -2.638679 -1.414190 -0.079742
v -2.767071 -1.148050 -0.120000
v -2.868237 -0.870854 -0.079617
v -2.941203 -0.585271 -0.066113
v -2.985265 -0.294051 -0.079617
v -3.000000 0.000000 -0.120000
v -2.985265 0.294051 -0.079617
v -2.941203 0.585271 -0.066113
v -2.868237 0.870854 -0.079617
v -2.767071 1.148050 -0.120000
v -2.638679 1.414190 -0.079742
v -2.484297 1.666711 -0.066280
v -2.305412 1.903180 -0.079742
v -2.103747 2.121320 -0.120000
v -1.881243 2.319031 -0.079975
v -1.640045 2.494409 -0.066590
v -1.382474 2.645764 -0.079975
v -1.111011 2.771639 -0.120000
v -0.828271 2.870821 -0.080276
v -0.536976 2.942356 -0.066992
v -0.239932 2.985554 -0.080276
v 0.361867 0.600879 -2.232000
v 1.551608 0.000000 -2.232000
v 0.361867 -0.600879 -2.232000
v -0.242150 -0.599361 -2.232000
v -0.600000 -0.248528 -2.232000
v -0.600000 0.248528 -2.232000
v -0.242150 0.599361 -2.232000
v 0.000000 0.000000 -2.760000

vn 0.000000 -0.000000 1.000000
vn 0.107961 0.336175 0.935591
vn 0.186906 0.177652 0.966181
vn 0.186906 -0.177652 0.966181
vn 0.107961 -0.336175 0.935591
vn -0.115782 -0.320663 0.940090
vn -0.322687 -0.135364 0.936776
vn -0.322687 0.135364 0.936776
vn -0.115782 0.320663 0.940090
vn -0.001442 0.573576 0.819151
vn 0.233443 0.462218 0.855487
vn 0.333406 0.000000 0.942783
vn 0.233443 -0.462218 0.855487
vn -0.001442 -0.573576 0.819151
vn -0.398903 -0.406881 0.821781
vn -0.565957 0.000000 0.824435
vn -0.398903 0.406881 0.821781
vn 0.076252 0.649198 0.756788
vn 0.212234 0.580050 0.786447
vn 0.332684 0.502725 0.797865
vn 0.443898 0.415492 0.793927
vn 0.443898 -0.415492 0.793927
vn 0.332684 -0.502725 0.797865
vn 0.212234 -0.580050 0.786447
vn 0.076252 -0.649198 0.756788
vn -0.128656 -0.659735 0.740403
vn -0.367631 -0.561202 0.741552
vn -0.552377 -0.376468 0.743741
vn -0.653151 -0.132518 0.745542
vn -0.653151 0.132518 0.745542
vn -0.552377 0.376468 0.743741
vn -0.367631 0.561202 0.741552
vn -0.128656 0.659735 0.740403
vn 0.029226 0.999573 0.000000
vn 0.087578 0.996158 -0.000000
vn 0.145630 0.989339 -0.000000
vn 0.203185 0.979140 0.000000
vn 0.260046 0.965596 0.000000
vn 0.316018 0.948753 0.000000
vn 0.370911 0.928668 0.000000
vn 0.424536 0.905411 -0.000000
vn 0.476711 0.879060 -0.000000
vn 0.527258 0.849706 0.000000
vn 0.576002 0.817448 -0.000000
vn 0.622779 0.782398 0.000000
vn 0.667428 0.744674 -0.000000
vn 0.709797 0.704406 0.000000
vn 0.749740 0.661732 0.000000
vn 0.787122 0.616797 0.000000
vn 0.787122 -0.616797 0.000000
vn 0.749740 -0.661732 -0.000000
vn 0.709797 -0.704406 -0.000000
vn 0.667428 -0.744674 -0.000000
vn 0.622779 -0.782398 0.000000
vn 0.576002 -0.817448 0.000000
vn 0.527258 -0.849706 0.000000
vn 0.476711 -0.879060 0.000000
vn 0.424536 -0.905411 0.000000
vn 0.370911 -0.928668 0.000000
vn 0.316018 -0.948753 -0.000000
vn 0.260046 -0.965596 -0.000000
vn 0.203185 -0.979140 0.000000
vn 0.145630 -0.989339 0.000000
vn 0.087578 -0.996158 0.000000
vn 0.029226 -0.999573 0.000000
vn -0.048108 -0.998842 -0.000000
vn -0.143914 -0.989590 -0.000000
vn -0.238489 -0.971145 0.000000
vn -0.331014 -0.943626 -0.000000
vn -0.420667 -0.907215 0.000000
vn -0.506629 -0.862164 -0.000000
vn -0.588085 -0.808799 0.000000
vn -0.664233 -0.747526 0.000000
vn -0.734292 -0.678834 -0.000000
vn -0.797511 -0.603304 0.000000
vn -0.853186 -0.521607 0.000000
vn -0.900670 -0.434505 0.000000
vn -0.939393 -0.342843 0.000000
vn -0.968876 -0.247545 0.000000
vn -0.988747 -0.149600 -0.000000
vn -0.998747 -0.050047 0.000000
vn -0.998747 0.050047 0.000000
vn -0.988747 0.149600 0.000000
vn -0.968876 0.247545 0.000000
vn -0.939393 0.342843 0.000000
vn -0.900670 0.434505 -0.000000
vn -0.853186 0.521607 0.000000
vn -0.797511 0.603304 -0.000000
vn -0.734292 0.678834 0.000000
vn -0.664233 0.747526 0.000000
vn -0.588085 0.808799 0.000000
vn -0.506629 0.862164 -0.000000
vn -0.420667 0.907215 -0.000000
vn -0.331014 0.943626 0.000000
vn -0.238489 0.971145 0.000000
vn -0.143914 0.989590 0.000000
vn -0.048108 0.998842 0.000000
vn 0.078021 0.664263 -0.743416
vn 0.219263 0.599260 -0.769942
vn 0.328284 0.496075 -0.803828
vn 0.398019 0.372549 -0.838325
vn 0.398019 -0.372549 -0.838325
vn 0.328284 -0.496075 -0.803828
vn 0.219263 -0.599260 -0.769942
vn 0.078021 -0.664263 -0.743416
vn -0.129508 -0.664105 -0.736337
vn -0.371220 -0.566682 -0.735573
vn -0.559255 -0.381156 -0.736176
vn -0.662441 -0.134403 -0.736958
vn -0.662441 0.134403 -0.736958
vn -0.559255 0.381156 -0.736176
vn -0.371220 0.566682 -0.735573
vn -0.129508 0.664105 -0.736337
vn -0.001660 0.660646 -0.750696
vn 0.271602 0.537772 -0.798144
vn 0.271602 -0.537772 -0.798144
vn -0.001660 -0.660646 -0.750696
vn -0.463570 -0.472841 -0.749349
vn -0.660628 0.000000 -0.750714
vn -0.463570 0.472841 -0.749349



f 1//1 8//1 7//1
f 1//1 7//1 6//1
f 1//1 6//1 5//1
f 1//1 5//1 4//1
f 1//1 4//1 3//1
f 1//1 3//1 2//1
f 1//2 2//2 9//2
f 2//3 3//3 10//3
f 3//4 4//4 11//4
f 4//5 5//5 12//5
f 5//6 6//6 13//6
f 6//7 7//7 14//7
f 7//8 8//8 15//8
f 8//9 1//9 16//9
f 1//10 9//10 17//10
f 1//10 17//10 16//10
f 2//11 10//11 25//11
f 2//11 25//11 9//11
f 3//12 11//12 33//12
f 3//12 33//12 10//12
f 4//13 12//13 41//13
f 4//13 41//13 11//13
f 5//14 13//14 49//14
f 5//14 49//14 12//14
f 6//15 14//15 57//15
f 6//15 57//15 13//15
f 7//16 15//16 65//16
f 7//16 65//16 14//16
f 8//17 16//17 73//17
f 8//17 73//17 15//17
f 9//18 21//18 20//18
f 9//18 20//18 19//18
f 9//18 19//18 18//18
f 9//18 18//18 17//18
f 9//19 25//19 24//19
f 9//19 24//19 23//19
f 9//19 23//19 22//19
f 9//19 22//19 21//19
f 10//20 29//20 28//20
f 10//20 28//20 27//20
f 10//20 27//20 26//20
f 10//20 26//20 25//20
f 10//21 33//21 32//21
f 10//21 32//21 31//21
f 10//21 31//21 30//21
f 10//21 30//21 29//21
f 11//22 37//22 36//22
f 11//22 36//22 35//22
f 11//22 35//22 34//22
f 11//22 34//22 33//22
f 11//23 41//23 40//23
f 11//23 40//23 39//23
f 11//23 39//23 38//23
f 11//23 38//23 37//23
f 12//24 45//24 44//24
f 12//24 44//24 43//24
f 12//24 43//24 42//24
f 12//24 42//24 41//24
f 12//25 49//25 48//25
f 12//25 48//25 47//25
f 12//25 47//25 46//25
f 12//25 46//25 45//25
f 13//26 53//26 52//26
f 13//26 52//26 51//26
f 13//26 51//26 50//26
f 13//26 50//26 49//26
f 13//27 57//27 56//27
f 13//27 56//27 55//27
f 13//27 55//27 54//27
f 13//27 54//27 53//27
f 14//28 61//28 60//28
f 14//28 60//28 59//28
f 14//28 59//28 58//28
f 14//28 58//28 57//28
f 14//29 65//29 64//29
f 14//29 64//29 63//29
f 14//29 63//29 62//29
f 14//29 62//29 61//29
f 15//30 69//30 68//30
f 15//30 68//30 67//30
f 15//30 67//30 66//30
f 15//30 66//30 65//30
f 15//31 73//31 72//31
f 15//31 72//31 71//31
f 15//31 71//31 70//31
f 15//31 70//31 69//31
f 16//32 77//32 76//32
f 16//32 76//32 75//32
f 16//32 75//32 74//32
f 16//32 74//32 73//32
f 16//33 17//33 80//33
f 16//33 80//33 79//33
f 16//33 79//33 78//33
f 16//33 78//33 77//33
f 17//34 18//34 82//34
f 17//34 82//34 81//34
f 18//35 19//35 83//35
f 18//35 83//35 82//35
f 19//36 20//36 84//36
f 19//36 84//36 83//36
f 20//37 21//37 85//37
f 20//37 85//37 84//37
f 21//38 22//38 86//38
f 21//38 86//38 85//38
f 22//39 23//39 87//39
f 22//39 87//39 86//39
f 23//40 24//40 88//40
f 23//40 88//40 87//40
f 24//41 25//41 89//41
f 24//41 89//41 88//41
f 25//42 26//42 90//42
f 25//42 90//42 89//42
f 26//43 27//43 91//43
f 26//43 91//43 90//43
f 27//44 28//44 92//44
f 27//44 92//44 91//44
f 28//45 29//45 93//45
f 28//45 93//45 92//45
f 29//46 30//46 94//46
f 29//46 94//46 93//46
f 30//47 31//47 95//47
f 30//47 95//47 94//47
f 31//48 32//48 96//48
f 31//48 96//48 95//48
f 32//49 33//49 97//49
f 32//49 97//49 96//49
f 33//50 34//50 98//50
f 33//50 98//50 97//50
f 34//51 35//51 99//51
f 34//51 99//51 98//51
f 35//52 36//52 100//52
f 35//52 100//52 99//52
f 36//53 37//53 101//53
f 36//53 101//53 100//53
f 37//54 38//54 102//54
f 37//54 102//54 101//54
f 38//55 39//55 103//55
f 38//55 103//55 102//55
f 39//56 40//56 104//56
f 39//56 104//56 103//56
f 40//57 41//57 105//57
f 40//57 105//57 104//57
f 41//58 42//58 106//58
f 41//58 106//58 105//58
f 42//59 43//59 107//59
f 42//59 107//59 106//59
f 43//60 44//60 108//60
f 43//60 108//60 107//60
f 44//61 45//61 109//61
f 44//61 109//61 108//61
f 45//62 46//62 110//62
f 45//62 110//62 109//62
f 46//63 47//63 111//63
f 46//63 111//63 110//63
f 47//64 48//64 112//64
f 47//64 112//64 111//64
f 48//65 49//65 113//65
f 48//65 113//65 112//65
f 49//66 50//66 114//66
f 49//66 114//66 113//66
f 50//67 51//67 115//67
f 50//67 115//67 114//67
f 51//68 52//68 116//68
f 51//68 116//68 115//68
f 52//69 53//69 117//69
f 52//69 117//69 116//69
f 53//70 54//70 118//70
f 53//70 118//70 117//70
f 54//71 55//71 119//71
f 54//71 119//71 118//71
f 55//72 56//72 120//72
f 55//72 120//72 119//72
f 56//73 57//73 121//73
f 56//73 121//73 120//73
f 57//74 58//74 122//74
f 57//74 122//74 121//74
f 58//75 59//75 123//75
f 58//75 123//75 122//75
f 59//76 60//76 124//76
f 59//76 124//76 123//76
f 60//77 61//77 125//77
f 60//77 125//77 124//77
f 61//78 62//78 126//78
f 61//78 126//78 125//78
f 62//79 63//79 127//79
f 62//79 127//79 126//79
f 63//80 64//80 128//80
f 63//80 128//80 127//80
f 64//81 65//81 129//81
f 64//81 129//81 128//81
f 65//82 66//82 130//82
f 65//82 130//82 129//82
f 66//83 67//83 131//83
f 66//83 131//83 130//83
f 67//84 68//84 132//84
f 67//84 132//84 131//84
f 68//85 69//85 133//85
f 68//85 133//85 132//85
f 69//86 70//86 134//86
f 69//86 134//86 133//86
f 70//87 71//87 135//87
f 70//87 135//87 134//87
f 71//88 72//88 136//88
f 71//88 136//88 135//88
f 72//89 73//89 137//89
f 72//89 137//89 136//89
f 73//90 74//90 138//90
f 73//90 138//90 137//90
f 74//91 75//91 139//91
f 74//91 139//91 138//91
f 75//92 76//92 140//92
f 75//92 140//92 139//92
f 76//93 77//93 141//93
f 76//93 141//93 140//93
f 77//94 78//94 142//94
f 77//94 142//94 141//94
f 78//95 79//95 143//95
f 78//95 143//95 142//95
f 79//96 80//96 144//96
f 79//96 144//96 143//96
f 80//97 17//97 81//97
f 80//97 81//97 144//97
f 145//98 81//98 82//98
f 145//98 82//98 83//98
f 145//98 83//98 84//98
f 145//98 84//98 85//98
f 145//99 85//99 86//99
f 145//99 86//99 87//99
f 145//99 87//99 88//99
f 145//99 88//99 89//99
f 146//100 89//100 90//100
f 146//100 90//100 91//100
f 146//100 91//100 92//100
f 146//100 92//100 93//100
f 146//101 93//101 94//101
f 146//101 94//101 95//101
f 146//101 95//101 96//101
f 146//101 96//101 97//101
f 146//102 97//102 98//102
f 146//102 98//102 99//102
f 146//102 99//102 100//102
f 146//102 100//102 101//102
f 146//103 101//103 102//103
f 146//103 102//103 103//103
f 146//103 103//103 104//103
f 146//103 104//103 105//103
f 147//104 105//104 106//104
f 147//104 106//104 107//104
f 147//104 107//104 108//104
f 147//104 108//104 109//104
f 147//105 109//105 110//105
f 147//105 110//105 111//105
f 147//105 111//105 112//105
f 147//105 112//105 113//105
f 148//106 113//106 114//106
f 148//106 114//106 115//106
f 148//106 115//106 116//106
f 148//106 116//106 117//106
f 148//107 117//107 118//107
f 148//107 118//107 119//107
f 148//107 119//107 120//107
f 148//107 120//107 121//107
f 149//108 121//108 122//108
f 149//108 122//108 123//108
f 149//108 123//108 124//108
f 149//108 124//108 125//108
f 149//109 125//109 126//109
f 149//109 126//109 127//109
f 149//109 127//109 128//109
f 149//109 128//109 129//109
f 150//110 129//110 130//110
f 150//110 130//110 131//110
f 150//110 131//110 132//110
f 150//110 132//110 133//110
f 150//111 133//111 134//111
f 150//111 134//111 135//111
f 150//111 135//111 136//111
f 150//111 136//111 137//111
f 151//112 137//112 138//112
f 151//112 138//112 139//112
f 151//112 139//112 140//112
f 151//112 140//112 141//112
f 151//113 141//113 142//113
f 151//113 142//113 143//113
f 151//113 143//113 144//113
f 151//113 144//113 81//113
f 152//114 151//114 81//114
f 152//114 81//114 145//114
f 152//115 145//115 89//115
f 152//115 89//115 146//115
f 152//116 146//116 105//116
f 152//116 105//116 147//116
f 152//117 147//117 113//117
f 152//117 113//117 148//117
f 152//118 148//118 121//118
f 152//118 121//118 149//118
f 152//119 149//119 129//119
f 152//119 129//119 150//119
f 152//120 150//120 137//120
f 152//120 137//120 151//120
