v 0.000000 1.800000 0.990249
v 1.601591 1.601591 0.990249
v 1.800000 0.000000 0.990249
v 1.601591 -1.601591 0.990249
v 0.000000 -1.800000 0.990249
v -1.601591 -1.601591 0.990249
v -1.800000 0.000000 0.990249
v -1.601591 1.601591 0.990249
v 1.717135 2.239004 0.682855
v 2.239004 1.717135 0.682855
v 2.239004 -1.717135 0.682855
v 1.717135 -2.239004 0.682855
v -1.717135 -2.239004 0.682855
v -2.239004 -1.717135 0.682855
v -2.239004 1.717135 0.682855
v -1.717135 2.239004 0.682855
v 0.000000 3.000000 0.150000
v 0.676674 2.983697 0.124603
v 1.351778 2.934824 0.126329
v 1.645493 2.903316 0.135584
v 1.938481 2.865640 0.150000
v 2.117692 2.839499 0.123660
v 2.296470 2.810564 0.099552
v 2.469439 2.749063 0.101670
v 2.630682 2.630682 0.150000
v 2.749063 2.469439 0.101670
v 2.810564 2.296470 0.099552
v 2.839499 2.117692 0.123660
v 2.865640 1.938481 0.150000
v 2.903316 1.645493 0.135584
v 2.934824 1.351778 0.126329
v 2.983697 0.676674 0.124603
v 3.000000 0.000000 0.150000
v 2.983697 -0.676674 0.124603
v 2.934824 -1.351778 0.126329
v 2.903316 -1.645493 0.135584
v 2.865640 -1.938481 0.150000
v 2.839499 -2.117692 0.123660
v 2.810564 -2.296470 0.099552
v 2.749063 -2.469439 0.101670
v 2.630682 -2.630682 0.150000
v 2.469439 -2.749063 0.101670
v 2.296470 -2.810564 0.099552
v 2.117692 -2.839499 0.123660
v 1.938481 -2.865640 0.150000
v 1.645493 -2.903316 0.135584
v 1.351778 -2.934824 0.126329
v 0.676674 -2.983697 0.124603
v 0.000000 -3.000000 0.150000
v -0.676674 -2.983697 0.124603
v -1.351778 -2.934824 0.126329
v -1.645493 -2.903316 0.135584
v -1.938481 -2.865640 0.150000
v -2.117692 -2.839499 0.123660
v -2.296470 -2.810564 0.099552
v -2.469439 -2.749063 0.101670
v -2.630682 -2.630682 0.150000
v -2.749063 -2.469439 0.101670
v -2.810564 -2.296470 0.099552
v -2.839499 -2.117692 0.123660
v -2.865640 -1.938481 0.150000
v -2.903316 -1.645493 0.135584
v -2.934824 -1.351778 0.126329
v -2.983697 -0.676674 0.124603
v -3.000000 0.000000 0.150000
v -2.983697 0.676674 0.124603
v -2.934824 1.351778 0.126329
v -2.903316 1.645493 0.135584
v -2.865640 1.938481 0.150000
v -2.839499 2.117692 0.123660
v -2.810564 2.296470 0.099552
v -2.749063 2.469439 0.101670
v -2.630682 2.630682 0.150000
v -2.469439 2.749063 0.101670
v -2.296470 2.810564 0.099552
v -2.117692 2.839499 0.123660
v -1.938481 2.865640 0.150000
v -1.645493 2.903316 0.135584
v -1.351778 2.934824 0.126329
v -0.676674 2.983697 0.124603
v 0.000000 3.000000 -0.030000
v 0.676674 2.983697 -0.004205
v 1.351778 2.934824 -0.030000
v 1.645493 2.903316 -0.004157
v 1.938481 2.865640 0.012923
v 2.117692 2.839499 0.019058
v 2.296470 2.810564 0.021200
v 2.469439 2.749063 -0.023396
v 2.630682 2.630682 -0.150000
v 2.749063 2.469439 -0.023396
v 2.810564 2.296470 0.021200
v 2.839499 2.117692 0.019058
v 2.865640 1.938481 0.012923
v 2.903316 1.645493 -0.004157
v 2.934824 1.351778 -0.030000
v 2.983697 0.676674 -0.004205
v 3.000000 0.000000 -0.030000
v 2.983697 -0.676674 -0.004205
v 2.934824 -1.351778 -0.030000
v 2.903316 -1.645493 -0.004157
v 2.865640 -1.938481 0.012923
v 2.839499 -2.117692 0.019058
v 2.810564 -2.296470 0.021200
v 2.749063 -2.469439 -0.023396
v 2.630682 -2.630682 -0.150000
v 2.469439 -2.749063 -0.023396
v 2.296470 -2.810564 0.021200
v 2.117692 -2.839499 0.019058
v 1.938481 -2.865640 0.012923
v 1.645493 -2.903316 -0.004157
v 1.351778 -2.934824 -0.030000
v 0.676674 -2.983697 -0.004205
v 0.000000 -3.000000 -0.030000
v -0.676674 -2.983697 -0.004205
v -1.351778 -2.934824 -0.030000
v -1.645493 -2.903316 -0.004157
v -1.938481 -2.865640 0.012923
v -2.117692 -2.839499 0.019058
v -2.296470 -2.810564 0.021200
v -2.469439 -2.749063 -0.023396
v -2.630682 -2.630682 -0.150000
v -2.749063 -2.469439 -0.023396
v -2.810564 -2.296470 0.021200
v -2.839499 -2.117692 0.019058
v -2.865640 -1.938481 0.012923
v -2.903316 -1.645493 -0.004157
v -2.934824 -1.351778 -0.030000
v -2.983697 -0.676674 -0.004205
v -3.000000 0.000000 -0.030000
v -2.983697 0.676674 -0.004205
v -2.934824 1.351778 -0.030000
v -2.903316 1.645493 -0.004157
v -2.865640 1.938481 0.012923
v -2.839499 2.117692 0.019058
v -2.810564 2.296470 0.021200
v -2.749063 2.469439 -0.023396
v -2.630682 2.630682 -0.150000
v -2.469439 2.749063 -0.023396
v -2.296470 2.810564 0.021200
v -2.117692 2.839499 0.019058
v -1.938481 2.865640 0.012923
v -1.645493 2.903316 -0.004157
v -1.351778 2.934824 -0.030000
v -0.676674 2.983697 -0.004205
v 0.000000 1.772934 -1.969200
v 1.772934 0.000000 -1.969200
v 0.000000 -1.772934 -1.969200
v -1.772934 0.000000 -1.969200
v 0.000000 1.311714 -2.472971
v 1.311714 0.000000 -2.472971
v 0.000000 -1.311714 -2.472971
v -1.311714 0.000000 -2.472971
v 0.000000 0.850493 -2.953806
v 0.850493 0.000000 -2.953806
v 0.000000 -0.850493 -2.953806
v -0.850493 0.000000 -2.953806
v 0.000000 0.389272 -3.331431
v 0.389272 0.000000 -3.331431
v 0.000000 -0.389272 -3.331431
v -0.389272 0.000000 -3.331431
v 0.000000 0.000000 -3.585623

vn -0.000000 -0.000000 1.000000
vn 0.052774 0.425996 0.903184
vn 0.425996 0.052774 0.903184
vn 0.425996 -0.052774 0.903184
vn 0.052774 -0.425996 0.903184
vn -0.052774 -0.425996 0.903184
vn -0.425996 -0.052774 0.903184
vn -0.425996 0.052774 0.903184
vn -0.052774 0.425996 0.903184
vn 0.000000 0.573576 0.819152
vn 0.353553 0.353553 0.866025
vn 0.573576 -0.000000 0.819152
vn 0.353553 -0.353553 0.866025
vn -0.000000 -0.573576 0.819152
vn -0.353553 -0.353553 0.866025
vn -0.573576 0.000000 0.819152
vn -0.353553 0.353553 0.866025
vn 0.044225 0.638054 0.768720
vn 0.201076 0.592380 0.780163
vn 0.592380 0.201076 0.780163
vn 0.638054 0.044225 0.768720
vn 0.638054 -0.044225 0.768720
vn 0.592380 -0.201076 0.780163
vn 0.201076 -0.592380 0.780163
vn 0.044225 -0.638054 0.768720
vn -0.044225 -0.638054 0.768720
vn -0.201076 -0.592380 0.780163
vn -0.592380 -0.201076 0.780163
vn -0.638054 -0.044225 0.768720
vn -0.638054 0.044225 0.768720
vn -0.592380 0.201076 0.780163
vn -0.201076 0.592380 0.780163
vn -0.044225 0.638054 0.768720
vn 0.024086 0.999710 -0.000000
vn 0.072203 0.997390 0.000000
vn 0.106664 0.994295 -0.000000
vn 0.127543 0.991833 0.000000
vn 0.144342 0.989528 0.000000
vn 0.159765 0.987155 0.000000
vn 0.335016 0.942212 -0.000000
vn 0.591810 0.806078 -0.000000
vn 0.806078 0.591810 -0.000000
vn 0.942212 0.335016 0.000000
vn 0.987155 0.159765 -0.000000
vn 0.989528 0.144342 -0.000000
vn 0.991833 0.127543 0.000000
vn 0.994295 0.106664 0.000000
vn 0.997390 0.072203 -0.000000
vn 0.999710 0.024086 0.000000
vn 0.999710 -0.024086 -0.000000
vn 0.997390 -0.072203 0.000000
vn 0.994295 -0.106664 0.000000
vn 0.991833 -0.127543 -0.000000
vn 0.989528 -0.144342 0.000000
vn 0.987155 -0.159765 -0.000000
vn 0.942212 -0.335016 0.000000
vn 0.806078 -0.591810 -0.000000
vn 0.591810 -0.806078 0.000000
vn 0.335016 -0.942212 0.000000
vn 0.159765 -0.987155 0.000000
vn 0.144342 -0.989528 0.000000
vn 0.127543 -0.991833 0.000000
vn 0.106664 -0.994295 0.000000
vn 0.072203 -0.997390 0.000000
vn 0.024086 -0.999710 0.000000
vn -0.024086 -0.999710 -0.000000
vn -0.072203 -0.997390 0.000000
vn -0.106664 -0.994295 -0.000000
vn -0.127543 -0.991833 0.000000
vn -0.144342 -0.989528 0.000000
vn -0.159765 -0.987155 0.000000
vn -0.335016 -0.942212 -0.000000
vn -0.591810 -0.806078 -0.000000
vn -0.806078 -0.591810 -0.000000
vn -0.942212 -0.335016 0.000000
vn -0.987155 -0.159765 -0.000000
vn -0.989528 -0.144342 -0.000000
vn -0.991833 -0.127543 0.000000
vn -0.994295 -0.106664 0.000000
vn -0.997390 -0.072203 -0.000000
vn -0.999710 -0.024086 0.000000
vn -0.999710 0.024086 -0.000000
vn -0.997390 0.072203 0.000000
vn -0.994295 0.106664 0.000000
vn -0.991833 0.127543 -0.000000
vn -0.989528 0.144342 0.000000
vn -0.987155 0.159765 -0.000000
vn -0.942212 0.335016 0.000000
vn -0.806078 0.591810 -0.000000
vn -0.591810 0.806078 0.000000
vn -0.335016 0.942212 0.000000
vn -0.159765 0.987155 0.000000
vn -0.144342 0.989528 0.000000
vn -0.127543 0.991833 0.000000
vn -0.106664 0.994295 0.000000
vn -0.072203 0.997390 0.000000
vn -0.024086 0.999710 0.000000
vn 0.040709 0.844334 -0.534268
vn 0.137148 0.804638 -0.577710
vn 0.220889 0.719351 -0.658592
vn 0.242017 0.700219 -0.671655
vn 0.368157 0.589007 -0.719396
vn 0.479726 0.479726 -0.734660
vn 0.589007 0.368157 -0.719396
vn 0.700219 0.242017 -0.671655
vn 0.719351 0.220889 -0.658592
vn 0.804638 0.137148 -0.577710
vn 0.844334 0.040709 -0.534268
vn 0.844334 -0.040709 -0.534268
vn 0.804638 -0.137148 -0.577710
vn 0.719351 -0.220889 -0.658592
vn 0.700219 -0.242017 -0.671655
vn 0.589007 -0.368157 -0.719396
vn 0.479726 -0.479726 -0.734660
vn 0.368157 -0.589007 -0.719396
vn 0.242017 -0.700219 -0.671655
vn 0.220889 -0.719351 -0.658592
vn 0.137148 -0.804638 -0.577710
vn 0.040709 -0.844334 -0.534268
vn -0.040709 -0.844334 -0.534268
vn -0.137148 -0.804638 -0.577710
vn -0.220889 -0.719351 -0.658592
vn -0.242017 -0.700219 -0.671655
vn -0.368157 -0.589007 -0.719396
vn -0.479726 -0.479726 -0.734660
vn -0.589007 -0.368157 -0.719396
vn -0.700219 -0.242017 -0.671655
vn -0.719351 -0.220889 -0.658592
vn -0.804638 -0.137148 -0.577710
vn -0.844334 -0.040709 -0.534268
vn -0.844334 0.040709 -0.534268
vn -0.804638 0.137148 -0.577710
vn -0.719351 0.220889 -0.658592
vn -0.700219 0.242017 -0.671655
vn -0.589007 0.368157 -0.719396
vn -0.479726 0.479726 -0.734660
vn -0.368157 0.589007 -0.719396
vn -0.242017 0.700219 -0.671655
vn -0.220889 0.719351 -0.658592
vn -0.137148 0.804638 -0.577710
vn -0.040709 0.844334 -0.534268



f 1//1 8//1 7//1
f 1//1 7//1 6//1
f 1//1 6//1 5//1
f 1//1 5//1 4//1
f 1//1 4//1 3//1
f 1//1 3//1 2//1
f 1//2 2//2 9//2
f 2//3 3//3 10//3
f 3//4 4//4 11//4
f 4//5 5//5 12//5
f 5//6 6//6 13//6
f 6//7 7//7 14//7
f 7//8 8//8 15//8
f 8//9 1//9 16//9
f 1//10 9//10 17//10
f 1//10 17//10 16//10
f 2//11 10//11 25//11
f 2//11 25//11 9//11
f 3//12 11//12 33//12
f 3//12 33//12 10//12
f 4//13 12//13 41//13
f 4//13 41//13 11//13
f 5//14 13//14 49//14
f 5//14 49//14 12//14
f 6//15 14//15 57//15
f 6//15 57//15 13//15
f 7//16 15//16 65//16
f 7//16 65//16 14//16
f 8//17 16//17 73//17
f 8//17 73//17 15//17
f 9//18 21//18 20//18
f 9//18 20//18 19//18
f 9//18 19//18 18//18
f 9//18 18//18 17//18
f 9//19 25//19 24//19
f 9//19 24//19 23//19
f 9//19 23//19 22//19
f 9//19 22//19 21//19
f 10//20 29//20 28//20
f 10//20 28//20 27//20
f 10//20 27//20 26//20
f 10//20 26//20 25//20
f 10//21 33//21 32//21
f 10//21 32//21 31//21
f 10//21 31//21 30//21
f 10//21 30//21 29//21
f 11//22 37//22 36//22
f 11//22 36//22 35//22
f 11//22 35//22 34//22
f 11//22 34//22 33//22
f 11//23 41//23 40//23
f 11//23 40//23 39//23
f 11//23 39//23 38//23
f 11//23 38//23 37//23
f 12//24 45//24 44//24
f 12//24 44//24 43//24
f 12//24 43//24 42//24
f 12//24 42//24 41//24
f 12//25 49//25 48//25
f 12//25 48//25 47//25
f 12//25 47//25 46//25
f 12//25 46//25 45//25
f 13//26 53//26 52//26
f 13//26 52//26 51//26
f 13//26 51//26 50//26
f 13//26 50//26 49//26
f 13//27 57//27 56//27
f 13//27 56//27 55//27
f 13//27 55//27 54//27
f 13//27 54//27 53//27
f 14//28 61//28 60//28
f 14//28 60//28 59//28
f 14//28 59//28 58//28
f 14//28 58//28 57//28
f 14//29 65//29 64//29
f 14//29 64//29 63//29
f 14//29 63//29 62//29
f 14//29 62//29 61//29
f 15//30 69//30 68//30
f 15//30 68//30 67//30
f 15//30 67//30 66//30
f 15//30 66//30 65//30
f 15//31 73//31 72//31
f 15//31 72//31 71//31
f 15//31 71//31 70//31
f 15//31 70//31 69//31
f 16//32 77//32 76//32
f 16//32 76//32 75//32
f 16//32 75//32 74//32
f 16//32 74//32 73//32
f 16//33 17//33 80//33
f 16//33 80//33 79//33
f 16//33 79//33 78//33
f 16//33 78//33 77//33
f 17//34 18//34 82//34
f 17//34 82//34 81//34
f 18//35 19//35 83//35
f 18//35 83//35 82//35
f 19//36 20//36 84//36
f 19//36 84//36 83//36
f 20//37 21//37 85//37
f 20//37 85//37 84//37
f 21//38 22//38 86//38
f 21//38 86//38 85//38
f 22//39 23//39 87//39
f 22//39 87//39 86//39
f 23//40 24//40 88//40
f 23//40 88//40 87//40
f 24//41 25//41 89//41
f 24//41 89//41 88//41
f 25//42 26//42 90//42
f 25//42 90//42 89//42
f 26//43 27//43 91//43
f 26//43 91//43 90//43
f 27//44 28//44 92//44
f 27//44 92//44 91//44
f 28//45 29//45 93//45
f 28//45 93//45 92//45
f 29//46 30//46 94//46
f 29//46 94//46 93//46
f 30//47 31//47 95//47
f 30//47 95//47 94//47
f 31//48 32//48 96//48
f 31//48 96//48 95//48
f 32//49 33//49 97//49
f 32//49 97//49 96//49
f 33//50 34//50 98//50
f 33//50 98//50 97//50
f 34//51 35//51 99//51
f 34//51 99//51 98//51
f 35//52 36//52 100//52
f 35//52 100//52 99//52
f 36//53 37//53 101//53
f 36//53 101//53 100//53
f 37//54 38//54 102//54
f 37//54 102//54 101//54
f 38//55 39//55 103//55
f 38//55 103//55 102//55
f 39//56 40//56 104//56
f 39//56 104//56 103//56
f 40//57 41//57 105//57
f 40//57 105//57 104//57
f 41//58 42//58 106//58
f 41//58 106//58 105//58
f 42//59 43//59 107//59
f 42//59 107//59 106//59
f 43//60 44//60 108//60
f 43//60 108//60 107//60
f 44//61 45//61 109//61
f 44//61 109//61 108//61
f 45//62 46//62 110//62
f 45//62 110//62 109//62
f 46//63 47//63 111//63
f 46//63 111//63 110//63
f 47//64 48//64 112//64
f 47//64 112//64 111//64
f 48//65 49//65 113//65
f 48//65 113//65 112//65
f 49//66 50//66 114//66
f 49//66 114//66 113//66
f 50//67 51//67 115//67
f 50//67 115//67 114//67
f 51//68 52//68 116//68
f 51//68 116//68 115//68
f 52//69 53//69 117//69
f 52//69 117//69 116//69
f 53//70 54//70 118//70
f 53//70 118//70 117//70
f 54//71 55//71 119//71
f 54//71 119//71 118//71
f 55//72 56//72 120//72
f 55//72 120//72 119//72
f 56//73 57//73 121//73
f 56//73 121//73 120//73
f 57//74 58//74 122//74
f 57//74 122//74 121//74
f 58//75 59//75 123//75
f 58//75 123//75 122//75
f 59//76 60//76 124//76
f 59//76 124//76 123//76
f 60//77 61//77 125//77
f 60//77 125//77 124//77
f 61//78 62//78 126//78
f 61//78 126//78 125//78
f 62//79 63//79 127//79
f 62//79 127//79 126//79
f 63//80 64//80 128//80
f 63//80 128//80 127//80
f 64//81 65//81 129//81
f 64//81 129//81 128//81
f 65//82 66//82 130//82
f 65//82 130//82 129//82
f 66//83 67//83 131//83
f 66//83 131//83 130//83
f 67//84 68//84 132//84
f 67//84 132//84 131//84
f 68//85 69//85 133//85
f 68//85 133//85 132//85
f 69//86 70//86 134//86
f 69//86 134//86 133//86
f 70//87 71//87 135//87
f 70//87 135//87 134//87
f 71//88 72//88 136//88
f 71//88 136//88 135//88
f 72//89 73//89 137//89
f 72//89 137//89 136//89
f 73//90 74//90 138//90
f 73//90 138//90 137//90
f 74//91 75//91 139//91
f 74//91 139//91 138//91
f 75//92 76//92 140//92
f 75//92 140//92 139//92
f 76//93 77//93 141//93
f 76//93 141//93 140//93
f 77//94 78//94 142//94
f 77//94 142//94 141//94
f 78//95 79//95 143//95
f 78//95 143//95 142//95
f 79//96 80//96 144//96
f 79//96 144//96 143//96
f 80//97 17//97 81//97
f 80//97 81//97 144//97
f 145//98 81//98 82//98
f 145//98 82//98 83//98
f 145//99 83//99 84//99
f 145//99 84//99 85//99
f 145//99 85//99 86//99
f 145//99 86//99 87//99
f 145//99 87//99 88//99
f 145//99 88//99 89//99
f 145//100 89//100 149//100
f 149//101 89//101 153//101
f 153//102 89//102 157//102
f 161//103 157//103 89//103
f 161//103 89//103 158//103
f 158//104 89//104 154//104
f 154//105 89//105 150//105
f 150//106 89//106 146//106
f 146//107 89//107 90//107
f 146//107 90//107 91//107
f 146//107 91//107 92//107
f 146//107 92//107 93//107
f 146//107 93//107 94//107
f 146//107 94//107 95//107
f 146//108 95//108 96//108
f 146//108 96//108 97//108
f 146//109 97//109 98//109
f 146//109 98//109 99//109
f 146//110 99//110 100//110
f 146//110 100//110 101//110
f 146//110 101//110 102//110
f 146//110 102//110 103//110
f 146//110 103//110 104//110
f 146//110 104//110 105//110
f 146//111 105//111 150//111
f 150//112 105//112 154//112
f 154//113 105//113 158//113
f 161//114 158//114 105//114
f 161//114 105//114 159//114
f 159//115 105//115 155//115
f 155//116 105//116 151//116
f 151//117 105//117 147//117
f 147//118 105//118 106//118
f 147//118 106//118 107//118
f 147//118 107//118 108//118
f 147//118 108//118 109//118
f 147//118 109//118 110//118
f 147//118 110//118 111//118
f 147//119 111//119 112//119
f 147//119 112//119 113//119
f 147//120 113//120 114//120
f 147//120 114//120 115//120
f 147//121 115//121 116//121
f 147//121 116//121 117//121
f 147//121 117//121 118//121
f 147//121 118//121 119//121
f 147//121 119//121 120//121
f 147//121 120//121 121//121
f 151//122 147//122 121//122
f 155//123 151//123 121//123
f 159//124 155//124 121//124
f 161//125 159//125 121//125
f 161//125 121//125 160//125
f 160//126 121//126 156//126
f 156//127 121//127 152//127
f 152//128 121//128 148//128
f 148//129 121//129 122//129
f 148//129 122//129 123//129
f 148//129 123//129 124//129
f 148//129 124//129 125//129
f 148//129 125//129 126//129
f 148//129 126//129 127//129
f 148//130 127//130 128//130
f 148//130 128//130 129//130
f 148//131 129//131 130//131
f 148//131 130//131 131//131
f 148//132 131//132 132//132
f 148//132 132//132 133//132
f 148//132 133//132 134//132
f 148//132 134//132 135//132
f 148//132 135//132 136//132
f 148//132 136//132 137//132
f 148//133 137//133 152//133
f 152//134 137//134 156//134
f 156//135 137//135 160//135
f 161//136 160//136 137//136
f 161//136 137//136 157//136
f 157//137 137//137 153//137
f 153//138 137//138 149//138
f 149//139 137//139 145//139
f 145//140 137//140 138//140
f 145//140 138//140 139//140
f 145//140 139//140 140//140
f 145//140 140//140 141//140
f 145//140 141//140 142//140
f 145//140 142//140 143//140
f 145//141 143//141 144//141
f 145//141 144//141 81//141
