v 0.883769 1.216404 0.900000
v 1.429969 -0.464625 0.900000
v 0.000000 -1.503558 0.900000
v -1.429969 -0.464625 0.900000
v -0.883769 1.216404 0.900000
v 0.000000 2.812772 0.540000
v 2.675105 0.869194 0.540000
v 1.653306 -2.275580 0.540000
v -1.653306 -2.275580 0.540000
v -2.675105 0.869194 0.540000
v 0.000000 3.448276 0.180000
v 0.267506 3.398985 0.097825
v 0.516811 3.263014 0.072243
v 0.737001 3.069830 0.091053
v 0.927051 2.853169 0.135568
v 1.093643 2.640287 0.187597
v 1.247314 2.447991 0.233282
v 1.399419 2.283645 0.263779
v 1.560492 2.147833 0.274421
v 1.739431 2.036612 0.263779
v 1.942737 1.942737 0.233282
v 2.173108 1.856010 0.187597
v 2.427051 1.763356 0.135568
v 2.691836 1.649559 0.091053
v 2.943607 1.499843 0.072243
v 3.149963 1.304757 0.097825
v 3.279505 1.065576 0.180000
v 3.315290 0.795931 0.097825
v 3.263014 0.516811 0.072243
v 3.147328 0.247700 0.091053
v 3.000000 0.000000 0.135568
v 2.849017 -0.224222 0.187597
v 2.713619 -0.429795 0.233282
v 2.604320 -0.625242 0.263779
v 2.524929 -0.820399 0.274421
v 2.474447 -1.024949 0.263779
v 2.447991 -1.247314 0.233282
v 2.436697 -1.493210 0.187597
v 2.427051 -1.763356 0.135568
v 2.400647 -2.050347 0.091053
v 2.336060 -2.336060 0.072243
v 2.214290 -2.592600 0.097825
v 2.026846 -2.789714 0.180000
v 1.781456 -2.907073 0.097825
v 1.499843 -2.943607 0.072243
v 1.208155 -2.916743 0.091053
v 0.927051 -2.853169 0.135568
v 0.667146 -2.778864 0.187597
v 0.429795 -2.713619 0.233282
v 0.210139 -2.670066 0.263779
v 0.000000 -2.654867 0.274421
v -0.210139 -2.670066 0.263779
v -0.429795 -2.713619 0.233282
v -0.667146 -2.778864 0.187597
v -0.927051 -2.853169 0.135568
v -1.208155 -2.916743 0.091053
v -1.499843 -2.943607 0.072243
v -1.781456 -2.907073 0.097825
v -2.026846 -2.789714 0.180000
v -2.214290 -2.592600 0.097825
v -2.336060 -2.336060 0.072243
v -2.400647 -2.050347 0.091053
v -2.427051 -1.763356 0.135568
v -2.436697 -1.493210 0.187597
v -2.447991 -1.247314 0.233282
v -2.474447 -1.024949 0.263779
v -2.524929 -0.820399 0.274421
v -2.604320 -0.625242 0.263779
v -2.713619 -0.429795 0.233282
v -2.849017 -0.224222 0.187597
v -3.000000 0.000000 0.135568
v -3.147328 0.247700 0.091053
v -3.263014 0.516811 0.072243
v -3.315290 0.795931 0.097825
v -3.279505 1.065576 0.180000
v -3.149963 1.304757 0.097825
v -2.943607 1.499843 0.072243
v -2.691836 1.649559 0.091053
v -2.427051 1.763356 0.135568
v -2.173108 1.856010 0.187597
v -1.942737 1.942737 0.233282
v -1.739431 2.036612 0.263779
v -1.560492 2.147833 0.274421
v -1.399419 2.283645 0.263779
v -1.247314 2.447991 0.233282
v -1.093643 2.640287 0.187597
v -0.927051 2.853169 0.135568
v -0.737001 3.069830 0.091053
v -0.516811 3.263014 0.072243
v -0.267506 3.398985 0.097825
v 0.000000 3.448276 -0.180000
v 0.267506 3.398985 -0.061280
v 0.516811 3.263014 -0.037943
v 0.737001 3.069830 -0.088208
v 0.927051 2.853169 -0.180000
v 1.093643 2.640287 -0.262524
v 1.247314 2.447991 -0.334987
v 1.399419 2.283645 -0.383358
v 1.560492 2.147833 -0.400237
v 1.739431 2.036612 -0.383358
v 1.942737 1.942737 -0.334987
v 2.173108 1.856010 -0.262524
v 2.427051 1.763356 -0.180000
v 2.691836 1.649559 -0.088208
v 2.943607 1.499843 -0.037943
v 3.149963 1.304757 -0.061280
v 3.279505 1.065576 -0.180000
v 3.315290 0.795931 -0.061280
v 3.263014 0.516811 -0.037943
v 3.147328 0.247700 -0.088208
v 3.000000 0.000000 -0.180000
v 2.849017 -0.224222 -0.262524
v 2.713619 -0.429795 -0.334987
v 2.604320 -0.625242 -0.383358
v 2.524929 -0.820399 -0.400237
v 2.474447 -1.024949 -0.383358
v 2.447991 -1.247314 -0.334987
v 2.436697 -1.493210 -0.262524
v 2.427051 -1.763356 -0.180000
v 2.400647 -2.050347 -0.088208
v 2.336060 -2.336060 -0.037943
v 2.214290 -2.592600 -0.061280
v 2.026846 -2.789714 -0.180000
v 1.781456 -2.907073 -0.061280
v 1.499843 -2.943607 -0.037943
v 1.208155 -2.916743 -0.088208
v 0.927051 -2.853169 -0.180000
v 0.667146 -2.778864 -0.262524
v 0.429795 -2.713619 -0.334987
v 0.210139 -2.670066 -0.383358
v 0.000000 -2.654867 -0.400237
v -0.210139 -2.670066 -0.383358
v -0.429795 -2.713619 -0.334987
v -0.667146 -2.778864 -0.262524
v -0.927051 -2.853169 -0.180000
v -1.208155 -2.916743 -0.088208
v -1.499843 -2.943607 -0.037943
v -1.781456 -2.907073 -0.061280
v -2.026846 -2.789714 -0.180000
v -2.214290 -2.592600 -0.061280
v -2.336060 -2.336060 -0.037943
v -2.400647 -2.050347 -0.088208
v -2.427051 -1.763356 -0.180000
v -2.436697 -1.493210 -0.262524
v -2.447991 -1.247314 -0.334987
v -2.474447 -1.024949 -0.383358
v -2.524929 -0.820399 -0.400237
v -2.604320 -0.625242 -0.383358
v -2.713619 -0.429795 -0.334987
v -2.849017 -0.224222 -0.262524
v -3.000000 0.000000 -0.180000
v -3.147328 0.247700 -0.088208
v -3.263014 0.516811 -0.037943
v -3.315290 0.795931 -0.061280
v -3.279505 1.065576 -0.180000
v -3.149963 1.304757 -0.061280
v -2.943607 1.499843 -0.037943
v -2.691836 1.649559 -0.088208
v -2.427051 1.763356 -0.180000
v -2.173108 1.856010 -0.262524
v -1.942737 1.942737 -0.334987
v -1.739431 2.036612 -0.383358
v -1.560492 2.147833 -0.400237
v -1.399419 2.283645 -0.383358
v -1.247314 2.447991 -0.334987
v -1.093643 2.640287 -0.262524
v -0.927051 2.853169 -0.180000
v -0.737001 3.069830 -0.088208
v -0.516811 3.263014 -0.037943
v -0.267506 3.398985 -0.061280
v -0.000000 2.458269 -1.140000
v 2.337953 0.759647 -1.140000
v 1.444934 -1.988782 -1.140000
v -1.444934 -1.988782 -1.140000
v -2.337953 0.759647 -1.140000
v -0.000000 1.932376 -1.612517
v 1.837799 0.597137 -1.612517
v 1.135822 -1.563325 -1.612517
v -1.135822 -1.563325 -1.612517
v -1.837799 0.597137 -1.612517
v 0.513650 0.706979 -2.378231
v 0.831103 -0.270042 -2.378231
v 0.000000 -0.873874 -2.378231
v -0.831103 -0.270042 -2.378231
v -0.513650 0.706979 -2.378231
v 0.000000 0.000000 -2.820000

vn -0.000000 -0.000000 1.000000
vn -0.000000 0.219987 0.975503
vn 0.248409 0.341905 0.906308
vn 0.209220 0.067980 0.975503
vn 0.401934 -0.130596 0.906308
vn 0.129305 -0.177974 0.975503
vn -0.000000 -0.422618 0.906308
vn -0.129305 -0.177974 0.975503
vn -0.401934 -0.130596 0.906308
vn -0.209220 0.067980 0.975503
vn -0.248409 0.341905 0.906308
vn 0.337140 0.464033 0.819152
vn 0.545504 -0.177245 0.819152
vn -0.000000 -0.573576 0.819152
vn -0.545504 -0.177245 0.819152
vn -0.337140 0.464033 0.819152
vn 0.181211 0.983444 0.000000
vn 0.478815 0.877916 -0.000000
vn 0.659504 0.751701 0.000000
vn 0.751765 0.659431 -0.000000
vn 0.787526 0.616282 0.000000
vn 0.781199 0.624282 0.000000
vn 0.733908 0.679248 -0.000000
vn 0.644614 0.764508 0.000000
vn 0.527894 0.849310 -0.000000
vn 0.419213 0.907888 0.000000
vn 0.352324 0.935878 0.000000
vn 0.342760 0.939423 0.000000
vn 0.394848 0.918746 0.000000
vn 0.511113 0.859514 -0.000000
vn 0.686985 0.726671 0.000000
vn 0.879314 0.476243 0.000000
vn 0.991308 0.131559 0.000000
vn 0.982909 -0.184090 0.000000
vn 0.918708 -0.394937 0.000000
vn 0.859465 -0.511195 0.000000
vn 0.829477 -0.558540 0.000000
vn 0.835132 -0.550050 -0.000000
vn 0.872794 -0.488089 -0.000000
vn 0.926287 -0.376818 -0.000000
vn 0.970870 -0.239606 0.000000
vn 0.992997 -0.118143 0.000000
vn 0.998947 -0.045878 -0.000000
vn 0.999363 -0.035686 0.000000
vn 0.995795 -0.091615 0.000000
vn 0.975389 -0.220493 -0.000000
vn 0.903396 -0.428808 0.000000
vn 0.724657 -0.689110 0.000000
vn 0.431451 -0.902136 0.000000
vn 0.128656 -0.991689 0.000000
vn -0.091711 -0.995786 0.000000
vn -0.220587 -0.975367 0.000000
vn -0.274881 -0.961478 0.000000
vn -0.265059 -0.964232 0.000000
vn -0.194492 -0.980904 0.000000
vn -0.072137 -0.997395 0.000000
vn 0.072137 -0.997395 -0.000000
vn 0.194492 -0.980904 -0.000000
vn 0.265059 -0.964232 0.000000
vn 0.274881 -0.961478 -0.000000
vn 0.220587 -0.975367 -0.000000
vn 0.091711 -0.995786 -0.000000
vn -0.128656 -0.991689 0.000000
vn -0.431451 -0.902136 0.000000
vn -0.724657 -0.689110 0.000000
vn -0.903396 -0.428808 0.000000
vn -0.975389 -0.220493 0.000000
vn -0.995795 -0.091615 -0.000000
vn -0.999363 -0.035686 -0.000000
vn -0.998947 -0.045878 -0.000000
vn -0.992997 -0.118143 -0.000000
vn -0.970870 -0.239606 0.000000
vn -0.926287 -0.376818 0.000000
vn -0.872794 -0.488089 -0.000000
vn -0.835132 -0.550050 0.000000
vn -0.829477 -0.558540 0.000000
vn -0.859465 -0.511195 0.000000
vn -0.918708 -0.394937 -0.000000
vn -0.982909 -0.184090 0.000000
vn -0.991308 0.131559 0.000000
vn -0.879314 0.476243 0.000000
vn -0.686985 0.726671 0.000000
vn -0.511113 0.859514 0.000000
vn -0.394848 0.918746 0.000000
vn -0.342760 0.939423 -0.000000
vn -0.352324 0.935878 0.000000
vn -0.419213 0.907888 0.000000
vn -0.527894 0.849310 0.000000
vn -0.644614 0.764508 0.000000
vn -0.733908 0.679248 0.000000
vn -0.781199 0.624282 -0.000000
vn -0.787526 0.616282 -0.000000
vn -0.751765 0.659431 0.000000
vn -0.659504 0.751701 0.000000
vn -0.478815 0.877916 -0.000000
vn -0.181211 0.983444 0.000000
vn -0.407993 0.635568 -0.655434
vn 0.407993 0.635568 -0.655434
vn 0.478385 0.584426 -0.655434
vn 0.730538 -0.191623 -0.655434
vn 0.703651 -0.274373 -0.655434
vn 0.043504 -0.753998 -0.655434
vn -0.043504 -0.753998 -0.655434
vn -0.703651 -0.274373 -0.655434
vn -0.730538 -0.191623 -0.655434
vn -0.478385 0.584426 -0.655434
vn 0.436810 0.601217 -0.669131
vn 0.706773 -0.229644 -0.669131
vn 0.000000 -0.743145 -0.669131
vn -0.706773 -0.229644 -0.669131
vn -0.436810 0.601217 -0.669131
vn 0.000000 0.529919 -0.848048
vn 0.503983 0.163754 -0.848048
vn 0.311479 -0.428714 -0.848048
vn -0.311479 -0.428714 -0.848048
vn -0.503983 0.163754 -0.848048



f 1//1 5//1 4//1
f 1//1 4//1 3//1
f 1//1 3//1 2//1
f 1//2 6//2 5//2
f 1//3 7//3 6//3
f 2//4 7//4 1//4
f 2//5 8//5 7//5
f 3//6 8//6 2//6
f 3//7 9//7 8//7
f 4//8 9//8 3//8
f 4//9 10//9 9//9
f 5//10 10//10 4//10
f 5//11 6//11 10//11
f 6//12 7//12 27//12
f 6//12 27//12 26//12
f 6//12 26//12 25//12
f 6//12 25//12 24//12
f 6//12 24//12 23//12
f 6//12 23//12 22//12
f 6//12 22//12 21//12
f 6//12 21//12 20//12
f 6//12 20//12 19//12
f 6//12 19//12 18//12
f 6//12 18//12 17//12
f 6//12 17//12 16//12
f 6//12 16//12 15//12
f 6//12 15//12 14//12
f 6//12 14//12 13//12
f 6//12 13//12 12//12
f 6//12 12//12 11//12
f 7//13 8//13 43//13
f 7//13 43//13 42//13
f 7//13 42//13 41//13
f 7//13 41//13 40//13
f 7//13 40//13 39//13
f 7//13 39//13 38//13
f 7//13 38//13 37//13
f 7//13 37//13 36//13
f 7//13 36//13 35//13
f 7//13 35//13 34//13
f 7//13 34//13 33//13
f 7//13 33//13 32//13
f 7//13 32//13 31//13
f 7//13 31//13 30//13
f 7//13 30//13 29//13
f 7//13 29//13 28//13
f 7//13 28//13 27//13
f 8//14 9//14 59//14
f 8//14 59//14 58//14
f 8//14 58//14 57//14
f 8//14 57//14 56//14
f 8//14 56//14 55//14
f 8//14 55//14 54//14
f 8//14 54//14 53//14
f 8//14 53//14 52//14
f 8//14 52//14 51//14
f 8//14 51//14 50//14
f 8//14 50//14 49//14
f 8//14 49//14 48//14
f 8//14 48//14 47//14
f 8//14 47//14 46//14
f 8//14 46//14 45//14
f 8//14 45//14 44//14
f 8//14 44//14 43//14
f 9//15 10//15 75//15
f 9//15 75//15 74//15
f 9//15 74//15 73//15
f 9//15 73//15 72//15
f 9//15 72//15 71//15
f 9//15 71//15 70//15
f 9//15 70//15 69//15
f 9//15 69//15 68//15
f 9//15 68//15 67//15
f 9//15 67//15 66//15
f 9//15 66//15 65//15
f 9//15 65//15 64//15
f 9//15 64//15 63//15
f 9//15 63//15 62//15
f 9//15 62//15 61//15
f 9//15 61//15 60//15
f 9//15 60//15 59//15
f 10//16 6//16 11//16
f 10//16 11//16 90//16
f 10//16 90//16 89//16
f 10//16 89//16 88//16
f 10//16 88//16 87//16
f 10//16 87//16 86//16
f 10//16 86//16 85//16
f 10//16 85//16 84//16
f 10//16 84//16 83//16
f 10//16 83//16 82//16
f 10//16 82//16 81//16
f 10//16 81//16 80//16
f 10//16 80//16 79//16
f 10//16 79//16 78//16
f 10//16 78//16 77//16
f 10//16 77//16 76//16
f 10//16 76//16 75//16
f 11//17 12//17 92//17
f 11//17 92//17 91//17
f 12//18 13//18 93//18
f 12//18 93//18 92//18
f 13//19 14//19 94//19
f 13//19 94//19 93//19
f 14//20 15//20 95//20
f 14//20 95//20 94//20
f 15//21 16//21 96//21
f 15//21 96//21 95//21
f 16//22 17//22 97//22
f 16//22 97//22 96//22
f 17//23 18//23 98//23
f 17//23 98//23 97//23
f 18//24 19//24 99//24
f 18//24 99//24 98//24
f 19//25 20//25 100//25
f 19//25 100//25 99//25
f 20//26 21//26 101//26
f 20//26 101//26 100//26
f 21//27 22//27 102//27
f 21//27 102//27 101//27
f 22//28 23//28 103//28
f 22//28 103//28 102//28
f 23//29 24//29 104//29
f 23//29 104//29 103//29
f 24//30 25//30 105//30
f 24//30 105//30 104//30
f 25//31 26//31 106//31
f 25//31 106//31 105//31
f 26//32 27//32 107//32
f 26//32 107//32 106//32
f 27//33 28//33 108//33
f 27//33 108//33 107//33
f 28//34 29//34 109//34
f 28//34 109//34 108//34
f 29//35 30//35 110//35
f 29//35 110//35 109//35
f 30//36 31//36 111//36
f 30//36 111//36 110//36
f 31//37 32//37 112//37
f 31//37 112//37 111//37
f 32//38 33//38 113//38
f 32//38 113//38 112//38
f 33//39 34//39 114//39
f 33//39 114//39 113//39
f 34//40 35//40 115//40
f 34//40 115//40 114//40
f 35//41 36//41 116//41
f 35//41 116//41 115//41
f 36//42 37//42 117//42
f 36//42 117//42 116//42
f 37//43 38//43 118//43
f 37//43 118//43 117//43
f 38//44 39//44 119//44
f 38//44 119//44 118//44
f 39//45 40//45 120//45
f 39//45 120//45 119//45
f 40//46 41//46 121//46
f 40//46 121//46 120//46
f 41//47 42//47 122//47
f 41//47 122//47 121//47
f 42//48 43//48 123//48
f 42//48 123//48 122//48
f 43//49 44//49 124//49
f 43//49 124//49 123//49
f 44//50 45//50 125//50
f 44//50 125//50 124//50
f 45//51 46//51 126//51
f 45//51 126//51 125//51
f 46//52 47//52 127//52
f 46//52 127//52 126//52
f 47//53 48//53 128//53
f 47//53 128//53 127//53
f 48//54 49//54 129//54
f 48//54 129//54 128//54
f 49//55 50//55 130//55
f 49//55 130//55 129//55
f 50//56 51//56 131//56
f 50//56 131//56 130//56
f 51//57 52//57 132//57
f 51//57 132//57 131//57
f 52//58 53//58 133//58
f 52//58 133//58 132//58
f 53//59 54//59 134//59
f 53//59 134//59 133//59
f 54//60 55//60 135//60
f 54//60 135//60 134//60
f 55//61 56//61 136//61
f 55//61 136//61 135//61
f 56//62 57//62 137//62
f 56//62 137//62 136//62
f 57//63 58//63 138//63
f 57//63 138//63 137//63
f 58//64 59//64 139//64
f 58//64 139//64 138//64
f 59//65 60//65 140//65
f 59//65 140//65 139//65
f 60//66 61//66 141//66
f 60//66 141//66 140//66
f 61//67 62//67 142//67
f 61//67 142//67 141//67
f 62//68 63//68 143//68
f 62//68 143//68 142//68
f 63//69 64//69 144//69
f 63//69 144//69 143//69
f 64//70 65//70 145//70
f 64//70 145//70 144//70
f 65//71 66//71 146//71
f 65//71 146//71 145//71
f 66//72 67//72 147//72
f 66//72 147//72 146//72
f 67//73 68//73 148//73
f 67//73 148//73 147//73
f 68//74 69//74 149//74
f 68//74 149//74 148//74
f 69//75 70//75 150//75
f 69//75 150//75 149//75
f 70//76 71//76 151//76
f 70//76 151//76 150//76
f 71//77 72//77 152//77
f 71//77 152//77 151//77
f 72//78 73//78 153//78
f 72//78 153//78 152//78
f 73//79 74//79 154//79
f 73//79 154//79 153//79
f 74//80 75//80 155//80
f 74//80 155//80 154//80
f 75//81 76//81 156//81
f 75//81 156//81 155//81
f 76//82 77//82 157//82
f 76//82 157//82 156//82
f 77//83 78//83 158//83
f 77//83 158//83 157//83
f 78//84 79//84 159//84
f 78//84 159//84 158//84
f 79//85 80//85 160//85
f 79//85 160//85 159//85
f 80//86 81//86 161//86
f 80//86 161//86 160//86
f 81//87 82//87 162//87
f 81//87 162//87 161//87
f 82//88 83//88 163//88
f 82//88 163//88 162//88
f 83//89 84//89 164//89
f 83//89 164//89 163//89
f 84//90 85//90 165//90
f 84//90 165//90 164//90
f 85//91 86//91 166//91
f 85//91 166//91 165//91
f 86//92 87//92 167//92
f 86//92 167//92 166//92
f 87//93 88//93 168//93
f 87//93 168//93 167//93
f 88//94 89//94 169//94
f 88//94 169//94 168//94
f 89//95 90//95 170//95
f 89//95 170//95 169//95
f 90//96 11//96 91//96
f 90//96 91//96 170//96
f 171//97 167//97 168//97
f 171//97 168//97 169//97
f 171//97 169//97 170//97
f 171//97 170//97 91//97
f 171//98 91//98 92//98
f 171//98 92//98 93//98
f 171//98 93//98 94//98
f 171//98 94//98 95//98
f 172//99 103//99 104//99
f 172//99 104//99 105//99
f 172//99 105//99 106//99
f 172//99 106//99 107//99
f 172//100 107//100 108//100
f 172//100 108//100 109//100
f 172//100 109//100 110//100
f 172//100 110//100 111//100
f 173//101 119//101 120//101
f 173//101 120//101 121//101
f 173//101 121//101 122//101
f 173//101 122//101 123//101
f 173//102 123//102 124//102
f 173//102 124//102 125//102
f 173//102 125//102 126//102
f 173//102 126//102 127//102
f 174//103 135//103 136//103
f 174//103 136//103 137//103
f 174//103 137//103 138//103
f 174//103 138//103 139//103
f 174//104 139//104 140//104
f 174//104 140//104 141//104
f 174//104 141//104 142//104
f 174//104 142//104 143//104
f 175//105 151//105 152//105
f 175//105 152//105 153//105
f 175//105 153//105 154//105
f 175//105 154//105 155//105
f 175//106 155//106 156//106
f 175//106 156//106 157//106
f 175//106 157//106 158//106
f 175//106 158//106 159//106
f 181//107 176//107 171//107
f 181//107 171//107 95//107
f 181//107 95//107 96//107
f 181//107 96//107 97//107
f 181//107 97//107 98//107
f 181//107 98//107 99//107
f 181//107 99//107 100//107
f 181//107 100//107 101//107
f 181//107 101//107 102//107
f 181//107 102//107 103//107
f 181//107 103//107 172//107
f 181//107 172//107 177//107
f 182//108 177//108 172//108
f 182//108 172//108 111//108
f 182//108 111//108 112//108
f 182//108 112//108 113//108
f 182//108 113//108 114//108
f 182//108 114//108 115//108
f 182//108 115//108 116//108
f 182//108 116//108 117//108
f 182//108 117//108 118//108
f 182//108 118//108 119//108
f 182//108 119//108 173//108
f 182//108 173//108 178//108
f 183//109 178//109 173//109
f 183//109 173//109 127//109
f 183//109 127//109 128//109
f 183//109 128//109 129//109
f 183//109 129//109 130//109
f 183//109 130//109 131//109
f 183//109 131//109 132//109
f 183//109 132//109 133//109
f 183//109 133//109 134//109
f 183//109 134//109 135//109
f 183//109 135//109 174//109
f 183//109 174//109 179//109
f 184//110 179//110 174//110
f 184//110 174//110 143//110
f 184//110 143//110 144//110
f 184//110 144//110 145//110
f 184//110 145//110 146//110
f 184//110 146//110 147//110
f 184//110 147//110 148//110
f 184//110 148//110 149//110
f 184//110 149//110 150//110
f 184//110 150//110 151//110
f 184//110 151//110 175//110
f 184//110 175//110 180//110
f 185//111 180//111 175//111
f 185//111 175//111 159//111
f 185//111 159//111 160//111
f 185//111 160//111 161//111
f 185//111 161//111 162//111
f 185//111 162//111 163//111
f 185//111 163//111 164//111
f 185//111 164//111 165//111
f 185//111 165//111 166//111
f 185//111 166//111 167//111
f 185//111 167//111 171//111
f 185//111 171//111 176//111
f 186//112 185//112 176//112
f 186//112 176//112 181//112
f 186//113 181//113 177//113
f 186//113 177//113 182//113
f 186//114 182//114 178//114
f 186//114 178//114 183//114
f 186//115 183//115 179//115
f 186//115 179//115 184//115
f 186//116 184//116 180//116
f 186//116 180//116 185//116
