v -1.500000 2.598076 0.120000
v -1.089693 2.634358 0.073570
v -0.677862 2.642355 0.058069
v -0.266455 2.622028 0.073570
v 0.142581 2.573475 0.120000
v 0.547314 2.496924 0.073041
v 0.945828 2.392737 0.057363
v 1.336240 2.261408 0.073041
v 1.716702 2.103557 0.120000
v 2.085416 1.919931 0.077297
v 2.440638 1.711399 0.063040
v 2.780688 1.478945 0.077297
v 3.103958 1.223671 0.120000
v 3.408919 0.946782 0.083576
v 3.694129 0.649589 0.071416
v 3.958239 0.333497 0.083576
v 4.200000 0.000000 0.120000
v 3.958239 -0.333497 0.083576
v 3.694129 -0.649589 0.071416
v 3.408919 -0.946782 0.083576
v 3.103958 -1.223671 0.120000
v 2.780688 -1.478945 0.077297
v 2.440638 -1.711399 0.063040
v 2.085416 -1.919931 0.077297
v 1.716702 -2.103557 0.120000
v 1.336240 -2.261408 0.073041
v 0.945828 -2.392737 0.057363
v 0.547314 -2.496924 0.073041
v 0.142581 -2.573475 0.120000
v -0.266455 -2.622028 0.073570
v -0.677862 -2.642355 0.058069
v -1.089693 -2.634358 0.073570
v -1.500000 -2.598076 0.120000
v -1.704885 -2.314256 0.071258
v -1.885424 -2.014360 0.054972
v -2.040364 -1.700472 0.071258
v -2.168627 -1.374773 0.120000
v -2.269323 -1.039523 0.067062
v -2.341753 -0.697053 0.049375
v -2.385413 -0.349741 0.067062
v -2.400000 -0.000000 0.120000
v -2.385413 0.349741 0.067062
v -2.341753 0.697053 0.049375
v -2.269323 1.039523 0.067062
v -2.168627 1.374773 0.120000
v -2.040364 1.700472 0.071258
v -1.885424 2.014360 0.054972
v -1.704885 2.314256 0.071258
v -1.500000 2.598076 -0.120000
v -1.089693 2.634358 -0.077503
v -0.677862 2.642355 -0.063315
v -0.266455 2.622028 -0.077503
v 0.142581 2.573475 -0.120000
v 0.547314 2.496924 -0.076390
v 0.945828 2.392737 -0.061830
v 1.336240 2.261408 -0.076390
v 1.716702 2.103557 -0.120000
v 2.085416 1.919931 -0.079517
v 2.440638 1.711399 -0.066001
v 2.780688 1.478945 -0.079517
v 3.103958 1.223671 -0.120000
v 3.408919 0.946782 -0.085142
v 3.694129 0.649589 -0.073505
v 3.958239 0.333497 -0.085142
v 4.200000 0.000000 -0.120000
v 3.958239 -0.333497 -0.085142
v 3.694129 -0.649589 -0.073505
v 3.408919 -0.946782 -0.085142
v 3.103958 -1.223671 -0.120000
v 2.780688 -1.478945 -0.079517
v 2.440638 -1.711399 -0.066001
v 2.085416 -1.919931 -0.079517
v 1.716702 -2.103557 -0.120000
v 1.336240 -2.261408 -0.076390
v 0.945828 -2.392737 -0.061830
v 0.547314 -2.496924 -0.076390
v 0.142581 -2.573475 -0.120000
v -0.266455 -2.622028 -0.077503
v -0.677862 -2.642355 -0.063315
v -1.089693 -2.634358 -0.077503
v -1.500000 -2.598076 -0.120000
v -1.704885 -2.314256 -0.075994
v -1.885424 -2.014360 -0.061291
v -2.040364 -1.700472 -0.075994
v -2.168627 -1.374773 -0.120000
v -2.269323 -1.039523 -0.072347
v -2.341753 -0.697053 -0.056425
v -2.385413 -0.349741 -0.072347
v -2.400000 -0.000000 -0.120000
v -2.385413 0.349741 -0.072347
v -2.341753 0.697053 -0.056425
v -2.269323 1.039523 -0.072347
v -2.168627 1.374773 -0.120000
v -2.040364 1.700472 -0.075994
v -1.885424 2.014360 -0.061291
v -1.704885 2.314256 -0.075994
v -0.900000 1.558846 0.960249
v 0.085549 1.544085 0.960249
v 1.862375 0.734203 0.960249
v 2.520000 0.000000 0.960249
v 1.862375 -0.734203 0.960249
v 0.085549 -1.544085 0.960249
v -0.900000 -1.558846 0.960249
v -1.301176 -0.824864 0.960249
v -1.301176 0.824864 0.960249
v -1.200482 2.064307 0.699217
v 1.313660 1.677796 0.699217
v 3.294337 0.000000 0.699217
v 1.313660 -1.677796 0.699217
v -1.200482 -2.064307 0.699217
v -1.915579 -0.000000 0.699217
v -0.331504 0.570043 -2.133839
v 0.362757 0.463311 -2.133839
v 0.909706 0.000000 -2.133839
v 0.362757 -0.463311 -2.133839
v -0.331504 -0.570043 -2.133839
v -0.528972 -0.000000 -2.133839
v 0.000000 0.000000 -2.637299

vn 0.000000 -0.000000 1.000000
vn -0.402236 0.219852 0.888747
vn 0.006921 0.462083 0.886809
vn 0.307118 0.275085 0.911047
vn 0.307118 -0.275085 0.911047
vn 0.006921 -0.462083 0.886809
vn -0.402236 -0.219852 0.888747
vn 0.158538 0.347820 0.924060
vn 0.158538 -0.347820 0.924060
vn -0.391028 -0.000000 0.920379
vn 0.096269 0.626202 0.773695
vn 0.375763 0.443597 0.813649
vn 0.375763 -0.443597 0.813649
vn 0.096269 -0.626202 0.773695
vn -0.607985 -0.210612 0.765504
vn -0.607985 0.210612 0.765504
vn -0.653613 0.357248 0.667206
vn 0.011056 0.738165 0.674529
vn 0.212263 0.711033 0.670355
vn 0.379981 0.599089 0.704774
vn 0.485236 0.434626 0.758714
vn 0.485236 -0.434626 0.758714
vn 0.379981 -0.599089 0.704774
vn 0.212263 -0.711033 0.670355
vn 0.011056 -0.738165 0.674529
vn -0.653613 -0.357248 0.667206
vn -0.760773 -0.128037 0.636263
vn -0.760773 0.128037 0.636263
vn -0.088083 0.996113 -0.000000
vn -0.019414 0.999812 -0.000000
vn 0.049347 0.998782 0.000000
vn 0.117875 0.993028 0.000000
vn 0.185845 0.982579 0.000000
vn 0.252936 0.967483 0.000000
vn 0.318831 0.947812 -0.000000
vn 0.383218 0.923658 0.000000
vn 0.445793 0.895136 0.000000
vn 0.506260 0.862381 0.000000
vn 0.564332 0.825548 -0.000000
vn 0.619736 0.784810 0.000000
vn 0.672209 0.740361 0.000000
vn 0.721503 0.692411 0.000000
vn 0.767385 0.641186 -0.000000
vn 0.809638 0.586930 0.000000
vn 0.809638 -0.586930 0.000000
vn 0.767385 -0.641186 0.000000
vn 0.721503 -0.692411 0.000000
vn 0.672209 -0.740361 -0.000000
vn 0.619736 -0.784810 -0.000000
vn 0.564332 -0.825548 0.000000
vn 0.506260 -0.862381 0.000000
vn 0.445793 -0.895136 -0.000000
vn 0.383218 -0.923658 0.000000
vn 0.318831 -0.947812 0.000000
vn 0.252936 -0.967483 0.000000
vn 0.185845 -0.982579 0.000000
vn 0.117875 -0.993028 0.000000
vn 0.049347 -0.998782 0.000000
vn -0.019414 -0.999812 0.000000
vn -0.088083 -0.996113 0.000000
vn -0.810810 -0.585310 0.000000
vn -0.856733 -0.515759 0.000000
vn -0.896706 -0.442627 0.000000
vn -0.930450 -0.366419 0.000000
vn -0.957731 -0.287666 0.000000
vn -0.978359 -0.206915 0.000000
vn -0.992191 -0.124727 0.000000
vn -0.999131 -0.041672 0.000000
vn -0.999131 0.041672 0.000000
vn -0.992191 0.124727 -0.000000
vn -0.978359 0.206915 0.000000
vn -0.957731 0.287666 0.000000
vn -0.930450 0.366419 -0.000000
vn -0.896706 0.442627 -0.000000
vn -0.856733 0.515759 0.000000
vn -0.810810 0.585310 -0.000000
vn -0.622918 0.340472 -0.704309
vn 0.010599 0.707648 -0.706486
vn 0.205042 0.686846 -0.697281
vn 0.369774 0.582997 -0.723451
vn 0.472893 0.423570 -0.772632
vn 0.472893 -0.423570 -0.772632
vn 0.369774 -0.582997 -0.723451
vn 0.205042 -0.686846 -0.697281
vn 0.010599 -0.707648 -0.706486
vn -0.622918 -0.340472 -0.704309
vn -0.727100 -0.122370 -0.675538
vn -0.727100 0.122370 -0.675538
vn 0.106426 0.692271 -0.713747
vn 0.420385 0.496274 -0.759597
vn 0.420385 -0.496274 -0.759597
vn 0.106426 -0.692271 -0.713747
vn -0.670565 -0.232290 -0.704545
vn -0.670565 0.232290 -0.704545



f 97//1 105//1 104//1
f 97//1 104//1 103//1
f 97//1 103//1 102//1
f 97//1 102//1 101//1
f 97//1 101//1 100//1
f 97//1 100//1 99//1
f 97//1 99//1 98//1
f 97//2 106//2 105//2
f 97//3 98//3 106//3
f 100//4 108//4 99//4
f 100//5 101//5 108//5
f 103//6 110//6 102//6
f 103//7 104//7 110//7
f 98//8 99//8 107//8
f 101//9 102//9 109//9
f 104//10 105//10 111//10
f 98//11 107//11 5//11
f 98//11 5//11 106//11
f 99//12 108//12 13//12
f 99//12 13//12 107//12
f 101//13 109//13 21//13
f 101//13 21//13 108//13
f 102//14 110//14 29//14
f 102//14 29//14 109//14
f 104//15 111//15 37//15
f 104//15 37//15 110//15
f 105//16 106//16 45//16
f 105//16 45//16 111//16
f 106//17 1//17 48//17
f 106//17 48//17 47//17
f 106//17 47//17 46//17
f 106//17 46//17 45//17
f 106//18 5//18 4//18
f 106//18 4//18 3//18
f 106//18 3//18 2//18
f 106//18 2//18 1//18
f 107//19 9//19 8//19
f 107//19 8//19 7//19
f 107//19 7//19 6//19
f 107//19 6//19 5//19
f 107//20 13//20 12//20
f 107//20 12//20 11//20
f 107//20 11//20 10//20
f 107//20 10//20 9//20
f 108//21 17//21 16//21
f 108//21 16//21 15//21
f 108//21 15//21 14//21
f 108//21 14//21 13//21
f 108//22 21//22 20//22
f 108//22 20//22 19//22
f 108//22 19//22 18//22
f 108//22 18//22 17//22
f 109//23 25//23 24//23
f 109//23 24//23 23//23
f 109//23 23//23 22//23
f 109//23 22//23 21//23
f 109//24 29//24 28//24
f 109//24 28//24 27//24
f 109//24 27//24 26//24
f 109//24 26//24 25//24
f 110//25 33//25 32//25
f 110//25 32//25 31//25
f 110//25 31//25 30//25
f 110//25 30//25 29//25
f 110//26 37//26 36//26
f 110//26 36//26 35//26
f 110//26 35//26 34//26
f 110//26 34//26 33//26
f 111//27 41//27 40//27
f 111//27 40//27 39//27
f 111//27 39//27 38//27
f 111//27 38//27 37//27
f 111//28 45//28 44//28
f 111//28 44//28 43//28
f 111//28 43//28 42//28
f 111//28 42//28 41//28
f 1//29 2//29 50//29
f 1//29 50//29 49//29
f 2//30 3//30 51//30
f 2//30 51//30 50//30
f 3//31 4//31 52//31
f 3//31 52//31 51//31
f 4//32 5//32 53//32
f 4//32 53//32 52//32
f 5//33 6//33 54//33
f 5//33 54//33 53//33
f 6//34 7//34 55//34
f 6//34 55//34 54//34
f 7//35 8//35 56//35
f 7//35 56//35 55//35
f 8//36 9//36 57//36
f 8//36 57//36 56//36
f 9//37 10//37 58//37
f 9//37 58//37 57//37
f 10//38 11//38 59//38
f 10//38 59//38 58//38
f 11//39 12//39 60//39
f 11//39 60//39 59//39
f 12//40 13//40 61//40
f 12//40 61//40 60//40
f 13//41 14//41 62//41
f 13//41 62//41 61//41
f 14//42 15//42 63//42
f 14//42 63//42 62//42
f 15//43 16//43 64//43
f 15//43 64//43 63//43
f 16//44 17//44 65//44
f 16//44 65//44 64//44
f 17//45 18//45 66//45
f 17//45 66//45 65//45
f 18//46 19//46 67//46
f 18//46 67//46 66//46
f 19//47 20//47 68//47
f 19//47 68//47 67//47
f 20//48 21//48 69//48
f 20//48 69//48 68//48
f 21//49 22//49 70//49
f 21//49 70//49 69//49
f 22//50 23//50 71//50
f 22//50 71//50 70//50
f 23//51 24//51 72//51
f 23//51 72//51 71//51
f 24//52 25//52 73//52
f 24//52 73//52 72//52
f 25//53 26//53 74//53
f 25//53 74//53 73//53
f 26//54 27//54 75//54
f 26//54 75//54 74//54
f 27//55 28//55 76//55
f 27//55 76//55 75//55
f 28//56 29//56 77//56
f 28//56 77//56 76//56
f 29//57 30//57 78//57
f 29//57 78//57 77//57
f 30//58 31//58 79//58
f 30//58 79//58 78//58
f 31//59 32//59 80//59
f 31//59 80//59 79//59
f 32//60 33//60 81//60
f 32//60 81//60 80//60
f 33//61 34//61 82//61
f 33//61 82//61 81//61
f 34//62 35//62 83//62
f 34//62 83//62 82//62
f 35//63 36//63 84//63
f 35//63 84//63 83//63
f 36//64 37//64 85//64
f 36//64 85//64 84//64
f 37//65 38//65 86//65
f 37//65 86//65 85//65
f 38//66 39//66 87//66
f 38//66 87//66 86//66
f 39//67 40//67 88//67
f 39//67 88//67 87//67
f 40//68 41//68 89//68
f 40//68 89//68 88//68
f 41//69 42//69 90//69
f 41//69 90//69 89//69
f 42//70 43//70 91//70
f 42//70 91//70 90//70
f 43//71 44//71 92//71
f 43//71 92//71 91//71
f 44//72 45//72 93//72
f 44//72 93//72 92//72
f 45//73 46//73 94//73
f 45//73 94//73 93//73
f 46//74 47//74 95//74
f 46//74 95//74 94//74
f 47//75 48//75 96//75
f 47//75 96//75 95//75
f 48//76 1//76 49//76
f 48//76 49//76 96//76
f 112//77 93//77 94//77
f 112//77 94//77 95//77
f 112//77 95//77 96//77
f 112//77 96//77 49//77
f 112//78 49//78 50//78
f 112//78 50//78 51//78
f 112//78 51//78 52//78
f 112//78 52//78 53//78
f 113//79 53//79 54//79
f 113//79 54//79 55//79
f 113//79 55//79 56//79
f 113//79 56//79 57//79
f 113//80 57//80 58//80
f 113//80 58//80 59//80
f 113//80 59//80 60//80
f 113//80 60//80 61//80
f 114//81 61//81 62//81
f 114//81 62//81 63//81
f 114//81 63//81 64//81
f 114//81 64//81 65//81
f 114//82 65//82 66//82
f 114//82 66//82 67//82
f 114//82 67//82 68//82
f 114//82 68//82 69//82
f 115//83 69//83 70//83
f 115//83 70//83 71//83
f 115//83 71//83 72//83
f 115//83 72//83 73//83
f 115//84 73//84 74//84
f 115//84 74//84 75//84
f 115//84 75//84 76//84
f 115//84 76//84 77//84
f 116//85 77//85 78//85
f 116//85 78//85 79//85
f 116//85 79//85 80//85
f 116//85 80//85 81//85
f 116//86 81//86 82//86
f 116//86 82//86 83//86
f 116//86 83//86 84//86
f 116//86 84//86 85//86
f 117//87 85//87 86//87
f 117//87 86//87 87//87
f 117//87 87//87 88//87
f 117//87 88//87 89//87
f 117//88 89//88 90//88
f 117//88 90//88 91//88
f 117//88 91//88 92//88
f 117//88 92//88 93//88
f 118//89 112//89 53//89
f 118//89 53//89 113//89
f 118//90 113//90 61//90
f 118//90 61//90 114//90
f 118//91 114//91 69//91
f 118//91 69//91 115//91
f 118//92 115//92 77//92
f 118//92 77//92 116//92
f 118//93 116//93 85//93
f 118//93 85//93 117//93
f 118//94 117//94 93//94
f 118//94 93//94 112//94
