v 0.000000 1.990031 0.960000
v 1.892632 0.614953 0.960000
v 1.169711 -1.609969 0.960000
v -1.169711 -1.609969 0.960000
v -1.892632 0.614953 0.960000
v 1.322280 1.819963 0.600000
v 2.139494 -0.695164 0.600000
v -0.000000 -2.249598 0.600000
v -2.139494 -0.695164 0.600000
v -1.322280 1.819963 0.600000
v 0.000000 3.000000 0.240000
v 0.293323 2.946428 0.145161
v 0.515817 2.832978 0.134321
v 0.683686 2.739086 0.133104
v 0.869110 2.674846 0.098638
v 1.095713 2.578995 0.071073
v 1.305819 2.416794 0.107044
v 1.444491 2.239980 0.189321
v 1.542936 2.123670 0.240000
v 1.683975 2.065984 0.189321
v 1.894988 1.988738 0.107044
v 2.114176 1.839039 0.071073
v 2.275360 1.653146 0.098638
v 2.393755 1.496648 0.133104
v 2.534926 1.366010 0.134321
v 2.711577 1.189463 0.145161
v 2.853169 0.927051 0.240000
v 2.892861 0.631529 0.145161
v 2.853719 0.384867 0.134321
v 2.816296 0.196200 0.133104
v 2.812500 -0.000000 0.098638
v 2.791364 -0.245132 0.071073
v 2.702028 -0.495077 0.107044
v 2.576720 -0.681601 0.189321
v 2.496523 -0.811170 0.240000
v 2.485245 -0.963131 0.189321
v 2.476985 -1.187687 0.107044
v 2.402346 -1.442407 0.071073
v 2.275360 -1.653146 0.098638
v 2.163108 -1.814107 0.133104
v 2.082488 -1.988738 0.134321
v 1.969170 -2.211299 0.145161
v 1.763356 -2.427051 0.240000
v 1.494563 -2.556121 0.145161
v 1.247878 -2.595117 0.134321
v 1.056881 -2.617827 0.133104
v 0.869110 -2.674846 0.098638
v 0.629444 -2.730495 0.071073
v 0.364127 -2.722769 0.107044
v 0.148009 -2.661232 0.189321
v -0.000000 -2.625000 0.240000
v -0.148009 -2.661232 0.189321
v -0.364127 -2.722769 0.107044
v -0.629444 -2.730495 0.071073
v -0.869110 -2.674846 0.098638
v -1.056881 -2.617827 0.133104
v -1.247878 -2.595117 0.134321
v -1.494563 -2.556121 0.145161
v -1.763356 -2.427051 0.240000
v -1.969170 -2.211299 0.145161
v -2.082488 -1.988738 0.134321
v -2.163108 -1.814107 0.133104
v -2.275360 -1.653146 0.098638
v -2.402346 -1.442407 0.071073
v -2.476985 -1.187687 0.107044
v -2.485245 -0.963131 0.189321
v -2.496523 -0.811170 0.240000
v -2.576720 -0.681601 0.189321
v -2.702028 -0.495077 0.107044
v -2.791364 -0.245132 0.071073
v -2.812500 0.000000 0.098638
v -2.816296 0.196200 0.133104
v -2.853719 0.384867 0.134321
v -2.892861 0.631529 0.145161
v -2.853169 0.927051 0.240000
v -2.711577 1.189463 0.145161
v -2.534926 1.366010 0.134321
v -2.393755 1.496648 0.133104
v -2.275360 1.653146 0.098638
v -2.114176 1.839039 0.071073
v -1.894988 1.988738 0.107044
v -1.683975 2.065984 0.189321
v -1.542936 2.123670 0.240000
v -1.444491 2.239980 0.189321
v -1.305819 2.416794 0.107044
v -1.095713 2.578995 0.071073
v -0.869110 2.674846 0.098638
v -0.683686 2.739086 0.133104
v -0.515817 2.832978 0.134321
v -0.293323 2.946428 0.145161
v 0.000000 3.000000 -0.240000
v 0.293323 2.946428 -0.082597
v 0.515817 2.832978 -0.064606
v 0.683686 2.739086 -0.062586
v 0.869110 2.674846 -0.005383
v 1.095713 2.578995 0.040366
v 1.305819 2.416794 -0.019335
v 1.444491 2.239980 -0.155889
v 1.542936 2.123670 -0.240000
v 1.683975 2.065984 -0.155889
v 1.894988 1.988738 -0.019335
v 2.114176 1.839039 0.040366
v 2.275360 1.653146 -0.005383
v 2.393755 1.496648 -0.062586
v 2.534926 1.366010 -0.064606
v 2.711577 1.189463 -0.082597
v 2.853169 0.927051 -0.240000
v 2.892861 0.631529 -0.082597
v 2.853719 0.384867 -0.064606
v 2.816296 0.196200 -0.062586
v 2.812500 -0.000000 -0.005383
v 2.791364 -0.245132 0.040366
v 2.702028 -0.495077 -0.019335
v 2.576720 -0.681601 -0.155889
v 2.496523 -0.811170 -0.240000
v 2.485245 -0.963131 -0.155889
v 2.476985 -1.187687 -0.019335
v 2.402346 -1.442407 0.040366
v 2.275360 -1.653146 -0.005383
v 2.163108 -1.814107 -0.062586
v 2.082488 -1.988738 -0.064606
v 1.969170 -2.211299 -0.082597
v 1.763356 -2.427051 -0.240000
v 1.494563 -2.556121 -0.082597
v 1.247878 -2.595117 -0.064606
v 1.056881 -2.617827 -0.062586
v 0.869110 -2.674846 -0.005383
v 0.629444 -2.730495 0.040366
v 0.364127 -2.722769 -0.019335
v 0.148009 -2.661232 -0.155889
v -0.000000 -2.625000 -0.240000
v -0.148009 -2.661232 -0.155889
v -0.364127 -2.722769 -0.019335
v -0.629444 -2.730495 0.040366
v -0.869110 -2.674846 -0.005383
v -1.056881 -2.617827 -0.062586
v -1.247878 -2.595117 -0.064606
v -1.494563 -2.556121 -0.082597
v -1.763356 -2.427051 -0.240000
v -1.969170 -2.211299 -0.082597
v -2.082488 -1.988738 -0.064606
v -2.163108 -1.814107 -0.062586
v -2.275360 -1.653146 -0.005383
v -2.402346 -1.442407 0.040366
v -2.476985 -1.187687 -0.019335
v -2.485245 -0.963131 -0.155889
v -2.496523 -0.811170 -0.240000
v -2.576720 -0.681601 -0.155889
v -2.702028 -0.495077 -0.019335
v -2.791364 -0.245132 0.040366
v -2.812500 0.000000 -0.005383
v -2.816296 0.196200 -0.062586
v -2.853719 0.384867 -0.064606
v -2.892861 0.631529 -0.082597
v -2.853169 0.927051 -0.240000
v -2.711577 1.189463 -0.082597
v -2.534926 1.366010 -0.064606
v -2.393755 1.496648 -0.062586
v -2.275360 1.653146 -0.005383
v -2.114176 1.839039 0.040366
v -1.894988 1.988738 -0.019335
v -1.683975 2.065984 -0.155889
v -1.542936 2.123670 -0.240000
v -1.444491 2.239980 -0.155889
v -1.305819 2.416794 -0.019335
v -1.095713 2.578995 0.040366
v -0.869110 2.674846 -0.005383
v -0.683686 2.739086 -0.062586
v -0.515817 2.832978 -0.064606
v -0.293323 2.946428 -0.082597
v 0.000000 2.784582 -0.540000
v 2.648295 0.860483 -0.540000
v 1.636736 -2.252774 -0.540000
v -1.636736 -2.252774 -0.540000
v -2.648295 0.860483 -0.540000
v 1.298101 1.786683 -0.900000
v 2.100372 -0.682452 -0.900000
v -0.000000 -2.208462 -0.900000
v -2.100372 -0.682452 -0.900000
v -1.298101 1.786683 -0.900000
v 0.318228 0.979405 -1.668000
v 0.833131 0.605305 -1.668000
v 1.029807 -0.000000 -1.668000
v 0.833131 -0.605305 -1.668000
v 0.318228 -0.979405 -1.668000
v -0.318228 -0.979405 -1.668000
v -0.833131 -0.605305 -1.668000
v -1.029807 0.000000 -1.668000
v -0.833131 0.605305 -1.668000
v -0.318228 0.979405 -1.668000
v 0.000000 0.000000 -2.280000

vn 0.000000 -0.000000 1.000000
vn 0.288295 0.396805 0.871454
vn 0.466472 -0.151566 0.871454
vn -0.000000 -0.490477 0.871454
vn -0.466472 -0.151566 0.871454
vn -0.288295 0.396805 0.871454
vn -0.284137 0.556562 0.780708
vn 0.284137 0.556562 0.780708
vn 0.441518 0.442217 0.780708
vn 0.617125 -0.098243 0.780708
vn 0.557010 -0.283256 0.780708
vn 0.097267 -0.617279 0.780708
vn -0.097267 -0.617279 0.780708
vn -0.557010 -0.283256 0.780708
vn -0.617125 -0.098243 0.780708
vn -0.441518 0.442217 0.780708
vn 0.342940 0.603807 0.719589
vn 0.468280 0.512742 0.719589
vn 0.680229 -0.139569 0.719589
vn 0.632353 -0.286915 0.719589
vn 0.077465 -0.690065 0.719589
vn -0.077465 -0.690065 0.719589
vn -0.632353 -0.286915 0.719589
vn -0.680229 -0.139569 0.719589
vn -0.468280 0.512742 0.719589
vn -0.342940 0.603807 0.719589
vn 0.179667 0.983728 0.000000
vn 0.454255 0.890872 -0.000000
vn 0.488152 0.872758 0.000000
vn 0.327356 0.944901 -0.000000
vn 0.389574 0.920995 0.000000
vn 0.611086 0.791565 -0.000000
vn 0.786866 0.617124 0.000000
vn 0.763293 0.646053 0.000000
vn 0.378562 0.925576 0.000000
vn 0.343765 0.939056 -0.000000
vn 0.563987 0.825784 0.000000
vn 0.755533 0.655110 0.000000
vn 0.797495 0.603325 0.000000
vn 0.679195 0.733958 0.000000
vn 0.706897 0.707317 0.000000
vn 0.880060 0.474862 0.000000
vn 0.991101 0.133115 -0.000000
vn 0.987642 -0.156728 0.000000
vn 0.980890 -0.194563 0.000000
vn 0.999813 -0.019344 0.000000
vn 0.996303 -0.085904 0.000000
vn 0.941658 -0.336570 0.000000
vn 0.830075 -0.557652 0.000000
vn 0.850303 -0.526293 -0.000000
vn 0.997257 -0.074016 0.000000
vn 0.999324 -0.036756 -0.000000
vn 0.959649 -0.281202 0.000000
vn 0.856520 -0.516115 0.000000
vn 0.820236 -0.572026 0.000000
vn 0.907918 -0.419148 0.000000
vn 0.891141 -0.453726 0.000000
vn 0.723574 -0.690247 -0.000000
vn 0.432867 -0.901458 0.000000
vn 0.156141 -0.987735 0.000000
vn 0.118071 -0.993005 -0.000000
vn 0.290562 -0.956856 -0.000000
vn 0.226175 -0.974087 0.000000
vn -0.029109 -0.999576 0.000000
vn -0.273851 -0.961772 0.000000
vn -0.237776 -0.971320 0.000000
vn 0.237776 -0.971320 0.000000
vn 0.273851 -0.961772 0.000000
vn 0.029109 -0.999576 0.000000
vn -0.226175 -0.974087 0.000000
vn -0.290562 -0.956856 -0.000000
vn -0.118071 -0.993005 0.000000
vn -0.156141 -0.987735 0.000000
vn -0.432867 -0.901458 0.000000
vn -0.723574 -0.690247 0.000000
vn -0.891141 -0.453726 0.000000
vn -0.907918 -0.419148 -0.000000
vn -0.820236 -0.572026 -0.000000
vn -0.856520 -0.516115 0.000000
vn -0.959649 -0.281202 0.000000
vn -0.999324 -0.036756 0.000000
vn -0.997257 -0.074016 0.000000
vn -0.850303 -0.526293 -0.000000
vn -0.830075 -0.557652 0.000000
vn -0.941658 -0.336570 -0.000000
vn -0.996303 -0.085904 -0.000000
vn -0.999813 -0.019344 -0.000000
vn -0.980890 -0.194563 -0.000000
vn -0.987642 -0.156728 0.000000
vn -0.991101 0.133115 0.000000
vn -0.880060 0.474862 0.000000
vn -0.706897 0.707317 -0.000000
vn -0.679195 0.733958 0.000000
vn -0.797495 0.603325 0.000000
vn -0.755533 0.655110 0.000000
vn -0.563987 0.825784 0.000000
vn -0.343765 0.939056 0.000000
vn -0.378562 0.925576 -0.000000
vn -0.763293 0.646053 0.000000
vn -0.786866 0.617124 0.000000
vn -0.611086 0.791565 -0.000000
vn -0.389574 0.920995 0.000000
vn -0.327356 0.944901 0.000000
vn -0.488152 0.872758 0.000000
vn -0.454255 0.890872 0.000000
vn -0.179667 0.983728 0.000000
vn -0.418914 0.737572 -0.529621
vn 0.418914 0.737572 -0.529621
vn 0.572022 0.626333 -0.529621
vn 0.830924 -0.170488 -0.529621
vn 0.772442 -0.350477 -0.529621
vn 0.094626 -0.842940 -0.529621
vn -0.094626 -0.842940 -0.529621
vn -0.772442 -0.350477 -0.529621
vn -0.830924 -0.170488 -0.529621
vn -0.572022 0.626333 -0.529621
vn -0.191821 0.544176 -0.816748
vn -0.418756 0.736419 -0.531348
vn 0.418756 0.736419 -0.531348
vn 0.191821 0.544176 -0.816748
vn 0.458266 0.350593 -0.816748
vn 0.570974 0.625826 -0.531348
vn 0.829779 -0.170694 -0.531348
vn 0.576818 -0.014273 -0.816748
vn 0.475046 -0.327498 -0.816748
vn 0.771637 -0.349637 -0.531348
vn 0.094076 -0.841914 -0.531348
vn 0.164672 -0.552998 -0.816748
vn -0.164672 -0.552998 -0.816748
vn -0.094076 -0.841914 -0.531348
vn -0.771637 -0.349637 -0.531348
vn -0.475046 -0.327498 -0.816748
vn -0.576818 -0.014273 -0.816748
vn -0.829779 -0.170694 -0.531348
vn -0.570974 0.625826 -0.531348
vn -0.458266 0.350593 -0.816748
vn 0.000000 0.529919 -0.848048
vn 0.311479 0.428714 -0.848048
vn 0.503983 0.163754 -0.848048
vn 0.503983 -0.163754 -0.848048
vn 0.311479 -0.428714 -0.848048
vn -0.000000 -0.529919 -0.848048
vn -0.311479 -0.428714 -0.848048
vn -0.503983 -0.163754 -0.848048
vn -0.503983 0.163754 -0.848048
vn -0.311479 0.428714 -0.848048



f 1//1 5//1 4//1
f 1//1 4//1 3//1
f 1//1 3//1 2//1
f 6//2 1//2 2//2
f 7//3 2//3 3//3
f 8//4 3//4 4//4
f 9//5 4//5 5//5
f 10//6 5//6 1//6
f 1//7 11//7 10//7
f 1//8 6//8 11//8
f 6//9 2//9 27//9
f 2//10 7//10 27//10
f 7//11 3//11 43//11
f 3//12 8//12 43//12
f 4//13 59//13 8//13
f 4//14 9//14 59//14
f 5//15 75//15 9//15
f 5//16 10//16 75//16
f 6//17 19//17 18//17
f 6//17 18//17 17//17
f 6//17 17//17 16//17
f 6//17 16//17 15//17
f 6//17 15//17 14//17
f 6//17 14//17 13//17
f 6//17 13//17 12//17
f 6//17 12//17 11//17
f 6//18 27//18 26//18
f 6//18 26//18 25//18
f 6//18 25//18 24//18
f 6//18 24//18 23//18
f 6//18 23//18 22//18
f 6//18 22//18 21//18
f 6//18 21//18 20//18
f 6//18 20//18 19//18
f 7//19 35//19 34//19
f 7//19 34//19 33//19
f 7//19 33//19 32//19
f 7//19 32//19 31//19
f 7//19 31//19 30//19
f 7//19 30//19 29//19
f 7//19 29//19 28//19
f 7//19 28//19 27//19
f 7//20 43//20 42//20
f 7//20 42//20 41//20
f 7//20 41//20 40//20
f 7//20 40//20 39//20
f 7//20 39//20 38//20
f 7//20 38//20 37//20
f 7//20 37//20 36//20
f 7//20 36//20 35//20
f 8//21 51//21 50//21
f 8//21 50//21 49//21
f 8//21 49//21 48//21
f 8//21 48//21 47//21
f 8//21 47//21 46//21
f 8//21 46//21 45//21
f 8//21 45//21 44//21
f 8//21 44//21 43//21
f 8//22 59//22 58//22
f 8//22 58//22 57//22
f 8//22 57//22 56//22
f 8//22 56//22 55//22
f 8//22 55//22 54//22
f 8//22 54//22 53//22
f 8//22 53//22 52//22
f 8//22 52//22 51//22
f 9//23 67//23 66//23
f 9//23 66//23 65//23
f 9//23 65//23 64//23
f 9//23 64//23 63//23
f 9//23 63//23 62//23
f 9//23 62//23 61//23
f 9//23 61//23 60//23
f 9//23 60//23 59//23
f 9//24 75//24 74//24
f 9//24 74//24 73//24
f 9//24 73//24 72//24
f 9//24 72//24 71//24
f 9//24 71//24 70//24
f 9//24 70//24 69//24
f 9//24 69//24 68//24
f 9//24 68//24 67//24
f 10//25 83//25 82//25
f 10//25 82//25 81//25
f 10//25 81//25 80//25
f 10//25 80//25 79//25
f 10//25 79//25 78//25
f 10//25 78//25 77//25
f 10//25 77//25 76//25
f 10//25 76//25 75//25
f 10//26 11//26 90//26
f 10//26 90//26 89//26
f 10//26 89//26 88//26
f 10//26 88//26 87//26
f 10//26 87//26 86//26
f 10//26 86//26 85//26
f 10//26 85//26 84//26
f 10//26 84//26 83//26
f 11//27 12//27 92//27
f 11//27 92//27 91//27
f 12//28 13//28 93//28
f 12//28 93//28 92//28
f 13//29 14//29 94//29
f 13//29 94//29 93//29
f 14//30 15//30 95//30
f 14//30 95//30 94//30
f 15//31 16//31 96//31
f 15//31 96//31 95//31
f 16//32 17//32 97//32
f 16//32 97//32 96//32
f 17//33 18//33 98//33
f 17//33 98//33 97//33
f 18//34 19//34 99//34
f 18//34 99//34 98//34
f 19//35 20//35 100//35
f 19//35 100//35 99//35
f 20//36 21//36 101//36
f 20//36 101//36 100//36
f 21//37 22//37 102//37
f 21//37 102//37 101//37
f 22//38 23//38 103//38
f 22//38 103//38 102//38
f 23//39 24//39 104//39
f 23//39 104//39 103//39
f 24//40 25//40 105//40
f 24//40 105//40 104//40
f 25//41 26//41 106//41
f 25//41 106//41 105//41
f 26//42 27//42 107//42
f 26//42 107//42 106//42
f 27//43 28//43 108//43
f 27//43 108//43 107//43
f 28//44 29//44 109//44
f 28//44 109//44 108//44
f 29//45 30//45 110//45
f 29//45 110//45 109//45
f 30//46 31//46 111//46
f 30//46 111//46 110//46
f 31//47 32//47 112//47
f 31//47 112//47 111//47
f 32//48 33//48 113//48
f 32//48 113//48 112//48
f 33//49 34//49 114//49
f 33//49 114//49 113//49
f 34//50 35//50 115//50
f 34//50 115//50 114//50
f 35//51 36//51 116//51
f 35//51 116//51 115//51
f 36//52 37//52 117//52
f 36//52 117//52 116//52
f 37//53 38//53 118//53
f 37//53 118//53 117//53
f 38//54 39//54 119//54
f 38//54 119//54 118//54
f 39//55 40//55 120//55
f 39//55 120//55 119//55
f 40//56 41//56 121//56
f 40//56 121//56 120//56
f 41//57 42//57 122//57
f 41//57 122//57 121//57
f 42//58 43//58 123//58
f 42//58 123//58 122//58
f 43//59 44//59 124//59
f 43//59 124//59 123//59
f 44//60 45//60 125//60
f 44//60 125//60 124//60
f 45//61 46//61 126//61
f 45//61 126//61 125//61
f 46//62 47//62 127//62
f 46//62 127//62 126//62
f 47//63 48//63 128//63
f 47//63 128//63 127//63
f 48//64 49//64 129//64
f 48//64 129//64 128//64
f 49//65 50//65 130//65
f 49//65 130//65 129//65
f 50//66 51//66 131//66
f 50//66 131//66 130//66
f 51//67 52//67 132//67
f 51//67 132//67 131//67
f 52//68 53//68 133//68
f 52//68 133//68 132//68
f 53//69 54//69 134//69
f 53//69 134//69 133//69
f 54//70 55//70 135//70
f 54//70 135//70 134//70
f 55//71 56//71 136//71
f 55//71 136//71 135//71
f 56//72 57//72 137//72
f 56//72 137//72 136//72
f 57//73 58//73 138//73
f 57//73 138//73 137//73
f 58//74 59//74 139//74
f 58//74 139//74 138//74
f 59//75 60//75 140//75
f 59//75 140//75 139//75
f 60//76 61//76 141//76
f 60//76 141//76 140//76
f 61//77 62//77 142//77
f 61//77 142//77 141//77
f 62//78 63//78 143//78
f 62//78 143//78 142//78
f 63//79 64//79 144//79
f 63//79 144//79 143//79
f 64//80 65//80 145//80
f 64//80 145//80 144//80
f 65//81 66//81 146//81
f 65//81 146//81 145//81
f 66//82 67//82 147//82
f 66//82 147//82 146//82
f 67//83 68//83 148//83
f 67//83 148//83 147//83
f 68//84 69//84 149//84
f 68//84 149//84 148//84
f 69//85 70//85 150//85
f 69//85 150//85 149//85
f 70//86 71//86 151//86
f 70//86 151//86 150//86
f 71//87 72//87 152//87
f 71//87 152//87 151//87
f 72//88 73//88 153//88
f 72//88 153//88 152//88
f 73//89 74//89 154//89
f 73//89 154//89 153//89
f 74//90 75//90 155//90
f 74//90 155//90 154//90
f 75//91 76//91 156//91
f 75//91 156//91 155//91
f 76//92 77//92 157//92
f 76//92 157//92 156//92
f 77//93 78//93 158//93
f 77//93 158//93 157//93
f 78//94 79//94 159//94
f 78//94 159//94 158//94
f 79//95 80//95 160//95
f 79//95 160//95 159//95
f 80//96 81//96 161//96
f 80//96 161//96 160//96
f 81//97 82//97 162//97
f 81//97 162//97 161//97
f 82//98 83//98 163//98
f 82//98 163//98 162//98
f 83//99 84//99 164//99
f 83//99 164//99 163//99
f 84//100 85//100 165//100
f 84//100 165//100 164//100
f 85//101 86//101 166//101
f 85//101 166//101 165//101
f 86//102 87//102 167//102
f 86//102 167//102 166//102
f 87//103 88//103 168//103
f 87//103 168//103 167//103
f 88//104 89//104 169//104
f 88//104 169//104 168//104
f 89//105 90//105 170//105
f 89//105 170//105 169//105
f 90//106 11//106 91//106
f 90//106 91//106 170//106
f 171//107 163//107 164//107
f 171//107 164//107 165//107
f 171//107 165//107 166//107
f 171//107 166//107 167//107
f 171//107 167//107 168//107
f 171//107 168//107 169//107
f 171//107 169//107 170//107
f 171//107 170//107 91//107
f 171//108 91//108 92//108
f 171//108 92//108 93//108
f 171//108 93//108 94//108
f 171//108 94//108 95//108
f 171//108 95//108 96//108
f 171//108 96//108 97//108
f 171//108 97//108 98//108
f 171//108 98//108 99//108
f 172//109 99//109 100//109
f 172//109 100//109 101//109
f 172//109 101//109 102//109
f 172//109 102//109 103//109
f 172//109 103//109 104//109
f 172//109 104//109 105//109
f 172//109 105//109 106//109
f 172//109 106//109 107//109
f 172//110 107//110 108//110
f 172//110 108//110 109//110
f 172//110 109//110 110//110
f 172//110 110//110 111//110
f 172//110 111//110 112//110
f 172//110 112//110 113//110
f 172//110 113//110 114//110
f 172//110 114//110 115//110
f 173//111 115//111 116//111
f 173//111 116//111 117//111
f 173//111 117//111 118//111
f 173//111 118//111 119//111
f 173//111 119//111 120//111
f 173//111 120//111 121//111
f 173//111 121//111 122//111
f 173//111 122//111 123//111
f 173//112 123//112 124//112
f 173//112 124//112 125//112
f 173//112 125//112 126//112
f 173//112 126//112 127//112
f 173//112 127//112 128//112
f 173//112 128//112 129//112
f 173//112 129//112 130//112
f 173//112 130//112 131//112
f 174//113 131//113 132//113
f 174//113 132//113 133//113
f 174//113 133//113 134//113
f 174//113 134//113 135//113
f 174//113 135//113 136//113
f 174//113 136//113 137//113
f 174//113 137//113 138//113
f 174//113 138//113 139//113
f 174//114 139//114 140//114
f 174//114 140//114 141//114
f 174//114 141//114 142//114
f 174//114 142//114 143//114
f 174//114 143//114 144//114
f 174//114 144//114 145//114
f 174//114 145//114 146//114
f 174//114 146//114 147//114
f 175//115 147//115 148//115
f 175//115 148//115 149//115
f 175//115 149//115 150//115
f 175//115 150//115 151//115
f 175//115 151//115 152//115
f 175//115 152//115 153//115
f 175//115 153//115 154//115
f 175//115 154//115 155//115
f 175//116 155//116 156//116
f 175//116 156//116 157//116
f 175//116 157//116 158//116
f 175//116 158//116 159//116
f 175//116 159//116 160//116
f 175//116 160//116 161//116
f 175//116 161//116 162//116
f 175//116 162//116 163//116
f 171//117 190//117 180//117
f 171//118 180//118 163//118
f 171//119 99//119 176//119
f 171//120 176//120 181//120
f 172//121 182//121 176//121
f 172//122 176//122 99//122
f 172//123 115//123 177//123
f 172//124 177//124 183//124
f 173//125 184//125 177//125
f 173//126 177//126 115//126
f 173//127 131//127 178//127
f 173//128 178//128 185//128
f 174//129 186//129 178//129
f 174//130 178//130 131//130
f 174//131 147//131 179//131
f 174//132 179//132 187//132
f 175//133 188//133 179//133
f 175//134 179//134 147//134
f 175//135 163//135 180//135
f 175//136 180//136 189//136
f 191//137 190//137 171//137
f 191//137 171//137 181//137
f 191//138 181//138 176//138
f 191//138 176//138 182//138
f 191//139 182//139 172//139
f 191//139 172//139 183//139
f 191//140 183//140 177//140
f 191//140 177//140 184//140
f 191//141 184//141 173//141
f 191//141 173//141 185//141
f 191//142 185//142 178//142
f 191//142 178//142 186//142
f 191//143 186//143 174//143
f 191//143 174//143 187//143
f 191//144 187//144 179//144
f 191//144 179//144 188//144
f 191//145 188//145 175//145
f 191//145 175//145 189//145
f 191//146 189//146 180//146
f 191//146 180//146 190//146
